<?xml version="1.0" encoding="UTF-8"?>
<svg version="1.1" xmlns="http://www.w3.org/2000/svg" width="2200" height="1800">
<path d="M 6 -645 C 7.3 -645 8.6 -645 9.9 -645 C 13.6 -645 17.2 -645 20.8 -645 C 24.7 -645 28.6 -645 32.6 -645 C 40.4 -645 48.2 -645 56 -645 C 65.3 -645 74.7 -645.1 84 -645.1 C 106.6 -645.1 129.2 -645.1 151.7 -645.1 C 162.4 -645.1 173.1 -645.1 183.8 -645.1 C 220.4 -645.1 257 -645.1 293.6 -645.2 C 295.9 -645.2 298.2 -645.2 300.5 -645.2 C 302.2 -645.2 302.2 -645.2 304 -645.2 C 309.7 -645.2 315.5 -645.2 321.3 -645.2 C 323 -645.2 323 -645.2 324.7 -645.2 C 361.9 -645.2 399 -645.2 436.1 -645.2 C 475.4 -645.3 514.6 -645.3 553.9 -645.3 C 558.2 -645.3 562.5 -645.3 566.8 -645.3 C 568.4 -645.3 568.4 -645.3 570 -645.3 C 587.1 -645.3 604.2 -645.3 621.2 -645.3 C 638.4 -645.3 655.6 -645.3 672.7 -645.3 C 682.9 -645.3 693.1 -645.3 703.3 -645.4 C 710.1 -645.4 716.9 -645.4 723.8 -645.4 C 727.6 -645.4 731.5 -645.4 735.4 -645.4 C 758.5 -645.5 780.9 -643.8 803.1 -636.9 C 803.8 -636.6 804.6 -636.4 805.3 -636.2 C 860.4 -619.9 908 -581.3 935.9 -531 C 949.2 -506.3 957.9 -480.6 962.1 -452.9 C 962.2 -451.7 962.4 -450.6 962.6 -449.5 C 963.4 -442.9 963.2 -436.2 963.2 -429.6 C 963.2 -428.1 963.2 -426.6 963.2 -425.1 C 963.2 -422 963.2 -418.8 963.2 -415.7 C 963.2 -411.8 963.3 -407.8 963.3 -403.8 C 963.3 -400.7 963.3 -397.7 963.3 -394.6 C 963.3 -393.1 963.3 -391.7 963.3 -390.2 C 963.6 -334.7 940.6 -280.6 902.1 -240.9 C 900.4 -239.2 898.7 -237.5 897.1 -235.9 C 896.3 -235.1 895.6 -234.4 894.9 -233.6 C 857.8 -195.2 802.1 -172.8 749.1 -171.8 C 740.8 -171.7 732.5 -171.7 724.2 -171.7 C 720.4 -171.7 716.6 -171.7 712.8 -171.7 C 706.1 -171.7 699.4 -171.7 692.7 -171.7 C 682.7 -171.7 672.8 -171.7 662.8 -171.7 C 644 -171.7 625.2 -171.7 606.4 -171.7 C 591.9 -171.7 577.3 -171.7 562.8 -171.7 C 558.6 -171.7 554.5 -171.7 550.3 -171.7 C 549.2 -171.7 548.2 -171.7 547.1 -171.7 C 517.9 -171.7 488.6 -171.7 459.3 -171.7 C 458.2 -171.7 457.1 -171.7 456 -171.7 C 450.4 -171.7 444.8 -171.7 439.2 -171.7 C 438.1 -171.7 437 -171.7 435.9 -171.7 C 433.6 -171.7 431.4 -171.7 429.1 -171.7 C 394.2 -171.7 359.3 -171.7 324.4 -171.7 C 285.2 -171.6 245.9 -171.6 206.7 -171.6 C 202.5 -171.6 198.3 -171.6 194.1 -171.6 C 192.6 -171.6 192.6 -171.6 191 -171.6 C 174.4 -171.6 157.8 -171.6 141.3 -171.6 C 124.6 -171.6 108 -171.6 91.3 -171.6 C 81.4 -171.6 71.5 -171.6 61.6 -171.6 C 55 -171.6 48.4 -171.6 41.8 -171.6 C 38 -171.6 34.3 -171.6 30.5 -171.6 C -32.8 -171.5 -86.5 -188.1 -134.9 -229.9 C -135.7 -230.5 -136.5 -231.2 -137.3 -231.8 C -141.3 -235.2 -144.8 -238.8 -148.1 -242.7 C -149.3 -244.2 -150.6 -245.6 -151.9 -247 C -180.5 -277.3 -198.3 -318 -204.9 -358.9 C -205.1 -359.8 -205.3 -360.8 -205.4 -361.8 C -206.9 -370.9 -207.3 -379.9 -207.3 -389.1 C -207.3 -390.6 -207.3 -392.2 -207.3 -393.7 C -207.3 -396.9 -207.3 -400.1 -207.3 -403.3 C -207.3 -406.5 -207.3 -409.8 -207.4 -413 C -207.9 -477.2 -187.3 -534.5 -142 -581 C -108 -615.4 -62.5 -636.7 -14.9 -643.9 C -13.8 -644 -12.7 -644.2 -11.6 -644.4 C -5.7 -645.1 0.1 -645 6 -645 Z" fill="#060808" transform="matrix(1,0,0,1,727.9,983.9)"/>
<path d="M 6 -644 C 6.8 -644 7.6 -643.9 8.5 -643.9 C 52.2 -641.8 94.6 -621.6 127 -593 C 127.8 -592.3 128.7 -591.6 129.6 -590.8 C 134.5 -586.5 138.8 -582 143 -577 C 143.8 -576.1 144.6 -575.2 145.5 -574.2 C 166.4 -550.5 181.2 -521.5 188.4 -490.7 C 188.7 -489.7 188.9 -488.7 189.1 -487.7 C 192.5 -472.3 193.4 -456.8 193.4 -441.2 C 193.4 -440.4 193.4 -439.5 193.4 -438.7 C 193.3 -426.6 192.7 -415 189.6 -403.3 C 189 -400.9 188.4 -398.6 187.9 -396.3 C 181.7 -370.3 170.5 -345.1 154 -324 C 153.3 -323.1 152.7 -322.3 152 -321.4 C 146.7 -314.6 140.9 -308.3 135 -302 C 134.4 -301.3 133.8 -300.7 133.1 -300 C 128.2 -294.9 122.6 -290.4 117 -286 C 116.5 -285.6 115.9 -285.2 115.4 -284.7 C 72.5 -250.8 17.9 -239.3 -35.7 -245.4 C -77 -250.9 -114.7 -271 -145 -299 C -145.5 -299.5 -146 -299.9 -146.5 -300.4 C -153.7 -307.1 -159.8 -314.4 -165.7 -322.2 C -166.9 -323.9 -168.2 -325.6 -169.5 -327.2 C -189.3 -353.1 -200.8 -385.9 -205 -418 C -205.1 -418.7 -205.2 -419.5 -205.3 -420.2 C -206.2 -427.9 -206.2 -435.7 -206.2 -443.4 C -206.2 -444.1 -206.2 -444.9 -206.2 -445.6 C -206.2 -456.8 -205.8 -467.9 -204 -479 C -203.9 -479.7 -203.8 -480.4 -203.7 -481.1 C -197.2 -519.2 -177.5 -554.3 -151 -582 C -150.5 -582.6 -150 -583.1 -149.4 -583.7 C -136.9 -596.9 -122.9 -608 -107 -617 C -106.3 -617.4 -105.6 -617.8 -104.9 -618.2 C -70.8 -637.4 -33.1 -645.5 6 -644 Z" fill="#fefefe" transform="matrix(1,0,0,1,1463,1020)"/>
<path d="M 6 -643 C 7 -643 7.9 -643 8.9 -643 C 9.7 -643 10.4 -642.9 11.1 -642.9 C 10.8 -642.4 10.4 -642 10 -641.5 C 8.4 -639.3 6.8 -637.1 5.1 -634.9 C 4.6 -634.3 4.2 -633.7 3.7 -633 C -21.2 -599.8 -33.2 -561.9 -28.2 -520.4 C -23.9 -491.7 -10 -465.6 10.1 -444.9 C 10.9 -444.1 11.7 -443.2 12.6 -442.3 C 37.5 -416.1 74.6 -403.1 110.1 -400.9 C 110.9 -400.9 111.6 -400.8 112.3 -400.8 C 126.8 -399.9 140.7 -402.6 154.8 -405.3 C 159.6 -406.2 164.3 -407.1 169.1 -407.9 C 165.3 -400.1 160.2 -393.9 154.5 -387.5 C 153.3 -386.1 152.1 -384.7 150.9 -383.4 C 138.4 -368.8 122.2 -357.6 105.1 -348.9 C 104.4 -348.6 103.8 -348.2 103.1 -347.9 C 76.5 -334.4 47.1 -327.3 17.3 -327.6 C 16.5 -327.6 15.7 -327.6 14.8 -327.6 C 2.1 -327.7 -10.4 -328.2 -22.9 -330.9 C -23.7 -331.1 -24.4 -331.3 -25.3 -331.4 C -49.1 -336.6 -71.2 -347.3 -89.9 -362.9 C -90.8 -363.7 -91.8 -364.5 -92.7 -365.3 C -118 -387.1 -136.2 -421.8 -139.1 -455.1 C -139.3 -460.2 -139.4 -465.4 -139.3 -470.6 C -139.3 -471.3 -139.3 -472.1 -139.3 -472.9 C -139.2 -485.9 -138.2 -498.3 -134.9 -510.9 C -134.7 -511.8 -134.5 -512.6 -134.2 -513.4 C -122.1 -560.5 -92.5 -600.6 -51 -625.6 C -34.6 -635.1 -13.1 -643.2 6 -643 Z" fill="#060808" transform="matrix(1,0,0,1,1440.9,1066.9)"/>
<path d="M 6 -643 C 6.7 -642.7 7.3 -642.3 8 -642 C 8.8 -639.3 9.5 -636.7 10.1 -633.9 C 10.3 -633.2 10.5 -632.4 10.7 -631.6 C 11.1 -629.8 11.6 -627.9 12 -626 C 13.7 -625.7 13.7 -625.7 15.4 -625.4 C 16.9 -625.2 18.4 -624.9 19.9 -624.6 C 21 -624.4 21 -624.4 22.1 -624.2 C 27.8 -623.2 27.8 -623.2 30 -621 C 27.6 -620.2 25.1 -619.3 22.7 -618.5 C 22 -618.3 21.3 -618 20.6 -617.8 C 17.6 -616.8 15.2 -616 12 -616 C 12 -615.3 11.9 -614.6 11.9 -613.8 C 11.4 -608.3 10.8 -603.3 9 -598 C 6.1 -600.9 5.8 -604.3 4.9 -608.1 C 4.6 -609.3 4.6 -609.3 4.3 -610.4 C 3.9 -612.3 3.4 -614.1 3 -616 C 2.1 -616.1 2.1 -616.1 1.1 -616.1 C -4.5 -616.6 -9.6 -617.5 -15 -619 C -14 -621 -14 -621 -10.9 -622.1 C -9.7 -622.4 -8.4 -622.8 -7.1 -623.1 C -5.9 -623.5 -4.6 -623.8 -3.3 -624.2 C 0 -625 0 -625 3 -625 C 3 -625.7 3.1 -626.4 3.1 -627.2 C 3.6 -632.7 4.2 -637.7 6 -643 Z" fill="#131616" transform="matrix(1,0,0,1,1544,1208)"/>
<path d="M 6 -643 C 6.7 -643 7.3 -643 8 -643 C 8 -636.7 8 -630.5 8 -624 C 11 -623 13.9 -622 17 -621 C 19.7 -619.8 22.3 -618.4 25 -617 C 25 -616.7 25 -616.3 25 -616 C 18.6 -615 12.4 -614.9 6 -615 C 5.7 -613.9 5.7 -613.9 5.3 -612.7 C 3.5 -607.6 1.3 -602.8 -1 -598 C -1.3 -598 -1.7 -598 -2 -598 C -3 -604.4 -3.1 -610.6 -3 -617 C -4.1 -617.3 -4.1 -617.3 -5.3 -617.7 C -10.4 -619.5 -15.2 -621.7 -20 -624 C -20 -624.7 -20 -625.3 -20 -626 C -13.7 -626 -7.5 -626 -1 -626 C -0.3 -628 0.3 -630 1 -632 C 1.8 -634 2.7 -635.9 3.6 -637.9 C 4.1 -638.8 4.5 -639.8 5 -640.8 C 5.3 -641.5 5.7 -642.3 6 -643 Z" fill="#121415" transform="matrix(1,0,0,1,1463,1167)"/>
<path d="M 11 -623 C 11.7 -623 12.3 -623 13 -623 C 13 -616.7 13 -610.5 13 -604 C 16 -603 18.9 -602 22 -601 C 24.7 -599.8 27.3 -598.4 30 -597 C 30 -596.7 30 -596.3 30 -596 C 23.6 -595 17.4 -594.9 11 -595 C 10.7 -593.9 10.7 -593.9 10.3 -592.7 C 8.5 -587.6 6.3 -582.8 4 -578 C 3.7 -578 3.3 -578 3 -578 C 2 -584.4 1.9 -590.6 2 -597 C 0.9 -597.3 0.9 -597.3 -0.3 -597.7 C -5.4 -599.5 -10.2 -601.7 -15 -604 C -15 -604.7 -15 -605.3 -15 -606 C -8.7 -606 -2.5 -606 4 -606 C 4.7 -608 5.3 -610 6 -612 C 6.8 -614 7.7 -615.9 8.6 -617.9 C 9.1 -618.8 9.5 -619.8 10 -620.8 C 10.3 -621.5 10.7 -622.3 11 -623 Z" fill="#121415" transform="matrix(1,0,0,1,1530,1093)"/>
</svg>
