<?xml version="1.0" encoding="UTF-8"?>
<svg version="1.1" xmlns="http://www.w3.org/2000/svg" width="2200" height="1800">
<path d="M 0 0 C 3.8 0 7.6 0 11.5 0 C 18.2 0 24.8 0 31.5 0 C 41.5 0 51.4 0 61.3 0 C 79.1 0 96.9 0 114.6 0 C 130.2 0 145.7 0 161.2 0 C 162.3 0 163.3 0 164.4 0 C 168.6 0 172.7 0 176.9 0 C 216.2 0 255.5 0 294.8 0 C 329.7 0 364.5 0 399.4 0 C 438.6 0 477.9 0 517.1 0 C 521.3 0 525.4 0 529.6 0 C 531.2 0 531.2 0 532.7 0 C 548.3 0 563.8 0 579.3 0 C 597 0 614.6 0 632.3 0 C 642.2 0 652.1 0 661.9 0 C 668.5 0 675.1 0 681.8 0 C 685.5 0 689.3 0 693 0 C 713.2 0 733.1 0.3 752.9 4.4 C 754 4.7 755 4.9 756.1 5.1 C 791.5 12.7 825.1 29.6 852.4 53.3 C 853.2 54 854 54.6 854.9 55.4 C 891 87.2 915.2 128.4 926.2 175.3 C 926.5 176.6 926.5 176.6 926.8 177.8 C 930.8 195.8 930.8 214 930.8 232.3 C 930.8 235.2 930.8 238.1 930.8 241 C 931.2 274.4 927.7 308.2 913.1 338.7 C 911.9 341.2 910.8 343.8 909.6 346.3 C 896.1 376.4 874.4 403.9 848.4 424.3 C 847.4 425.1 846.4 425.9 845.4 426.7 C 827.9 440.6 808.3 451.5 787.4 459.3 C 786.7 459.5 786 459.8 785.3 460.1 C 783.3 460.9 781.4 461.6 779.4 462.3 C 778.3 462.6 777.3 463 776.1 463.4 C 756.2 470.1 734.8 473.6 713.7 473.5 C 711.8 473.5 711.8 473.5 709.8 473.5 C 706.2 473.5 702.6 473.5 699 473.5 C 695.1 473.5 691.2 473.5 687.3 473.5 C 680.5 473.5 673.7 473.5 666.8 473.5 C 656.7 473.5 646.5 473.5 636.3 473.5 C 617.1 473.6 597.9 473.6 578.7 473.6 C 563.9 473.6 549 473.6 534.2 473.6 C 532.1 473.6 529.9 473.6 527.8 473.6 C 524.6 473.6 521.4 473.6 518.1 473.6 C 488.3 473.6 458.4 473.6 428.5 473.6 C 426.8 473.6 426.8 473.6 425.1 473.6 C 419.4 473.6 413.7 473.6 408 473.6 C 406.8 473.6 405.7 473.6 404.5 473.6 C 402.2 473.6 399.9 473.6 397.6 473.6 C 362 473.6 326.3 473.6 290.7 473.6 C 250.6 473.6 210.5 473.6 170.4 473.6 C 166.2 473.6 161.9 473.6 157.6 473.6 C 156 473.6 156 473.6 154.4 473.6 C 138.5 473.6 122.7 473.6 106.8 473.6 C 88.7 473.6 70.7 473.6 52.6 473.6 C 42.5 473.6 32.4 473.6 22.3 473.6 C 15.5 473.7 8.8 473.7 2 473.6 C -1.8 473.6 -5.7 473.6 -9.5 473.6 C -73.6 473.8 -130.7 452.2 -176.9 407.2 C -181.8 402.2 -186.2 396.8 -190.6 391.3 C -191.4 390.3 -192.2 389.3 -193 388.2 C -206.9 370.8 -217.8 351.2 -225.6 330.3 C -225.9 329.5 -226.1 328.8 -226.4 328.1 C -227.2 326.2 -227.9 324.2 -228.6 322.3 C -229 321.2 -229.3 320.1 -229.7 319 C -236.6 298.4 -239.9 276.6 -239.8 255 C -239.8 253.6 -239.8 252.2 -239.8 250.7 C -239.8 247.8 -239.8 244.9 -239.8 241.9 C -239.8 238.2 -239.8 234.5 -239.8 230.8 C -239.9 211.4 -239.5 192.6 -234.9 173.6 C -234.7 172.5 -234.4 171.4 -234.2 170.3 C -230.1 153.8 -224.6 138 -216.6 123.1 C -215.6 121.2 -214.6 119.4 -213.7 117.5 C -204.1 98.7 -191 82.5 -176.6 67.3 C -176.1 66.8 -175.6 66.3 -175.1 65.7 C -146.7 35.8 -107 13.9 -66.5 5.7 C -64.6 5.3 -62.8 4.8 -60.9 4.4 C -40.8 0 -20.5 0 0 0 Z" fill="#45c9f6" transform="matrix(1,0,0,1,754.6,342.7)"/>
<path d="M 0 0 C 0.8 0.3 1.6 0.6 2.5 0.9 C 31.8 11.3 56.5 26.5 79 48 C 79.9 48.8 80.7 49.6 81.6 50.4 C 109.8 77.6 129.6 116.1 135.5 154.8 C 135.8 157.9 135.8 157.9 137 160 C 141.2 189.8 139.3 221.3 130 250 C 129.8 250.8 129.5 251.5 129.3 252.3 C 112.9 302.9 77.2 344.5 30.1 369.2 C 21.6 373.5 12.9 376.9 4 380 C 3.2 380.3 2.3 380.6 1.5 380.9 C -0.7 381.6 -2.8 382.3 -5 383 C -6 383.3 -7 383.6 -8 384 C -56.9 398.9 -111.4 391.2 -156.3 367.8 C -180 355 -201.3 337.1 -218 316 C -218.8 315 -219.6 314.1 -220.4 313.1 C -246.1 281.1 -260.3 239.7 -262 199 C -262 198.2 -262.1 197.5 -262.1 196.7 C -263 172.2 -259.7 145.6 -250 123 C -249.1 120.6 -248.3 118.2 -247.4 115.8 C -230 68.3 -189.9 29.1 -144.6 7.9 C -100.5 -11.9 -46 -16.3 0 0 Z" fill="#fefefe" transform="translate(825,389)"/>
<path d="M 0 0 C 1.1 0.5 1.1 0.5 2.2 0.9 C 27.7 12.2 46.1 31.6 57.3 56.9 C 62 69 63.5 81.1 63.4 94 C 63.4 95.3 63.4 96.5 63.4 97.8 C 63.3 125 51.2 148.4 32.6 167.5 C 13.1 186 -13.4 195.6 -40.1 195.2 C -65.3 194.4 -87.3 184.7 -106 168 C -106.7 167.4 -107.4 166.8 -108.1 166.1 C -126.3 149.1 -137.1 124 -138.4 99.2 C -139.2 71 -129.8 46 -111 25 C -110.2 24.1 -110.2 24.1 -109.3 23.1 C -97.7 10.8 -82.1 2 -66 -3 C -64.2 -3.6 -64.2 -3.6 -62.3 -4.2 C -42.6 -9 -18.6 -8 0 0 Z" fill="#ffb32b" transform="translate(800,486)"/>
<path d="M 0 0 C 0.7 0 1.4 0 2.1 0 C 4 0.5 4 0.5 5.6 2 C 7.6 5.5 7.5 8.9 7.5 12.8 C 7.5 13.6 7.5 14.4 7.5 15.2 C 7.5 16.9 7.5 18.6 7.5 20.3 C 7.5 22.9 7.5 25.5 7.6 28.1 C 7.6 29.8 7.6 31.4 7.6 33.1 C 7.6 34.2 7.6 34.2 7.6 35.4 C 7.6 39.4 7.2 41.3 4.7 44.5 C 2 46.5 2 46.5 -1.1 46.6 C -4.5 45.3 -5.3 44.7 -7 41.5 C -7.3 38.6 -7.4 36 -7.4 33.2 C -7.4 32.4 -7.4 31.5 -7.4 30.7 C -7.4 29 -7.4 27.3 -7.4 25.6 C -7.4 23 -7.4 20.4 -7.4 17.8 C -7.4 16.2 -7.4 14.5 -7.4 12.8 C -7.4 12.1 -7.4 11.3 -7.4 10.5 C -7.4 7.2 -7.2 4.9 -5.6 2 C -3.6 0.2 -2.7 0 0 0 Z" fill="#ffb736" transform="translate(763,417.5)"/>
<path d="M 0 0 C 1.3 0 1.3 0 2.6 0 C 4.4 0 6.2 0 8 0 C 10.7 0 13.5 0 16.2 -0.1 C 18 -0.1 19.7 -0.1 21.5 -0.1 C 22.3 -0.1 23.1 -0.1 24 -0.1 C 27.8 -0.1 29.7 0 32.9 2.2 C 34.3 4.4 34.3 4.4 34.4 8 C 33.3 11.4 33.3 11.4 31.3 13.1 C 27.6 14.8 24.3 14.8 20.3 14.8 C 19.6 14.8 18.8 14.8 18 14.8 C 16.4 14.8 14.8 14.8 13.2 14.8 C 10.8 14.7 8.3 14.7 5.9 14.8 C 4.3 14.8 2.7 14.7 1.2 14.7 C 0.1 14.7 0.1 14.7 -1 14.7 C -4.7 14.7 -7.6 14.6 -10.7 12.4 C -12.2 9.4 -11.9 6.8 -11.7 3.4 C -8.6 -0.6 -4.7 0 0 0 Z" fill="#ffb736" transform="translate(891.7,572.6)"/>
<path d="M 0 0 C 4.4 1.1 6.8 3.1 9.9 6.2 C 10.4 6.7 11 7.3 11.5 7.8 C 12.7 9 13.8 10.1 14.9 11.2 C 16.7 13 18.4 14.7 20.2 16.4 C 21.3 17.5 22.4 18.6 23.5 19.7 C 24 20.2 24.6 20.7 25.1 21.2 C 27.9 24.1 29.1 26.2 29.1 30.2 C 28.7 33.9 28.7 33.9 27.6 35.9 C 24.7 37.5 23 37.3 19.7 36.9 C 17.3 35.1 15.3 33.4 13.2 31.2 C 12.6 30.6 12.1 30.1 11.4 29.5 C 10.2 28.2 9 27 7.7 25.7 C 5.9 23.8 4 21.9 2 20.1 C 0.8 18.8 -0.4 17.6 -1.6 16.4 C -2.1 15.9 -2.7 15.3 -3.3 14.7 C -5.9 12 -7.2 10.4 -7.7 6.7 C -7.3 3.9 -7.3 3.9 -5.7 1.5 C -3.3 -0.1 -3.3 -0.1 0 0 Z" fill="#ffb532" transform="translate(653.3,463.1)"/>
<path d="M 0 0 C 2.8 0.4 2.8 0.4 5.2 2 C 6.8 4.4 6.8 4.4 6.7 7.7 C 5.6 12.1 3.6 14.5 0.5 17.6 C -0.1 18.1 -0.6 18.7 -1.1 19.2 C -2.3 20.4 -3.4 21.5 -4.6 22.6 C -6.3 24.4 -8 26.1 -9.7 27.9 C -10.8 29 -11.9 30.1 -13 31.2 C -13.5 31.7 -14 32.3 -14.5 32.8 C -17.4 35.6 -19.6 36.8 -23.5 36.9 C -27.2 36.4 -27.2 36.4 -29.3 34.8 C -30.6 31.5 -30.2 29.8 -29.2 26.4 C -27.4 24.1 -25.7 22.2 -23.7 20.2 C -22.8 19.3 -22.8 19.3 -22 18.4 C -20.8 17.2 -19.6 16.1 -18.4 14.9 C -16.6 13.1 -14.8 11.2 -13 9.4 C -11.8 8.2 -10.6 7.1 -9.5 5.9 C -8.9 5.4 -8.4 4.8 -7.9 4.3 C -5.2 1.7 -3.7 0.5 0 0 Z" fill="#ffb430" transform="translate(873.2,462.6)"/>
<path d="M 0 0 C 0.9 0 1.8 0 2.7 0 C 4.5 0 6.4 0 8.2 0 C 11.1 0 13.9 0 16.7 -0.1 C 18.5 -0.1 20.3 -0.1 22.1 -0.1 C 23.4 -0.1 23.4 -0.1 24.7 -0.1 C 30.6 0 30.6 0 33.1 2.3 C 34.3 5 34.7 6.5 34.1 9.4 C 31.3 12.4 29.1 13.7 25.1 13.9 C 23.5 14 21.9 14 20.4 13.9 C 19.5 13.9 18.7 13.9 17.9 13.9 C 16.1 13.9 14.4 13.9 12.6 13.9 C 9.9 13.9 7.3 13.9 4.6 13.9 C 2.9 13.9 1.2 13.9 -0.5 13.9 C -1.3 13.9 -2.1 13.9 -2.9 13.9 C -8.4 13.8 -8.4 13.8 -10.9 12.1 C -12.6 9.2 -12.3 6.7 -11.9 3.4 C -8.8 -0.7 -4.8 0 0 0 Z" fill="#ffb32d" transform="translate(612.9,573.6)"/>
<path d="M 0 0 C 1.7 1 1.7 1 3 3 C 3.3 5.9 3.4 8.5 3.4 11.4 C 3.4 12.3 3.4 13.1 3.4 13.9 C 3.5 15.7 3.5 17.4 3.4 19.2 C 3.4 21.9 3.5 24.5 3.5 27.2 C 3.5 28.9 3.5 30.6 3.5 32.3 C 3.5 33.5 3.5 33.5 3.5 34.7 C 3.5 38.7 3.3 40.6 1.1 44 C -1 46 -1 46 -3.5 46.6 C -6.9 45.8 -7.9 44.8 -10 42 C -10.6 39.1 -10.5 36.2 -10.5 33.2 C -10.5 32.3 -10.5 31.5 -10.5 30.6 C -10.5 28.8 -10.5 27 -10.5 25.2 C -10.4 22.4 -10.4 19.7 -10.5 16.9 C -10.5 15.2 -10.4 13.4 -10.4 11.7 C -10.4 10.9 -10.4 10 -10.4 9.2 C -10.3 3.5 -10.3 3.5 -8.7 1.3 C -5.9 -0.8 -3.4 -0.4 0 0 Z" fill="#ffb32c" transform="translate(767,697)"/>
<path d="M 0 0 C 2.3 1.8 4.3 3.6 6.4 5.7 C 7 6.3 7.6 6.9 8.2 7.5 C 9.4 8.7 10.7 10 11.9 11.2 C 13.8 13.1 15.7 15 17.6 16.9 C 18.9 18.1 20.1 19.3 21.3 20.5 C 21.8 21.1 22.4 21.6 23 22.2 C 25.6 24.9 26.9 26.5 27.5 30.3 C 27 33 27 33 25.3 35.4 C 22.4 37.4 21.5 37.6 18 37 C 15.7 35.2 13.7 33.4 11.6 31.3 C 11 30.8 10.4 30.2 9.8 29.6 C 8.6 28.3 7.3 27.1 6.1 25.8 C 4.2 23.9 2.3 22.1 0.4 20.2 C -0.9 19 -2.1 17.8 -3.3 16.6 C -4.1 15.8 -4.1 15.8 -5 14.9 C -8 11.9 -8.9 10.6 -9.5 6.2 C -9 3 -9 3 -7.3 1.1 C -4.4 -0.3 -3.1 -0.5 0 0 Z" fill="#ffb32d" transform="translate(853,660)"/>
<path d="M 0 0 C 1.9 1.1 1.9 1.1 3 3 C 3.4 5.7 3.4 5.7 3 9 C 1.2 11.4 -0.5 13.4 -2.7 15.5 C -3.3 16.1 -3.9 16.7 -4.5 17.3 C -5.7 18.5 -7 19.8 -8.2 21 C -10.1 22.9 -12 24.8 -13.9 26.7 C -15.1 27.9 -16.3 29.1 -17.5 30.3 C -18.1 30.9 -18.6 31.4 -19.2 32 C -21.9 34.6 -23.5 35.9 -27.3 36.4 C -30 36 -30 36 -31.9 34.9 C -33.7 31.8 -33.4 29.5 -33 26 C -31.2 23.5 -29.7 21.7 -27.6 19.6 C -27 19.1 -26.4 18.5 -25.9 17.9 C -24.7 16.7 -23.5 15.5 -22.3 14.4 C -20.4 12.6 -18.6 10.7 -16.9 8.9 C -15.7 7.7 -14.5 6.6 -13.4 5.4 C -12.8 4.9 -12.3 4.3 -11.8 3.8 C -7.9 0.1 -5.3 -0.7 0 0 Z" fill="#ffb32c" transform="translate(680,661)"/>
</svg>
