<?xml version="1.0" encoding="UTF-8"?>
<svg xmlns="http://www.w3.org/2000/svg" xmlns:xlink="http://www.w3.org/1999/xlink" width="3840" height="2160" viewBox="0 0 3840 2160">
<defs>
<clipPath id="clip-0">
<path clip-rule="nonzero" d="M 0.0195312 0 L 0.0195312 2160 L 3839.640625 2159.914062 L 3839.640625 0.0898438 Z M 0.0195312 0 "/>
</clipPath>
<clipPath id="clip-1">
<path clip-rule="nonzero" d="M 0.0195312 0 L 0.0195312 2160 L 3839.640625 2159.914062 L 3839.640625 0.0898438 Z M 0.0195312 0 "/>
</clipPath>
<radialGradient id="radial-pattern-0" gradientUnits="userSpaceOnUse" cx="-1296.5475" cy="-378.4875" fx="-1296.5475" fy="-378.4875" r="3377.55" gradientTransform="matrix(1, 0, 0, 1, 1760.87, 543.16)">
<stop offset="0" stop-color="rgb(29.295349%, 47.299194%, 64.532471%)" stop-opacity="1"/>
<stop offset="0.0078125" stop-color="rgb(29.122925%, 47.07489%, 64.276123%)" stop-opacity="1"/>
<stop offset="0.0117188" stop-color="rgb(29.008484%, 46.923828%, 64.103699%)" stop-opacity="1"/>
<stop offset="0.015625" stop-color="rgb(28.894043%, 46.774292%, 63.9328%)" stop-opacity="1"/>
<stop offset="0.0195312" stop-color="rgb(28.778076%, 46.624756%, 63.761902%)" stop-opacity="1"/>
<stop offset="0.0234375" stop-color="rgb(28.663635%, 46.473694%, 63.589478%)" stop-opacity="1"/>
<stop offset="0.0273438" stop-color="rgb(28.549194%, 46.324158%, 63.418579%)" stop-opacity="1"/>
<stop offset="0.03125" stop-color="rgb(28.433228%, 46.174622%, 63.246155%)" stop-opacity="1"/>
<stop offset="0.0351562" stop-color="rgb(28.318787%, 46.02356%, 63.075256%)" stop-opacity="1"/>
<stop offset="0.0390625" stop-color="rgb(28.204346%, 45.874023%, 62.902832%)" stop-opacity="1"/>
<stop offset="0.0429688" stop-color="rgb(28.089905%, 45.722961%, 62.731934%)" stop-opacity="1"/>
<stop offset="0.046875" stop-color="rgb(27.973938%, 45.573425%, 62.559509%)" stop-opacity="1"/>
<stop offset="0.0507812" stop-color="rgb(27.859497%, 45.423889%, 62.388611%)" stop-opacity="1"/>
<stop offset="0.0546875" stop-color="rgb(27.745056%, 45.272827%, 62.217712%)" stop-opacity="1"/>
<stop offset="0.0585938" stop-color="rgb(27.629089%, 45.123291%, 62.045288%)" stop-opacity="1"/>
<stop offset="0.0625" stop-color="rgb(27.514648%, 44.972229%, 61.87439%)" stop-opacity="1"/>
<stop offset="0.0664062" stop-color="rgb(27.400208%, 44.822693%, 61.701965%)" stop-opacity="1"/>
<stop offset="0.0703125" stop-color="rgb(27.285767%, 44.673157%, 61.531067%)" stop-opacity="1"/>
<stop offset="0.0742188" stop-color="rgb(27.1698%, 44.522095%, 61.358643%)" stop-opacity="1"/>
<stop offset="0.078125" stop-color="rgb(27.055359%, 44.372559%, 61.187744%)" stop-opacity="1"/>
<stop offset="0.0820312" stop-color="rgb(26.940918%, 44.223022%, 61.01532%)" stop-opacity="1"/>
<stop offset="0.0859375" stop-color="rgb(26.824951%, 44.07196%, 60.844421%)" stop-opacity="1"/>
<stop offset="0.0898438" stop-color="rgb(26.71051%, 43.922424%, 60.673523%)" stop-opacity="1"/>
<stop offset="0.09375" stop-color="rgb(26.596069%, 43.771362%, 60.501099%)" stop-opacity="1"/>
<stop offset="0.0976562" stop-color="rgb(26.480103%, 43.621826%, 60.3302%)" stop-opacity="1"/>
<stop offset="0.101562" stop-color="rgb(26.365662%, 43.47229%, 60.157776%)" stop-opacity="1"/>
<stop offset="0.105469" stop-color="rgb(26.251221%, 43.321228%, 59.986877%)" stop-opacity="1"/>
<stop offset="0.109375" stop-color="rgb(26.13678%, 43.171692%, 59.814453%)" stop-opacity="1"/>
<stop offset="0.113281" stop-color="rgb(26.020813%, 43.02063%, 59.643555%)" stop-opacity="1"/>
<stop offset="0.117188" stop-color="rgb(25.906372%, 42.871094%, 59.472656%)" stop-opacity="1"/>
<stop offset="0.121094" stop-color="rgb(25.791931%, 42.721558%, 59.300232%)" stop-opacity="1"/>
<stop offset="0.125" stop-color="rgb(25.675964%, 42.570496%, 59.129333%)" stop-opacity="1"/>
<stop offset="0.128906" stop-color="rgb(25.561523%, 42.420959%, 58.956909%)" stop-opacity="1"/>
<stop offset="0.132812" stop-color="rgb(25.447083%, 42.271423%, 58.786011%)" stop-opacity="1"/>
<stop offset="0.136719" stop-color="rgb(25.332642%, 42.120361%, 58.613586%)" stop-opacity="1"/>
<stop offset="0.140625" stop-color="rgb(25.216675%, 41.970825%, 58.442688%)" stop-opacity="1"/>
<stop offset="0.144531" stop-color="rgb(25.102234%, 41.819763%, 58.270264%)" stop-opacity="1"/>
<stop offset="0.148438" stop-color="rgb(24.987793%, 41.670227%, 58.099365%)" stop-opacity="1"/>
<stop offset="0.152344" stop-color="rgb(24.871826%, 41.520691%, 57.928467%)" stop-opacity="1"/>
<stop offset="0.15625" stop-color="rgb(24.757385%, 41.369629%, 57.756042%)" stop-opacity="1"/>
<stop offset="0.160156" stop-color="rgb(24.642944%, 41.220093%, 57.585144%)" stop-opacity="1"/>
<stop offset="0.164062" stop-color="rgb(24.526978%, 41.069031%, 57.41272%)" stop-opacity="1"/>
<stop offset="0.167969" stop-color="rgb(24.412537%, 40.919495%, 57.241821%)" stop-opacity="1"/>
<stop offset="0.171875" stop-color="rgb(24.298096%, 40.769958%, 57.069397%)" stop-opacity="1"/>
<stop offset="0.175781" stop-color="rgb(24.183655%, 40.618896%, 56.898499%)" stop-opacity="1"/>
<stop offset="0.179688" stop-color="rgb(24.067688%, 40.46936%, 56.7276%)" stop-opacity="1"/>
<stop offset="0.183594" stop-color="rgb(23.953247%, 40.319824%, 56.555176%)" stop-opacity="1"/>
<stop offset="0.1875" stop-color="rgb(23.838806%, 40.168762%, 56.384277%)" stop-opacity="1"/>
<stop offset="0.191406" stop-color="rgb(23.722839%, 40.019226%, 56.211853%)" stop-opacity="1"/>
<stop offset="0.195312" stop-color="rgb(23.608398%, 39.868164%, 56.040955%)" stop-opacity="1"/>
<stop offset="0.199219" stop-color="rgb(23.493958%, 39.718628%, 55.86853%)" stop-opacity="1"/>
<stop offset="0.203125" stop-color="rgb(23.379517%, 39.569092%, 55.697632%)" stop-opacity="1"/>
<stop offset="0.207031" stop-color="rgb(23.26355%, 39.41803%, 55.525208%)" stop-opacity="1"/>
<stop offset="0.210938" stop-color="rgb(23.149109%, 39.268494%, 55.354309%)" stop-opacity="1"/>
<stop offset="0.214844" stop-color="rgb(23.034668%, 39.117432%, 55.183411%)" stop-opacity="1"/>
<stop offset="0.21875" stop-color="rgb(22.918701%, 38.967896%, 55.010986%)" stop-opacity="1"/>
<stop offset="0.222656" stop-color="rgb(22.80426%, 38.818359%, 54.840088%)" stop-opacity="1"/>
<stop offset="0.226562" stop-color="rgb(22.689819%, 38.667297%, 54.667664%)" stop-opacity="1"/>
<stop offset="0.230469" stop-color="rgb(22.573853%, 38.517761%, 54.496765%)" stop-opacity="1"/>
<stop offset="0.234375" stop-color="rgb(22.459412%, 38.368225%, 54.324341%)" stop-opacity="1"/>
<stop offset="0.238281" stop-color="rgb(22.344971%, 38.217163%, 54.153442%)" stop-opacity="1"/>
<stop offset="0.242188" stop-color="rgb(22.23053%, 38.067627%, 53.981018%)" stop-opacity="1"/>
<stop offset="0.246094" stop-color="rgb(22.114563%, 37.916565%, 53.81012%)" stop-opacity="1"/>
<stop offset="0.25" stop-color="rgb(22.000122%, 37.767029%, 53.639221%)" stop-opacity="1"/>
<stop offset="0.253906" stop-color="rgb(21.827698%, 37.541199%, 53.381348%)" stop-opacity="1"/>
<stop offset="0.261719" stop-color="rgb(21.598816%, 37.240601%, 53.038025%)" stop-opacity="1"/>
<stop offset="0.269531" stop-color="rgb(21.368408%, 36.941528%, 52.694702%)" stop-opacity="1"/>
<stop offset="0.277344" stop-color="rgb(21.138%, 36.64093%, 52.351379%)" stop-opacity="1"/>
<stop offset="0.285156" stop-color="rgb(20.909119%, 36.340332%, 52.008057%)" stop-opacity="1"/>
<stop offset="0.292969" stop-color="rgb(20.678711%, 36.039734%, 51.664734%)" stop-opacity="1"/>
<stop offset="0.300781" stop-color="rgb(20.449829%, 35.740662%, 51.321411%)" stop-opacity="1"/>
<stop offset="0.308594" stop-color="rgb(20.219421%, 35.440063%, 50.979614%)" stop-opacity="1"/>
<stop offset="0.316406" stop-color="rgb(19.989014%, 35.139465%, 50.636292%)" stop-opacity="1"/>
<stop offset="0.324219" stop-color="rgb(19.760132%, 34.838867%, 50.292969%)" stop-opacity="1"/>
<stop offset="0.332031" stop-color="rgb(19.529724%, 34.539795%, 49.949646%)" stop-opacity="1"/>
<stop offset="0.339844" stop-color="rgb(19.300842%, 34.239197%, 49.606323%)" stop-opacity="1"/>
<stop offset="0.347656" stop-color="rgb(19.070435%, 33.938599%, 49.263%)" stop-opacity="1"/>
<stop offset="0.355469" stop-color="rgb(18.840027%, 33.638%, 48.919678%)" stop-opacity="1"/>
<stop offset="0.363281" stop-color="rgb(18.611145%, 33.337402%, 48.576355%)" stop-opacity="1"/>
<stop offset="0.371094" stop-color="rgb(18.380737%, 33.03833%, 48.234558%)" stop-opacity="1"/>
<stop offset="0.378906" stop-color="rgb(18.151855%, 32.737732%, 47.891235%)" stop-opacity="1"/>
<stop offset="0.386719" stop-color="rgb(17.921448%, 32.437134%, 47.547913%)" stop-opacity="1"/>
<stop offset="0.394531" stop-color="rgb(17.692566%, 32.136536%, 47.20459%)" stop-opacity="1"/>
<stop offset="0.402344" stop-color="rgb(17.462158%, 31.837463%, 46.861267%)" stop-opacity="1"/>
<stop offset="0.410156" stop-color="rgb(17.23175%, 31.536865%, 46.517944%)" stop-opacity="1"/>
<stop offset="0.417969" stop-color="rgb(17.002869%, 31.236267%, 46.174622%)" stop-opacity="1"/>
<stop offset="0.425781" stop-color="rgb(16.772461%, 30.935669%, 45.831299%)" stop-opacity="1"/>
<stop offset="0.433594" stop-color="rgb(16.543579%, 30.636597%, 45.489502%)" stop-opacity="1"/>
<stop offset="0.441406" stop-color="rgb(16.313171%, 30.335999%, 45.146179%)" stop-opacity="1"/>
<stop offset="0.449219" stop-color="rgb(16.082764%, 30.0354%, 44.802856%)" stop-opacity="1"/>
<stop offset="0.457031" stop-color="rgb(15.853882%, 29.734802%, 44.459534%)" stop-opacity="1"/>
<stop offset="0.464844" stop-color="rgb(15.623474%, 29.434204%, 44.116211%)" stop-opacity="1"/>
<stop offset="0.472656" stop-color="rgb(15.394592%, 29.135132%, 43.772888%)" stop-opacity="1"/>
<stop offset="0.480469" stop-color="rgb(15.164185%, 28.834534%, 43.429565%)" stop-opacity="1"/>
<stop offset="0.488281" stop-color="rgb(14.933777%, 28.533936%, 43.086243%)" stop-opacity="1"/>
<stop offset="0.496094" stop-color="rgb(14.704895%, 28.233337%, 42.74292%)" stop-opacity="1"/>
<stop offset="0.503906" stop-color="rgb(14.532471%, 28.009033%, 42.486572%)" stop-opacity="1"/>
<stop offset="0.507812" stop-color="rgb(14.41803%, 27.859497%, 42.315674%)" stop-opacity="1"/>
<stop offset="0.511719" stop-color="rgb(14.302063%, 27.708435%, 42.14325%)" stop-opacity="1"/>
<stop offset="0.515625" stop-color="rgb(14.187622%, 27.558899%, 41.972351%)" stop-opacity="1"/>
<stop offset="0.519531" stop-color="rgb(14.073181%, 27.407837%, 41.799927%)" stop-opacity="1"/>
<stop offset="0.523438" stop-color="rgb(13.957214%, 27.258301%, 41.629028%)" stop-opacity="1"/>
<stop offset="0.527344" stop-color="rgb(13.842773%, 27.108765%, 41.456604%)" stop-opacity="1"/>
<stop offset="0.53125" stop-color="rgb(13.728333%, 26.957703%, 41.285706%)" stop-opacity="1"/>
<stop offset="0.535156" stop-color="rgb(13.613892%, 26.808167%, 41.114807%)" stop-opacity="1"/>
<stop offset="0.539062" stop-color="rgb(13.497925%, 26.65863%, 40.942383%)" stop-opacity="1"/>
<stop offset="0.542969" stop-color="rgb(13.383484%, 26.507568%, 40.771484%)" stop-opacity="1"/>
<stop offset="0.546875" stop-color="rgb(13.269043%, 26.358032%, 40.59906%)" stop-opacity="1"/>
<stop offset="0.550781" stop-color="rgb(13.153076%, 26.20697%, 40.428162%)" stop-opacity="1"/>
<stop offset="0.554688" stop-color="rgb(13.038635%, 26.057434%, 40.255737%)" stop-opacity="1"/>
<stop offset="0.558594" stop-color="rgb(12.924194%, 25.907898%, 40.084839%)" stop-opacity="1"/>
<stop offset="0.5625" stop-color="rgb(12.808228%, 25.756836%, 39.912415%)" stop-opacity="1"/>
<stop offset="0.566406" stop-color="rgb(12.693787%, 25.6073%, 39.741516%)" stop-opacity="1"/>
<stop offset="0.570312" stop-color="rgb(12.579346%, 25.456238%, 39.570618%)" stop-opacity="1"/>
<stop offset="0.574219" stop-color="rgb(12.464905%, 25.306702%, 39.398193%)" stop-opacity="1"/>
<stop offset="0.578125" stop-color="rgb(12.348938%, 25.157166%, 39.227295%)" stop-opacity="1"/>
<stop offset="0.582031" stop-color="rgb(12.234497%, 25.006104%, 39.054871%)" stop-opacity="1"/>
<stop offset="0.585938" stop-color="rgb(12.120056%, 24.856567%, 38.883972%)" stop-opacity="1"/>
<stop offset="0.589844" stop-color="rgb(12.004089%, 24.707031%, 38.711548%)" stop-opacity="1"/>
<stop offset="0.59375" stop-color="rgb(11.889648%, 24.555969%, 38.540649%)" stop-opacity="1"/>
<stop offset="0.597656" stop-color="rgb(11.775208%, 24.406433%, 38.369751%)" stop-opacity="1"/>
<stop offset="0.601562" stop-color="rgb(11.660767%, 24.255371%, 38.197327%)" stop-opacity="1"/>
<stop offset="0.605469" stop-color="rgb(11.5448%, 24.105835%, 38.026428%)" stop-opacity="1"/>
<stop offset="0.609375" stop-color="rgb(11.430359%, 23.956299%, 37.854004%)" stop-opacity="1"/>
<stop offset="0.613281" stop-color="rgb(11.315918%, 23.805237%, 37.683105%)" stop-opacity="1"/>
<stop offset="0.617188" stop-color="rgb(11.199951%, 23.655701%, 37.510681%)" stop-opacity="1"/>
<stop offset="0.621094" stop-color="rgb(11.08551%, 23.504639%, 37.339783%)" stop-opacity="1"/>
<stop offset="0.625" stop-color="rgb(10.971069%, 23.355103%, 37.167358%)" stop-opacity="1"/>
<stop offset="0.628906" stop-color="rgb(10.798645%, 23.129272%, 36.911011%)" stop-opacity="1"/>
<stop offset="0.636719" stop-color="rgb(10.568237%, 22.8302%, 36.567688%)" stop-opacity="1"/>
<stop offset="0.644531" stop-color="rgb(10.339355%, 22.529602%, 36.224365%)" stop-opacity="1"/>
<stop offset="0.652344" stop-color="rgb(10.108948%, 22.229004%, 35.881042%)" stop-opacity="1"/>
<stop offset="0.660156" stop-color="rgb(9.880066%, 21.928406%, 35.53772%)" stop-opacity="1"/>
<stop offset="0.667969" stop-color="rgb(9.649658%, 21.627808%, 35.194397%)" stop-opacity="1"/>
<stop offset="0.675781" stop-color="rgb(9.41925%, 21.328735%, 34.851074%)" stop-opacity="1"/>
<stop offset="0.683594" stop-color="rgb(9.190369%, 21.028137%, 34.507751%)" stop-opacity="1"/>
<stop offset="0.691406" stop-color="rgb(8.959961%, 20.727539%, 34.165955%)" stop-opacity="1"/>
<stop offset="0.699219" stop-color="rgb(8.731079%, 20.426941%, 33.822632%)" stop-opacity="1"/>
<stop offset="0.707031" stop-color="rgb(8.500671%, 20.127869%, 33.479309%)" stop-opacity="1"/>
<stop offset="0.714844" stop-color="rgb(8.270264%, 19.827271%, 33.135986%)" stop-opacity="1"/>
<stop offset="0.722656" stop-color="rgb(8.041382%, 19.526672%, 32.792664%)" stop-opacity="1"/>
<stop offset="0.730469" stop-color="rgb(7.810974%, 19.226074%, 32.449341%)" stop-opacity="1"/>
<stop offset="0.738281" stop-color="rgb(7.582092%, 18.927002%, 32.106018%)" stop-opacity="1"/>
<stop offset="0.746094" stop-color="rgb(7.351685%, 18.626404%, 31.762695%)" stop-opacity="1"/>
<stop offset="0.753906" stop-color="rgb(7.17926%, 18.400574%, 31.506348%)" stop-opacity="1"/>
<stop offset="0.757812" stop-color="rgb(7.064819%, 18.251038%, 31.333923%)" stop-opacity="1"/>
<stop offset="0.761719" stop-color="rgb(6.948853%, 18.101501%, 31.163025%)" stop-opacity="1"/>
<stop offset="0.765625" stop-color="rgb(6.834412%, 17.950439%, 30.992126%)" stop-opacity="1"/>
<stop offset="0.769531" stop-color="rgb(6.719971%, 17.800903%, 30.819702%)" stop-opacity="1"/>
<stop offset="0.773438" stop-color="rgb(6.60553%, 17.651367%, 30.648804%)" stop-opacity="1"/>
<stop offset="0.777344" stop-color="rgb(6.489563%, 17.500305%, 30.476379%)" stop-opacity="1"/>
<stop offset="0.78125" stop-color="rgb(6.375122%, 17.350769%, 30.305481%)" stop-opacity="1"/>
<stop offset="0.785156" stop-color="rgb(6.260681%, 17.199707%, 30.133057%)" stop-opacity="1"/>
<stop offset="0.789062" stop-color="rgb(6.144714%, 17.050171%, 29.962158%)" stop-opacity="1"/>
<stop offset="0.792969" stop-color="rgb(6.030273%, 16.900635%, 29.79126%)" stop-opacity="1"/>
<stop offset="0.796875" stop-color="rgb(5.915833%, 16.749573%, 29.618835%)" stop-opacity="1"/>
<stop offset="0.800781" stop-color="rgb(5.801392%, 16.600037%, 29.447937%)" stop-opacity="1"/>
<stop offset="0.804688" stop-color="rgb(5.685425%, 16.448975%, 29.275513%)" stop-opacity="1"/>
<stop offset="0.808594" stop-color="rgb(5.570984%, 16.299438%, 29.104614%)" stop-opacity="1"/>
<stop offset="0.8125" stop-color="rgb(5.456543%, 16.149902%, 28.93219%)" stop-opacity="1"/>
<stop offset="0.816406" stop-color="rgb(5.284119%, 15.924072%, 28.674316%)" stop-opacity="1"/>
<stop offset="0.824219" stop-color="rgb(5.053711%, 15.623474%, 28.33252%)" stop-opacity="1"/>
<stop offset="0.832031" stop-color="rgb(4.824829%, 15.322876%, 27.989197%)" stop-opacity="1"/>
<stop offset="0.839844" stop-color="rgb(4.594421%, 15.023804%, 27.645874%)" stop-opacity="1"/>
<stop offset="0.847656" stop-color="rgb(4.364014%, 14.723206%, 27.302551%)" stop-opacity="1"/>
<stop offset="0.855469" stop-color="rgb(4.135132%, 14.422607%, 26.959229%)" stop-opacity="1"/>
<stop offset="0.863281" stop-color="rgb(3.904724%, 14.122009%, 26.615906%)" stop-opacity="1"/>
<stop offset="0.871094" stop-color="rgb(3.675842%, 13.822937%, 26.272583%)" stop-opacity="1"/>
<stop offset="0.878906" stop-color="rgb(3.503418%, 13.597107%, 26.016235%)" stop-opacity="1"/>
<stop offset="0.882812" stop-color="rgb(3.387451%, 13.447571%, 25.843811%)" stop-opacity="1"/>
<stop offset="0.886719" stop-color="rgb(3.27301%, 13.296509%, 25.672913%)" stop-opacity="1"/>
<stop offset="0.890625" stop-color="rgb(3.158569%, 13.146973%, 25.502014%)" stop-opacity="1"/>
<stop offset="0.894531" stop-color="rgb(3.042603%, 12.997437%, 25.32959%)" stop-opacity="1"/>
<stop offset="0.898438" stop-color="rgb(2.928162%, 12.846375%, 25.158691%)" stop-opacity="1"/>
<stop offset="0.902344" stop-color="rgb(2.813721%, 12.696838%, 24.986267%)" stop-opacity="1"/>
<stop offset="0.90625" stop-color="rgb(2.69928%, 12.545776%, 24.815369%)" stop-opacity="1"/>
<stop offset="0.910156" stop-color="rgb(2.526855%, 12.321472%, 24.557495%)" stop-opacity="1"/>
<stop offset="0.917969" stop-color="rgb(2.296448%, 12.020874%, 24.214172%)" stop-opacity="1"/>
<stop offset="0.925781" stop-color="rgb(2.067566%, 11.720276%, 23.87085%)" stop-opacity="1"/>
<stop offset="0.933594" stop-color="rgb(1.837158%, 11.419678%, 23.527527%)" stop-opacity="1"/>
<stop offset="0.941406" stop-color="rgb(1.664734%, 11.195374%, 23.271179%)" stop-opacity="1"/>
<stop offset="0.945312" stop-color="rgb(1.550293%, 11.045837%, 23.098755%)" stop-opacity="1"/>
<stop offset="0.949219" stop-color="rgb(1.434326%, 10.894775%, 22.927856%)" stop-opacity="1"/>
<stop offset="0.953125" stop-color="rgb(1.319885%, 10.745239%, 22.756958%)" stop-opacity="1"/>
<stop offset="0.957031" stop-color="rgb(1.147461%, 10.519409%, 22.499084%)" stop-opacity="1"/>
<stop offset="0.964844" stop-color="rgb(0.918579%, 10.218811%, 22.155762%)" stop-opacity="1"/>
<stop offset="0.972656" stop-color="rgb(0.746155%, 9.994507%, 21.897888%)" stop-opacity="1"/>
<stop offset="0.976562" stop-color="rgb(0.630188%, 9.844971%, 21.72699%)" stop-opacity="1"/>
<stop offset="0.980469" stop-color="rgb(0.457764%, 9.619141%, 21.469116%)" stop-opacity="1"/>
<stop offset="0.988281" stop-color="rgb(0.285339%, 9.393311%, 21.212769%)" stop-opacity="1"/>
<stop offset="0.992188" stop-color="rgb(0.114441%, 9.169006%, 20.954895%)" stop-opacity="1"/>
<stop offset="1" stop-color="rgb(0%, 9.01947%, 20.783997%)" stop-opacity="1"/>
</radialGradient>
<clipPath id="clip-2">
<path clip-rule="nonzero" d="M 272 222 L 792 222 L 792 742 L 272 742 Z M 272 222 "/>
</clipPath>
<clipPath id="clip-3">
<path clip-rule="nonzero" d="M 532.234375 741.53125 C 675.628906 741.53125 791.871094 625.289062 791.871094 481.898438 C 791.875 338.5 675.632812 222.269531 532.234375 222.269531 C 388.84375 222.269531 272.597656 338.511719 272.597656 481.898438 C 272.597656 625.289062 388.839844 741.53125 532.234375 741.53125 Z M 532.234375 741.53125 "/>
</clipPath>
<clipPath id="clip-4">
<path clip-rule="nonzero" d="M 532.234375 741.53125 C 675.628906 741.53125 791.871094 625.289062 791.871094 481.898438 C 791.875 338.5 675.632812 222.269531 532.234375 222.269531 C 388.84375 222.269531 272.597656 338.511719 272.597656 481.898438 C 272.597656 625.289062 388.839844 741.53125 532.234375 741.53125 Z M 532.234375 741.53125 "/>
</clipPath>
<radialGradient id="radial-pattern-1" gradientUnits="userSpaceOnUse" cx="-1228.6275" cy="-61.2639" fx="-1228.6275" fy="-61.2639" r="267.00675" gradientTransform="matrix(1, 0, 0, 1, 1760.87, 543.16)">
<stop offset="0" stop-color="rgb(76.347351%, 90.060425%, 99.453735%)" stop-opacity="1"/>
<stop offset="0.03125" stop-color="rgb(76.116943%, 89.807129%, 99.16687%)" stop-opacity="1"/>
<stop offset="0.0585938" stop-color="rgb(75.90332%, 89.572144%, 98.898315%)" stop-opacity="1"/>
<stop offset="0.0859375" stop-color="rgb(75.688171%, 89.335632%, 98.629761%)" stop-opacity="1"/>
<stop offset="0.113281" stop-color="rgb(75.473022%, 89.099121%, 98.362732%)" stop-opacity="1"/>
<stop offset="0.140625" stop-color="rgb(75.274658%, 88.88092%, 98.112488%)" stop-opacity="1"/>
<stop offset="0.164062" stop-color="rgb(75.091553%, 88.677979%, 97.883606%)" stop-opacity="1"/>
<stop offset="0.1875" stop-color="rgb(74.906921%, 88.476562%, 97.653198%)" stop-opacity="1"/>
<stop offset="0.210938" stop-color="rgb(74.723816%, 88.273621%, 97.424316%)" stop-opacity="1"/>
<stop offset="0.234375" stop-color="rgb(74.539185%, 88.072205%, 97.193909%)" stop-opacity="1"/>
<stop offset="0.257812" stop-color="rgb(74.371338%, 87.886047%, 96.983337%)" stop-opacity="1"/>
<stop offset="0.277344" stop-color="rgb(74.217224%, 87.718201%, 96.792603%)" stop-opacity="1"/>
<stop offset="0.296875" stop-color="rgb(74.064636%, 87.548828%, 96.600342%)" stop-opacity="1"/>
<stop offset="0.316406" stop-color="rgb(73.834229%, 87.297058%, 96.313477%)" stop-opacity="1"/>
<stop offset="0.355469" stop-color="rgb(73.527527%, 86.959839%, 95.930481%)" stop-opacity="1"/>
<stop offset="0.394531" stop-color="rgb(73.23761%, 86.639404%, 95.567322%)" stop-opacity="1"/>
<stop offset="0.429688" stop-color="rgb(72.961426%, 86.335754%, 95.222473%)" stop-opacity="1"/>
<stop offset="0.464844" stop-color="rgb(72.7005%, 86.048889%, 94.895935%)" stop-opacity="1"/>
<stop offset="0.496094" stop-color="rgb(72.45636%, 85.780334%, 94.589233%)" stop-opacity="1"/>
<stop offset="0.527344" stop-color="rgb(72.225952%, 85.527039%, 94.302368%)" stop-opacity="1"/>
<stop offset="0.554688" stop-color="rgb(72.012329%, 85.292053%, 94.035339%)" stop-opacity="1"/>
<stop offset="0.582031" stop-color="rgb(71.812439%, 85.072327%, 93.785095%)" stop-opacity="1"/>
<stop offset="0.605469" stop-color="rgb(71.629333%, 84.870911%, 93.556213%)" stop-opacity="1"/>
<stop offset="0.628906" stop-color="rgb(71.459961%, 84.684753%, 93.345642%)" stop-opacity="1"/>
<stop offset="0.648438" stop-color="rgb(71.307373%, 84.516907%, 93.153381%)" stop-opacity="1"/>
<stop offset="0.667969" stop-color="rgb(71.076965%, 84.263611%, 92.866516%)" stop-opacity="1"/>
<stop offset="0.707031" stop-color="rgb(70.785522%, 83.943176%, 92.503357%)" stop-opacity="1"/>
<stop offset="0.742188" stop-color="rgb(70.526123%, 83.656311%, 92.176819%)" stop-opacity="1"/>
<stop offset="0.773438" stop-color="rgb(70.295715%, 83.404541%, 91.889954%)" stop-opacity="1"/>
<stop offset="0.800781" stop-color="rgb(70.097351%, 83.184814%, 91.641235%)" stop-opacity="1"/>
<stop offset="0.824219" stop-color="rgb(69.927979%, 83.000183%, 91.430664%)" stop-opacity="1"/>
<stop offset="0.84375" stop-color="rgb(69.699097%, 82.746887%, 91.142273%)" stop-opacity="1"/>
<stop offset="0.882812" stop-color="rgb(69.438171%, 82.460022%, 90.817261%)" stop-opacity="1"/>
<stop offset="0.910156" stop-color="rgb(69.255066%, 82.258606%, 90.588379%)" stop-opacity="1"/>
<stop offset="0.929688" stop-color="rgb(69.039917%, 82.022095%, 90.319824%)" stop-opacity="1"/>
<stop offset="0.964844" stop-color="rgb(68.763733%, 81.718445%, 89.974976%)" stop-opacity="1"/>
<stop offset="1" stop-color="rgb(68.626404%, 81.567383%, 89.802551%)" stop-opacity="1"/>
</radialGradient>
</defs>
<g clip-path="url(#clip-0)">
<g clip-path="url(#clip-1)">
<path fill-rule="nonzero" fill="url(#radial-pattern-0)" d="M 0.0195312 0 L 0.0195312 2160 L 3839.640625 2160 L 3839.640625 0 Z M 0.0195312 0 "/>
</g>
</g>
<path fill-rule="nonzero" fill="rgb(30.979919%, 40.380859%, 50.584412%)" fill-opacity="1" d="M 3357.648438 414.191406 L 3330.828125 416.339844 C 3246.96875 425.800781 3064.410156 465.308594 2783.140625 534.871094 L 2250.261719 798.121094 C 2218.78125 806.820312 2196.660156 811.171875 2183.890625 811.171875 C 2183.390625 811.171875 2182.898438 811.160156 2182.429688 811.148438 C 2121.28125 806.109375 2073.101562 803.601562 2037.890625 803.601562 C 2003.960938 803.601562 1982.078125 805.941406 1972.261719 810.621094 L 1380.589844 1168.96875 C 1306.949219 1199.964844 1266.941406 1215.460938 1260.570312 1215.460938 C 1260.449219 1215.460938 1260.351562 1215.457031 1260.261719 1215.449219 C 1074.621094 1225.519531 961.761719 1239.207031 921.695312 1256.507812 C 728.660156 1390.082031 560.703125 1496.78125 417.816406 1576.605469 C 223.339844 1678.101562 84.070312 1741.664062 0 1767.289062 L 0.0195312 1767.289062 L 0.0195312 2160 L 3839.640625 2159.914062 L 3839.640625 710.351562 L 3839.660156 710.351562 L 3839.640625 710.351562 L 3839.660156 710.351562 C 3776.5 675.101562 3682.21875 635.210938 3556.839844 590.671875 C 3538.410156 580.660156 3492.199219 530.628906 3418.191406 440.578125 C 3404.070312 427.820312 3383.890625 419.019531 3357.648438 414.191406 Z M 3357.648438 414.191406 "/>
<path fill-rule="nonzero" fill="rgb(26.660156%, 36.083984%, 46.263123%)" fill-opacity="1" d="M 3548.230469 584.738281 L 3548.238281 584.738281 Z M 2242.5 800.230469 C 2215.121094 807.519531 2195.578125 811.171875 2183.890625 811.171875 C 2183.390625 811.171875 2182.898438 811.160156 2182.429688 811.148438 C 2121.28125 806.109375 2073.101562 803.601562 2037.890625 803.601562 C 2010.101562 803.601562 1990.390625 805.171875 1978.769531 808.308594 L 2016.660156 861.179688 C 2021.179688 868.058594 2023.21875 874.75 2022.761719 881.230469 C 2022.53125 885.339844 2020.828125 890.519531 2017.660156 896.769531 C 1987.839844 941.070312 1971.359375 970.46875 1968.230469 984.949219 C 1965.390625 992.28125 1962.871094 1014.261719 1960.660156 1050.890625 C 1941.789062 1108.648438 1931.480469 1144.5 1929.738281 1158.429688 C 1926.621094 1176.191406 1926.390625 1200.414062 1929.050781 1231.097656 C 1939.378906 1320.519531 1946.679688 1370.042969 1950.960938 1379.660156 C 1970.171875 1343.816406 1987.390625 1319.78125 2002.589844 1307.5625 C 2011.160156 1299.371094 2035.320312 1286 2075.089844 1267.453125 C 2081.289062 1263.429688 2085.578125 1259.625 2087.941406 1256.046875 C 2094.28125 1247.898438 2101.128906 1235.472656 2108.5 1218.78125 C 2129.550781 1151.78125 2150.628906 1096.5 2171.71875 1052.929688 C 2174.308594 1046.558594 2202.269531 1023.011719 2255.609375 982.289062 C 2263.039062 975.898438 2268.921875 968.808594 2273.25 961.019531 C 2278.5 948.089844 2279.730469 935.511719 2276.941406 923.269531 C 2257.75 877.121094 2246.699219 840.089844 2243.761719 812.160156 C 2243.269531 808.171875 2242.851562 804.191406 2242.5 800.230469 Z M 1273.011719 1212.097656 C 1266.429688 1214.339844 1262.28125 1215.460938 1260.570312 1215.460938 C 1260.449219 1215.460938 1260.351562 1215.457031 1260.261719 1215.449219 C 1096.230469 1224.347656 989.035156 1236.070312 938.65625 1250.609375 L 938.664062 1250.613281 C 945.273438 1264.746094 951.339844 1274.492188 956.867188 1279.851562 C 963.039062 1286.253906 993.410156 1306.261719 1047.980469 1339.875 C 1056.429688 1347.765625 1074.679688 1371.003906 1102.730469 1409.59375 C 1116.160156 1422.308594 1128.070312 1431.519531 1138.441406 1437.222656 C 1145.320312 1441.148438 1154.558594 1444.3125 1166.160156 1446.71875 C 1231.238281 1453.570312 1276.871094 1459.734375 1303.039062 1465.207031 C 1381.25 1485.171875 1430.628906 1499.484375 1451.160156 1508.140625 C 1533.101562 1542.066406 1584.378906 1565.0625 1605 1577.128906 C 1624.570312 1586.058594 1657.96875 1612.832031 1705.179688 1657.445312 C 1711.328125 1662.046875 1715.5 1664.347656 1717.699219 1664.347656 C 1718.320312 1664.347656 1718.789062 1664.164062 1719.101562 1663.796875 C 1723.609375 1655.90625 1724.921875 1647.042969 1723.050781 1637.207031 C 1721.359375 1627.199219 1716.820312 1615.867188 1709.441406 1603.21875 L 1696.25 1583.253906 C 1677.789062 1557.035156 1644.019531 1522.09375 1594.929688 1478.433594 C 1578.269531 1464.578125 1554.910156 1450.011719 1524.851562 1434.730469 C 1433.300781 1396.835938 1382.839844 1374.890625 1373.460938 1368.902344 C 1359.640625 1361.125 1345.53125 1347.183594 1331.128906 1327.078125 C 1304.191406 1285.183594 1284.820312 1246.855469 1273.019531 1212.097656 Z M 3357.648438 414.191406 L 3352.378906 414.621094 L 3352.390625 414.621094 C 3352.910156 433.261719 3354.148438 452.488281 3356.140625 472.320312 C 3355.519531 482.519531 3352.429688 492.078125 3346.878906 500.988281 C 3287.738281 543.671875 3256.441406 567.730469 3252.96875 573.191406 C 3218.550781 645.28125 3186.859375 694.75 3157.890625 721.609375 C 3123.921875 757.871094 3048.519531 812.390625 2931.710938 885.171875 C 2910.089844 902.351562 2867.769531 943.601562 2804.75 1008.921875 C 2761.859375 1049.449219 2718.378906 1112.011719 2674.320312 1196.605469 C 2666.609375 1212.175781 2663.191406 1221.925781 2664.039062 1225.851562 C 2674.75 1288.476562 2678.71875 1324.617188 2675.929688 1334.269531 C 2647.660156 1407.269531 2623.050781 1491.652344 2602.109375 1587.410156 C 2597.339844 1608.207031 2586.980469 1670.867188 2571 1775.386719 C 2570.210938 1783.625 2572.28125 1787.746094 2577.210938 1787.746094 C 2578.390625 1787.746094 2579.730469 1787.511719 2581.230469 1787.046875 C 2599.710938 1761.195312 2624.96875 1737.21875 2657.019531 1715.117188 C 2765.390625 1681.207031 2824.820312 1660.195312 2835.289062 1652.085938 C 2921.238281 1585.304688 2967.78125 1546.898438 2974.910156 1536.871094 L 2989.140625 1510.34375 C 2988.820312 1497.261719 2997.191406 1463.585938 3014.25 1409.308594 C 3024.378906 1378.207031 3040.121094 1338.792969 3061.449219 1291.066406 C 3072.640625 1274.121094 3120.75 1221.089844 3205.769531 1131.96875 C 3217.371094 1116.539062 3240.261719 1070.308594 3274.449219 993.261719 C 3371.25 900.988281 3422.050781 849.730469 3426.839844 839.46875 L 3440.5 805.691406 C 3452.53125 721.929688 3462.898438 677.5 3471.578125 672.398438 C 3477.609375 660.238281 3503.160156 631.019531 3548.230469 584.738281 L 3548.25 584.738281 L 3548.230469 584.738281 L 3548.25 584.738281 C 3525.929688 566.980469 3482.578125 518.929688 3418.191406 440.578125 C 3404.070312 427.820312 3383.890625 419.019531 3357.648438 414.191406 Z M 3357.648438 414.191406 "/>
<path fill-rule="nonzero" fill="rgb(21.556091%, 30.589294%, 41.575623%)" fill-opacity="1" d="M 2141.769531 1334.429688 L 2139.089844 1334.449219 C 1944.019531 1344.273438 1794.789062 1355.0625 1691.429688 1366.820312 C 1589.519531 1383.332031 1422.558594 1425.746094 1190.558594 1494.066406 C 1139.710938 1506.9375 1092.25 1515.3125 1048.199219 1519.1875 C 1026.890625 1520.871094 1005.191406 1521.710938 983.101562 1521.710938 C 939.144531 1521.710938 893.664062 1518.378906 846.65625 1511.714844 C 812.917969 1507.710938 738.535156 1487.128906 623.503906 1449.957031 C 606 1446.71875 588.578125 1445.101562 571.230469 1445.101562 C 559.640625 1445.101562 548.085938 1445.824219 536.566406 1447.269531 L 110.417969 1563.882812 C 70.261719 1570.898438 33.457031 1577.21875 0 1582.84375 L 0.0195312 1582.84375 L 0.0195312 1767.289062 L 0 1767.289062 L 0.0195312 1767.292969 L 0.0195312 2160 L 3839.640625 2159.914062 L 3839.640625 1422.335938 L 3839.628906 1422.335938 C 3818.441406 1423.375 3801.570312 1425.035156 3789 1427.3125 L 3247.640625 1595.703125 C 3198.230469 1609.40625 3135.769531 1616.257812 3060.230469 1616.257812 C 3050.109375 1616.257812 3039.75 1616.136719 3029.160156 1615.886719 C 2985.878906 1614.097656 2942.601562 1609.328125 2899.328125 1601.578125 C 2837.5 1589.1875 2749.421875 1568.058594 2635.089844 1538.183594 C 2456.730469 1511.597656 2346.46875 1491.910156 2304.320312 1479.117188 C 2285.011719 1475.441406 2265.160156 1466.625 2244.761719 1452.671875 C 2216.789062 1430.738281 2195.46875 1394.246094 2180.789062 1343.191406 C 2177.179688 1338.035156 2164.171875 1335.117188 2141.769531 1334.429688 Z M 2141.769531 1334.429688 "/>
<path fill-rule="nonzero" fill="rgb(17.259216%, 26.660156%, 37.255859%)" fill-opacity="1" d="M 2180.929688 1343.6875 C 2141.460938 1379.003906 2097.210938 1408.410156 2048.179688 1431.90625 L 1968.878906 1527.683594 C 1945.308594 1541.027344 1904.859375 1554.441406 1847.519531 1567.921875 C 1840.230469 1570.300781 1829.480469 1575.859375 1815.28125 1584.609375 C 1730.21875 1653.285156 1682.679688 1692.480469 1672.640625 1702.1875 C 1650.019531 1722.039062 1639.71875 1732.683594 1641.75 1734.125 C 1659.910156 1728.28125 1672.480469 1724.941406 1679.5 1724.097656 L 1844.441406 1709.371094 L 1949.269531 1632.617188 C 1954.21875 1629.980469 1959.449219 1627.804688 1964.96875 1626.097656 C 2006.039062 1616.503906 2030.25 1609.839844 2037.609375 1606.105469 C 2042.789062 1604.097656 2049.621094 1600.238281 2058.089844 1594.527344 L 2113.839844 1554.582031 C 2136.25 1544.210938 2171.21875 1531.09375 2218.761719 1515.230469 C 2230.53125 1510.984375 2248.609375 1506.691406 2273.011719 1502.351562 C 2279.808594 1500.785156 2309.289062 1497.554688 2361.460938 1492.660156 C 2336.148438 1487.511719 2317.101562 1483 2304.320312 1479.117188 C 2285.011719 1475.441406 2265.160156 1466.625 2244.761719 1452.671875 C 2216.878906 1430.8125 2195.609375 1394.484375 2180.929688 1343.6875 Z M 591.515625 1445.835938 C 587.886719 1453.445312 586.320312 1460.378906 586.804688 1466.640625 C 586.945312 1474.539062 594.652344 1498.761719 609.929688 1539.304688 C 611.28125 1543.808594 610.3125 1550.726562 607.03125 1560.0625 C 602.296875 1570.371094 578.144531 1593.277344 534.570312 1628.777344 L 511.867188 1691.226562 C 507.554688 1700.9375 497.3125 1715.4375 481.140625 1734.722656 C 479.601562 1738.21875 480.21875 1739.96875 482.992188 1739.96875 C 483.257812 1739.96875 483.542969 1739.953125 483.847656 1739.921875 L 597.605469 1691.835938 L 620.898438 1680.414062 C 629.199219 1675.660156 656.917969 1651.886719 704.058594 1609.09375 C 722.496094 1596.035156 736.648438 1587.90625 746.519531 1584.699219 L 902.644531 1552.054688 C 904.09375 1551.984375 905.882812 1551.949219 908.015625 1551.949219 C 922.816406 1551.949219 954.085938 1553.660156 1001.828125 1557.082031 C 1002.601562 1557.097656 1003.390625 1557.105469 1004.179688 1557.105469 C 1015.308594 1557.105469 1028.929688 1555.742188 1045.058594 1553.011719 C 1073.71875 1547.140625 1099.308594 1537.046875 1121.820312 1522.730469 C 1131.46875 1517.097656 1140.828125 1510.707031 1149.898438 1503.558594 L 1149.890625 1503.558594 C 1114.191406 1511.15625 1080.289062 1516.363281 1048.199219 1519.1875 C 1026.890625 1520.871094 1005.191406 1521.710938 983.101562 1521.710938 C 939.144531 1521.710938 893.664062 1518.378906 846.65625 1511.714844 C 812.917969 1507.710938 738.535156 1487.128906 623.503906 1449.957031 C 612.816406 1447.980469 602.15625 1446.605469 591.527344 1445.835938 Z M 591.515625 1445.835938 "/>
<path fill-rule="nonzero" fill="rgb(13.719177%, 21.556091%, 32.151794%)" fill-opacity="1" d="M 0.0195312 1383.253906 L 0.0195312 1582.84375 L 0 1582.84375 L 0.0195312 1582.847656 L 0.0195312 1767.289062 L 0 1767.289062 L 0.0195312 1767.292969 L 0.0195312 2160 L 3798.480469 2159.917969 L 3798.5 2159.917969 C 3777.589844 2133.425781 3753.839844 2108.125 3727.25 2084.011719 C 3608.640625 2035.445312 3517.96875 1994.066406 3455.21875 1959.875 C 3420.441406 1958.917969 3364.960938 1946.625 3288.761719 1922.992188 C 3243.261719 1911.644531 3115.648438 1864.390625 2905.929688 1781.230469 C 2893.628906 1779.425781 2880.449219 1778.527344 2866.378906 1778.527344 C 2849.800781 1778.527344 2831.980469 1779.777344 2812.949219 1782.28125 C 2691.671875 1808.988281 2602.960938 1825.289062 2546.808594 1831.1875 C 2350.640625 1843.65625 2218.460938 1850.300781 2150.269531 1851.125 C 2083.109375 1849.089844 2034.339844 1844.640625 2003.941406 1837.777344 C 1946.609375 1824.230469 1880.789062 1802.507812 1806.511719 1772.605469 C 1783.289062 1766.066406 1765.910156 1762.796875 1754.371094 1762.796875 C 1753.058594 1762.796875 1751.820312 1762.839844 1750.660156 1762.925781 C 1645.960938 1777.980469 1512.46875 1814.480469 1350.199219 1872.421875 C 1268.800781 1892.230469 1213.199219 1903.449219 1183.429688 1906.082031 C 1155.121094 1905.511719 1133.898438 1903.488281 1119.78125 1900.011719 C 971.6875 1859.445312 890.023438 1839.164062 874.792969 1839.164062 C 874.085938 1839.164062 873.523438 1839.207031 873.101562 1839.296875 C 818.269531 1843.71875 767.171875 1845.929688 719.808594 1845.929688 C 635.148438 1845.929688 562.414062 1838.863281 501.613281 1824.734375 C 472.195312 1821.0625 431.636719 1796.449219 379.9375 1750.890625 L 128.253906 1473.59375 C 92.804688 1444.53125 50.0625 1414.417969 0.0351562 1383.253906 Z M 0.0195312 1383.253906 "/>
<path fill-rule="nonzero" fill="rgb(10.594177%, 17.259216%, 27.43988%)" fill-opacity="1" d="M 874.792969 1839.164062 C 874.085938 1839.164062 873.523438 1839.207031 873.101562 1839.296875 C 872.167969 1839.371094 871.234375 1839.445312 870.300781 1839.519531 L 870.308594 1839.519531 C 871.90625 1850.960938 875.714844 1869.285156 881.734375 1894.5 C 882.808594 1904.648438 882.335938 1916.824219 880.316406 1931.035156 C 877.976562 1950.808594 864.261719 1973.867188 839.175781 2000.199219 C 837.214844 2003.792969 838.289062 2006.644531 842.402344 2008.761719 C 842.417969 2008.761719 842.433594 2008.761719 842.449219 2008.761719 C 847.304688 2008.761719 864.222656 2004.070312 893.199219 1994.683594 C 952.949219 1974.996094 1009 1955.890625 1061.359375 1937.378906 C 1071.441406 1934.703125 1082.179688 1932.464844 1093.589844 1930.652344 C 1126.519531 1927.570312 1150.660156 1924.851562 1166.011719 1922.488281 C 1189.660156 1916.125 1215.449219 1907.464844 1243.371094 1896.515625 L 1243.359375 1896.515625 C 1217.558594 1901.640625 1197.570312 1904.832031 1183.429688 1906.082031 C 1155.121094 1905.511719 1133.898438 1903.488281 1119.78125 1900.011719 C 971.6875 1859.445312 890.023438 1839.164062 874.792969 1839.164062 Z M 1778.980469 1765.820312 L 1780.03125 1792.675781 C 1781.101562 1793.621094 1779.039062 1796.253906 1773.839844 1800.566406 C 1762.578125 1809.269531 1751.171875 1817.289062 1739.628906 1824.621094 L 1731.101562 1834.132812 C 1728.171875 1837.386719 1728.269531 1852.566406 1731.378906 1879.671875 C 1730.628906 1886.464844 1728.988281 1892.332031 1726.480469 1897.273438 C 1712.371094 1921.636719 1684.730469 1956.273438 1643.570312 2001.183594 C 1639.929688 2006.46875 1641.5 2009.816406 1648.269531 2011.234375 L 1734.21875 1980.765625 C 1741.898438 1978.023438 1752.808594 1974.84375 1766.941406 1971.222656 C 1782.96875 1966.90625 1803.820312 1964.746094 1829.519531 1964.746094 C 1832.488281 1964.746094 1835.539062 1964.777344 1838.648438 1964.832031 C 1844.160156 1964.28125 1849.941406 1962.617188 1856 1959.839844 C 1867.019531 1954.011719 1891.808594 1930.246094 1930.351562 1888.542969 C 1944.550781 1877.976562 1957.71875 1871.277344 1969.871094 1868.453125 C 1976.359375 1866.320312 1987.28125 1864.804688 2002.609375 1863.898438 C 2025.691406 1864.617188 2047.300781 1864.976562 2067.429688 1864.976562 C 2102.019531 1864.976562 2132.261719 1863.914062 2158.148438 1861.792969 C 2191.019531 1858.09375 2219.160156 1853.574219 2242.570312 1848.242188 L 2242.570312 1848.246094 C 2204.328125 1849.882812 2173.558594 1850.84375 2150.269531 1851.125 C 2083.109375 1849.089844 2034.339844 1844.640625 2003.941406 1837.777344 C 1946.609375 1824.230469 1880.789062 1802.507812 1806.511719 1772.605469 C 1796.179688 1769.695312 1787 1767.433594 1778.980469 1765.820312 Z M 2866.378906 1778.527344 C 2865.800781 1778.527344 2865.21875 1778.527344 2864.628906 1778.53125 L 2864.640625 1778.53125 C 2845.511719 1802.574219 2836.949219 1819.136719 2838.96875 1828.21875 L 2888.859375 1880.484375 C 2895.941406 1889.054688 2899.109375 1893.339844 2898.371094 1893.339844 C 2898.339844 1893.339844 2898.308594 1893.332031 2898.28125 1893.324219 L 2898.269531 1893.324219 C 2904.539062 1899.882812 2901.179688 1922.589844 2888.179688 1961.445312 C 2887.988281 1965.113281 2889.730469 1970.003906 2893.378906 1976.109375 C 2922.238281 1989.789062 2945.128906 2003.75 2962.03125 2017.988281 C 2970.480469 2025.105469 2977.441406 2032.296875 2982.898438 2039.554688 C 2987.5 2043.097656 2992.328125 2054.144531 2997.390625 2072.691406 C 2997.679688 2072.246094 2997.980469 2072.023438 2998.289062 2072.023438 C 2998.929688 2072.023438 2999.609375 2072.933594 3000.359375 2074.753906 C 3001.269531 2082.730469 2993.519531 2111.125 2977.109375 2159.933594 L 3798.480469 2159.917969 L 3798.5 2159.917969 L 3798.480469 2159.917969 L 3798.5 2159.917969 L 3798.480469 2159.917969 L 3798.5 2159.917969 C 3777.589844 2133.425781 3753.839844 2108.125 3727.25 2084.011719 C 3608.640625 2035.445312 3517.96875 1994.066406 3455.21875 1959.875 C 3420.441406 1958.917969 3364.960938 1946.625 3288.761719 1922.992188 C 3243.261719 1911.644531 3115.648438 1864.390625 2905.929688 1781.230469 C 2893.628906 1779.425781 2880.449219 1778.527344 2866.378906 1778.527344 Z M 2866.378906 1778.527344 "/>
<g clip-path="url(#clip-2)">
<g clip-path="url(#clip-3)">
<g clip-path="url(#clip-4)">
<path fill-rule="nonzero" fill="url(#radial-pattern-1)" d="M 272.597656 222.269531 L 272.597656 741.53125 L 791.875 741.53125 L 791.875 222.269531 Z M 272.597656 222.269531 "/>
</g>
</g>
</g>
<path fill-rule="nonzero" fill="rgb(76.171875%, 95.701599%, 99.609375%)" fill-opacity="1" d="M 1564.570312 27.339844 L 1561.429688 39.890625 L 1553.589844 34.660156 L 1558.820312 42.5 L 1546.269531 45.640625 L 1558.820312 48.78125 L 1553.589844 56.621094 L 1561.429688 51.390625 L 1564.570312 63.941406 L 1567.699219 51.390625 L 1575.539062 56.621094 L 1570.320312 48.78125 L 1582.871094 45.640625 L 1570.320312 42.5 L 1575.539062 34.660156 L 1567.699219 39.890625 Z M 980.664062 28.601562 L 977.523438 41.148438 L 969.683594 35.921875 L 974.914062 43.769531 L 962.359375 46.910156 L 974.910156 50.039062 L 969.683594 57.878906 L 977.523438 52.648438 L 980.664062 65.199219 L 983.800781 52.648438 L 991.640625 57.878906 L 986.414062 50.039062 L 998.960938 46.910156 L 986.414062 43.769531 L 991.640625 35.921875 L 983.800781 41.148438 Z M 2193.648438 47.828125 L 2190.519531 60.378906 L 2182.671875 55.148438 L 2187.898438 63 L 2175.351562 66.128906 L 2187.898438 69.269531 L 2182.671875 77.109375 L 2190.519531 71.878906 L 2193.648438 84.429688 L 2196.789062 71.878906 L 2204.628906 77.109375 L 2199.398438 69.269531 L 2211.949219 66.128906 L 2199.410156 63 L 2204.628906 55.148438 L 2196.789062 60.378906 Z M 3107.238281 51.269531 L 3104.109375 63.820312 L 3096.261719 58.589844 L 3101.488281 66.429688 L 3088.941406 69.570312 L 3101.488281 72.699219 L 3096.261719 80.550781 L 3104.101562 75.320312 L 3107.238281 87.871094 L 3110.378906 75.320312 L 3118.21875 80.550781 L 3112.988281 72.699219 L 3125.539062 69.570312 L 3112.988281 66.429688 L 3118.21875 58.589844 L 3110.378906 63.820312 Z M 1291.25 96.339844 L 1288.109375 108.890625 L 1280.269531 103.660156 L 1285.5 111.511719 L 1272.949219 114.648438 L 1285.5 117.78125 L 1280.269531 125.621094 L 1288.109375 120.390625 L 1291.25 132.941406 L 1294.390625 120.390625 L 1302.230469 125.621094 L 1297 117.78125 L 1309.550781 114.648438 L 1297 111.511719 L 1302.230469 103.660156 L 1294.390625 108.890625 Z M 3686.871094 101.421875 L 3683.730469 113.96875 L 3675.890625 108.738281 L 3681.121094 116.578125 L 3668.570312 119.71875 L 3681.121094 122.859375 L 3675.890625 130.691406 L 3683.730469 125.46875 L 3686.871094 138.019531 L 3690 125.46875 L 3697.851562 130.691406 L 3692.621094 122.859375 L 3705.171875 119.71875 L 3692.621094 116.578125 L 3697.851562 108.738281 L 3690 113.96875 Z M 2655.03125 172.480469 L 2655.039062 172.480469 Z M 2644.058594 143.199219 L 2640.921875 155.75 L 2633.078125 150.519531 L 2638.308594 158.359375 L 2625.75 161.5 L 2638.308594 164.640625 L 2633.078125 172.480469 L 2640.921875 167.25 L 2644.058594 179.808594 L 2647.191406 167.25 L 2655.03125 172.480469 L 2649.808594 164.640625 L 2662.359375 161.5 L 2649.808594 158.371094 L 2655.039062 150.519531 L 2647.191406 155.75 Z M 359.894531 163.980469 L 356.757812 176.53125 L 348.914062 171.308594 L 354.144531 179.148438 L 341.59375 182.28125 L 354.144531 185.421875 L 348.914062 193.261719 L 348.914062 193.269531 L 356.757812 188.03125 L 359.894531 200.589844 L 363.03125 188.03125 L 370.875 193.261719 L 365.644531 185.421875 L 378.195312 182.28125 L 365.648438 179.148438 L 370.875 171.308594 L 363.03125 176.53125 Z M 1904.570312 221.640625 L 1901.441406 234.191406 L 1893.601562 228.960938 L 1898.828125 236.808594 L 1886.28125 239.941406 L 1898.828125 243.078125 L 1893.601562 250.921875 L 1901.441406 245.691406 L 1904.570312 258.238281 L 1907.71875 245.691406 L 1915.558594 250.921875 L 1910.328125 243.078125 L 1922.878906 239.941406 L 1910.328125 236.808594 L 1915.558594 228.960938 L 1907.71875 234.191406 Z M 884.957031 282.980469 L 884.960938 282.980469 Z M 873.980469 253.699219 L 870.84375 266.25 L 863 261.019531 L 868.230469 268.871094 L 855.679688 272 L 868.230469 275.140625 L 863 282.980469 L 870.84375 277.75 L 873.980469 290.308594 L 877.117188 277.75 L 884.957031 282.980469 L 879.730469 275.140625 L 892.28125 272 L 879.734375 268.871094 L 884.960938 261.019531 L 877.117188 266.25 Z M 93.824219 304.058594 L 90.6875 316.609375 L 82.84375 311.371094 L 88.074219 319.21875 L 75.523438 322.359375 L 88.074219 325.5 L 82.84375 333.339844 L 90.6875 328.109375 L 93.824219 340.660156 L 96.960938 328.109375 L 104.800781 333.339844 L 99.574219 325.5 L 112.125 322.359375 L 99.578125 319.21875 L 104.800781 311.371094 L 96.960938 316.609375 Z M 3376.640625 304.148438 L 3373.5 316.699219 L 3365.660156 311.46875 L 3370.890625 319.308594 L 3358.339844 322.449219 L 3370.890625 325.589844 L 3365.660156 333.429688 L 3373.5 328.199219 L 3376.640625 340.75 L 3379.769531 328.199219 L 3387.609375 333.429688 L 3382.390625 325.589844 L 3394.929688 322.449219 L 3382.390625 319.308594 L 3387.621094 311.46875 L 3379.769531 316.699219 Z M 2398.019531 383.660156 L 2394.890625 396.210938 L 2387.039062 390.980469 L 2392.269531 398.828125 L 2379.71875 401.960938 L 2392.269531 405.101562 L 2387.039062 412.941406 L 2394.890625 407.710938 L 2398.019531 420.269531 L 2401.160156 407.710938 L 2409 412.941406 L 2403.769531 405.101562 L 2416.320312 401.960938 L 2403.78125 398.828125 L 2409 390.980469 L 2401.160156 396.210938 Z M 2842.160156 392.71875 L 2839.03125 405.269531 L 2831.179688 400.039062 L 2836.410156 407.878906 L 2823.859375 411.019531 L 2836.410156 414.160156 L 2831.179688 422 L 2839.03125 416.769531 L 2842.160156 429.320312 L 2845.300781 416.769531 L 2853.140625 422 L 2847.910156 414.160156 L 2860.46875 411.019531 L 2847.921875 407.878906 L 2853.140625 400.039062 L 2845.300781 405.269531 Z M 1799.46875 480.179688 L 1796.328125 492.730469 L 1788.488281 487.5 L 1793.71875 495.339844 L 1781.171875 498.480469 L 1793.71875 501.609375 L 1788.488281 509.460938 L 1796.328125 504.230469 L 1799.46875 516.78125 L 1802.609375 504.230469 L 1810.441406 509.460938 L 1805.21875 501.609375 L 1817.769531 498.480469 L 1805.21875 495.339844 L 1810.441406 487.5 L 1802.609375 492.730469 Z M 3589.53125 527.859375 L 3586.398438 540.410156 L 3578.558594 535.179688 L 3583.78125 543.03125 L 3571.230469 546.160156 L 3583.78125 549.300781 L 3578.558594 557.140625 L 3586.398438 551.910156 L 3589.53125 564.460938 L 3592.671875 551.910156 L 3600.519531 557.140625 L 3595.289062 549.300781 L 3607.839844 546.160156 L 3595.289062 543.03125 L 3600.519531 535.179688 L 3592.671875 540.410156 Z M 225.074219 566.089844 L 221.9375 578.640625 L 214.097656 573.410156 L 219.324219 581.25 L 206.773438 584.390625 L 219.324219 587.53125 L 214.097656 595.371094 L 221.9375 590.140625 L 225.074219 602.691406 L 228.210938 590.140625 L 236.054688 595.371094 L 230.828125 587.53125 L 243.375 584.390625 L 230.828125 581.25 L 236.054688 573.410156 L 228.210938 578.640625 Z M 2274.019531 577.980469 L 2270.878906 590.53125 L 2263.039062 585.300781 L 2268.269531 593.140625 L 2255.71875 596.28125 L 2268.269531 599.410156 L 2263.039062 607.25 L 2270.878906 602.03125 L 2274.019531 614.578125 L 2277.148438 602.03125 L 2285 607.25 L 2279.769531 599.410156 L 2292.320312 596.28125 L 2279.769531 593.140625 L 2285 585.300781 L 2277.148438 590.53125 Z M 1089.820312 593.710938 L 1086.691406 606.261719 L 1078.851562 601.03125 L 1084.070312 608.878906 L 1071.519531 612.019531 L 1084.070312 615.148438 L 1078.839844 622.988281 L 1086.691406 617.769531 L 1089.820312 630.320312 L 1092.960938 617.769531 L 1100.808594 622.988281 L 1095.578125 615.148438 L 1108.128906 612.019531 L 1095.578125 608.878906 L 1100.808594 601.03125 L 1092.960938 606.261719 Z M 1410.070312 677.960938 L 1406.929688 690.511719 L 1399.089844 685.28125 L 1404.320312 693.121094 L 1391.769531 696.269531 L 1404.320312 699.398438 L 1399.089844 707.238281 L 1406.929688 702.019531 L 1410.070312 714.558594 L 1413.199219 702.019531 L 1421.050781 707.238281 L 1415.820312 699.398438 L 1428.371094 696.269531 L 1415.820312 693.121094 L 1421.050781 685.28125 L 1413.199219 690.511719 Z M 506.238281 777.289062 L 503.101562 789.839844 L 495.257812 784.609375 L 500.488281 792.460938 L 487.9375 795.589844 L 500.488281 798.730469 L 495.257812 806.570312 L 503.101562 801.339844 L 506.238281 813.890625 L 509.375 801.339844 L 517.21875 806.570312 L 511.992188 798.730469 L 524.539062 795.589844 L 511.992188 792.460938 L 517.21875 784.609375 L 509.375 789.839844 Z M 825.65625 810.46875 L 822.519531 823.019531 L 814.675781 817.789062 L 819.90625 825.640625 L 807.355469 828.78125 L 819.90625 831.910156 L 814.675781 839.75 L 822.519531 834.519531 L 825.65625 847.070312 L 828.792969 834.519531 L 836.636719 839.75 L 831.410156 831.910156 L 843.957031 828.78125 L 831.410156 825.640625 L 836.636719 817.789062 L 828.792969 823.019531 Z M 1573.101562 928.359375 L 1569.960938 940.910156 L 1562.121094 935.679688 L 1567.339844 943.53125 L 1554.800781 946.660156 L 1567.351562 949.800781 L 1562.121094 957.640625 L 1569.960938 952.410156 L 1573.101562 964.960938 L 1576.230469 952.410156 L 1584.078125 957.640625 L 1578.851562 949.800781 L 1591.398438 946.660156 L 1578.851562 943.519531 L 1584.078125 935.679688 L 1576.230469 940.910156 Z M 1102.058594 1023.460938 Z M 430.496094 1039.339844 L 430.5 1039.351562 L 430.5 1039.339844 Z M 1102.050781 1045.421875 L 1102.058594 1045.421875 Z M 419.519531 1010.070312 L 416.382812 1022.621094 L 408.539062 1017.390625 L 413.769531 1025.230469 L 401.21875 1028.371094 L 413.769531 1031.5 L 408.539062 1039.339844 L 416.382812 1034.121094 L 419.519531 1046.671875 L 422.65625 1034.121094 L 430.496094 1039.339844 L 425.269531 1031.5 L 437.820312 1028.371094 L 425.273438 1025.230469 L 430.5 1017.390625 L 422.65625 1022.621094 Z M 1091.070312 1016.140625 L 1087.941406 1028.691406 L 1080.089844 1023.460938 L 1085.320312 1031.300781 L 1072.769531 1034.441406 L 1085.320312 1037.570312 L 1080.089844 1045.421875 L 1087.941406 1040.191406 L 1091.070312 1052.738281 L 1094.210938 1040.191406 L 1102.050781 1045.421875 L 1096.820312 1037.570312 L 1109.378906 1034.441406 L 1096.828125 1031.300781 L 1102.058594 1023.460938 L 1094.210938 1028.691406 Z M 102.609375 1097.460938 L 99.472656 1110.011719 L 91.632812 1104.78125 L 96.859375 1112.621094 L 84.308594 1115.761719 L 96.859375 1118.898438 L 91.632812 1126.738281 L 99.472656 1121.511719 L 102.609375 1134.058594 L 105.746094 1121.511719 L 113.589844 1126.738281 L 108.363281 1118.898438 L 120.910156 1115.761719 L 108.363281 1112.621094 L 113.589844 1104.78125 L 105.746094 1110.011719 Z M 695.496094 1151.179688 L 692.359375 1163.726562 L 684.515625 1158.5 L 689.746094 1166.339844 L 677.195312 1169.476562 L 689.746094 1172.613281 L 684.515625 1180.457031 L 692.359375 1175.226562 L 695.496094 1187.777344 L 698.632812 1175.226562 L 706.476562 1180.457031 L 701.246094 1172.613281 L 713.796875 1169.476562 L 701.25 1166.339844 L 706.476562 1158.5 L 698.632812 1163.726562 Z M 261.859375 1358.492188 L 258.722656 1371.042969 L 250.878906 1365.8125 L 256.109375 1373.65625 L 243.558594 1376.796875 L 256.109375 1379.929688 L 250.878906 1387.773438 L 258.722656 1382.542969 L 261.859375 1395.09375 L 264.996094 1382.542969 L 272.839844 1387.773438 L 267.609375 1379.929688 L 280.160156 1376.796875 L 267.613281 1373.65625 L 272.839844 1365.8125 L 264.996094 1371.042969 Z M 261.859375 1358.492188 "/>
</svg>
