<?xml version="1.0" encoding="UTF-8"?>
<svg xmlns="http://www.w3.org/2000/svg" xmlns:xlink="http://www.w3.org/1999/xlink" width="3840" height="2160" viewBox="0 0 3840 2160">
<defs>
<clipPath id="clip-0">
<path clip-rule="nonzero" d="M 0.0195312 0 L 0.0195312 2160 L 3839.640625 2159.914062 L 3839.640625 0.0898438 Z M 0.0195312 0 "/>
</clipPath>
<clipPath id="clip-1">
<path clip-rule="nonzero" d="M 0.0195312 0 L 0.0195312 2160 L 3839.640625 2159.914062 L 3839.640625 0.0898438 Z M 0.0195312 0 "/>
</clipPath>
<linearGradient id="linear-pattern-0" gradientUnits="userSpaceOnUse" x1="2698.05" y1="-746.186667" x2="2698.05" y2="2133.813333" gradientTransform="matrix(0.75, 0, 0, 0.75, 1773.4, 559.64)">
<stop offset="0" stop-color="rgb(37.254333%, 32.548523%, 44.7052%)" stop-opacity="1"/>
<stop offset="0.015625" stop-color="rgb(37.254333%, 32.548523%, 44.7052%)" stop-opacity="1"/>
<stop offset="0.0195313" stop-color="rgb(37.530518%, 32.865906%, 44.967651%)" stop-opacity="1"/>
<stop offset="0.0234375" stop-color="rgb(37.806702%, 33.184814%, 45.230103%)" stop-opacity="1"/>
<stop offset="0.0273438" stop-color="rgb(38.15155%, 33.583069%, 45.558167%)" stop-opacity="1"/>
<stop offset="0.03125" stop-color="rgb(38.497925%, 33.982849%, 45.88623%)" stop-opacity="1"/>
<stop offset="0.0351563" stop-color="rgb(38.842773%, 34.381104%, 46.214294%)" stop-opacity="1"/>
<stop offset="0.0390625" stop-color="rgb(39.189148%, 34.779358%, 46.542358%)" stop-opacity="1"/>
<stop offset="0.0429688" stop-color="rgb(39.533997%, 35.177612%, 46.870422%)" stop-opacity="1"/>
<stop offset="0.046875" stop-color="rgb(39.880371%, 35.577393%, 47.198486%)" stop-opacity="1"/>
<stop offset="0.0507813" stop-color="rgb(40.226746%, 35.975647%, 47.52655%)" stop-opacity="1"/>
<stop offset="0.0546875" stop-color="rgb(40.57312%, 36.373901%, 47.854614%)" stop-opacity="1"/>
<stop offset="0.0585938" stop-color="rgb(40.917969%, 36.772156%, 48.182678%)" stop-opacity="1"/>
<stop offset="0.0625" stop-color="rgb(41.264343%, 37.171936%, 48.510742%)" stop-opacity="1"/>
<stop offset="0.0664063" stop-color="rgb(41.609192%, 37.57019%, 48.838806%)" stop-opacity="1"/>
<stop offset="0.0703125" stop-color="rgb(41.955566%, 37.968445%, 49.16687%)" stop-opacity="1"/>
<stop offset="0.0742188" stop-color="rgb(42.300415%, 38.366699%, 49.494934%)" stop-opacity="1"/>
<stop offset="0.078125" stop-color="rgb(42.64679%, 38.766479%, 49.822998%)" stop-opacity="1"/>
<stop offset="0.0820313" stop-color="rgb(42.991638%, 39.164734%, 50.151062%)" stop-opacity="1"/>
<stop offset="0.0859375" stop-color="rgb(43.338013%, 39.562988%, 50.479126%)" stop-opacity="1"/>
<stop offset="0.0898438" stop-color="rgb(43.682861%, 39.961243%, 50.80719%)" stop-opacity="1"/>
<stop offset="0.09375" stop-color="rgb(44.029236%, 40.361023%, 51.135254%)" stop-opacity="1"/>
<stop offset="0.0976563" stop-color="rgb(44.374084%, 40.759277%, 51.463318%)" stop-opacity="1"/>
<stop offset="0.101563" stop-color="rgb(44.720459%, 41.157532%, 51.791382%)" stop-opacity="1"/>
<stop offset="0.105469" stop-color="rgb(45.065308%, 41.555786%, 52.119446%)" stop-opacity="1"/>
<stop offset="0.109375" stop-color="rgb(45.411682%, 41.955566%, 52.44751%)" stop-opacity="1"/>
<stop offset="0.113281" stop-color="rgb(45.756531%, 42.353821%, 52.775574%)" stop-opacity="1"/>
<stop offset="0.117188" stop-color="rgb(46.102905%, 42.752075%, 53.103638%)" stop-opacity="1"/>
<stop offset="0.121094" stop-color="rgb(46.44928%, 43.15033%, 53.431702%)" stop-opacity="1"/>
<stop offset="0.125" stop-color="rgb(46.795654%, 43.55011%, 53.759766%)" stop-opacity="1"/>
<stop offset="0.128906" stop-color="rgb(47.140503%, 43.948364%, 54.08783%)" stop-opacity="1"/>
<stop offset="0.132812" stop-color="rgb(47.486877%, 44.346619%, 54.415894%)" stop-opacity="1"/>
<stop offset="0.136719" stop-color="rgb(47.831726%, 44.744873%, 54.743958%)" stop-opacity="1"/>
<stop offset="0.140625" stop-color="rgb(48.178101%, 45.144653%, 55.072021%)" stop-opacity="1"/>
<stop offset="0.144531" stop-color="rgb(48.522949%, 45.542908%, 55.400085%)" stop-opacity="1"/>
<stop offset="0.148438" stop-color="rgb(48.869324%, 45.941162%, 55.728149%)" stop-opacity="1"/>
<stop offset="0.152344" stop-color="rgb(49.214172%, 46.339417%, 56.056213%)" stop-opacity="1"/>
<stop offset="0.15625" stop-color="rgb(49.560547%, 46.737671%, 56.384277%)" stop-opacity="1"/>
<stop offset="0.160156" stop-color="rgb(49.905396%, 47.135925%, 56.712341%)" stop-opacity="1"/>
<stop offset="0.164063" stop-color="rgb(50.25177%, 47.535706%, 57.040405%)" stop-opacity="1"/>
<stop offset="0.167969" stop-color="rgb(50.596619%, 47.93396%, 57.368469%)" stop-opacity="1"/>
<stop offset="0.171875" stop-color="rgb(50.942993%, 48.332214%, 57.696533%)" stop-opacity="1"/>
<stop offset="0.175781" stop-color="rgb(51.287842%, 48.730469%, 58.024597%)" stop-opacity="1"/>
<stop offset="0.179688" stop-color="rgb(51.634216%, 49.130249%, 58.352661%)" stop-opacity="1"/>
<stop offset="0.183594" stop-color="rgb(51.980591%, 49.528503%, 58.680725%)" stop-opacity="1"/>
<stop offset="0.1875" stop-color="rgb(52.326965%, 49.926758%, 59.008789%)" stop-opacity="1"/>
<stop offset="0.191406" stop-color="rgb(52.671814%, 50.325012%, 59.336853%)" stop-opacity="1"/>
<stop offset="0.195313" stop-color="rgb(53.018188%, 50.724792%, 59.664917%)" stop-opacity="1"/>
<stop offset="0.199219" stop-color="rgb(53.363037%, 51.123047%, 59.992981%)" stop-opacity="1"/>
<stop offset="0.203125" stop-color="rgb(53.709412%, 51.521301%, 60.321045%)" stop-opacity="1"/>
<stop offset="0.207031" stop-color="rgb(54.05426%, 51.919556%, 60.649109%)" stop-opacity="1"/>
<stop offset="0.210938" stop-color="rgb(54.400635%, 52.319336%, 60.977173%)" stop-opacity="1"/>
<stop offset="0.214844" stop-color="rgb(54.745483%, 52.71759%, 61.305237%)" stop-opacity="1"/>
<stop offset="0.21875" stop-color="rgb(55.091858%, 53.115845%, 61.633301%)" stop-opacity="1"/>
<stop offset="0.222656" stop-color="rgb(55.436707%, 53.514099%, 61.961365%)" stop-opacity="1"/>
<stop offset="0.226563" stop-color="rgb(55.783081%, 53.913879%, 62.289429%)" stop-opacity="1"/>
<stop offset="0.230469" stop-color="rgb(56.12793%, 54.312134%, 62.617493%)" stop-opacity="1"/>
<stop offset="0.234375" stop-color="rgb(56.474304%, 54.710388%, 62.945557%)" stop-opacity="1"/>
<stop offset="0.238281" stop-color="rgb(56.819153%, 55.108643%, 63.273621%)" stop-opacity="1"/>
<stop offset="0.242188" stop-color="rgb(57.165527%, 55.508423%, 63.601685%)" stop-opacity="1"/>
<stop offset="0.246094" stop-color="rgb(57.510376%, 55.906677%, 63.929749%)" stop-opacity="1"/>
<stop offset="0.25" stop-color="rgb(57.85675%, 56.304932%, 64.257812%)" stop-opacity="1"/>
<stop offset="0.253906" stop-color="rgb(58.203125%, 56.703186%, 64.585876%)" stop-opacity="1"/>
<stop offset="0.257813" stop-color="rgb(58.5495%, 57.102966%, 64.91394%)" stop-opacity="1"/>
<stop offset="0.261719" stop-color="rgb(58.894348%, 57.501221%, 65.242004%)" stop-opacity="1"/>
<stop offset="0.265625" stop-color="rgb(59.240723%, 57.899475%, 65.570068%)" stop-opacity="1"/>
<stop offset="0.269531" stop-color="rgb(59.585571%, 58.297729%, 65.898132%)" stop-opacity="1"/>
<stop offset="0.273438" stop-color="rgb(59.931946%, 58.69751%, 66.226196%)" stop-opacity="1"/>
<stop offset="0.277344" stop-color="rgb(60.276794%, 59.095764%, 66.55426%)" stop-opacity="1"/>
<stop offset="0.28125" stop-color="rgb(60.623169%, 59.494019%, 66.882324%)" stop-opacity="1"/>
<stop offset="0.285156" stop-color="rgb(60.968018%, 59.892273%, 67.210388%)" stop-opacity="1"/>
<stop offset="0.289062" stop-color="rgb(61.314392%, 60.290527%, 67.538452%)" stop-opacity="1"/>
<stop offset="0.292969" stop-color="rgb(61.659241%, 60.688782%, 67.866516%)" stop-opacity="1"/>
<stop offset="0.296875" stop-color="rgb(62.005615%, 61.088562%, 68.19458%)" stop-opacity="1"/>
<stop offset="0.300781" stop-color="rgb(62.350464%, 61.486816%, 68.522644%)" stop-opacity="1"/>
<stop offset="0.304688" stop-color="rgb(62.696838%, 61.885071%, 68.850708%)" stop-opacity="1"/>
<stop offset="0.308594" stop-color="rgb(63.041687%, 62.283325%, 69.178772%)" stop-opacity="1"/>
<stop offset="0.3125" stop-color="rgb(63.388062%, 62.683105%, 69.506836%)" stop-opacity="1"/>
<stop offset="0.316406" stop-color="rgb(63.734436%, 63.08136%, 69.8349%)" stop-opacity="1"/>
<stop offset="0.320313" stop-color="rgb(64.080811%, 63.479614%, 70.162964%)" stop-opacity="1"/>
<stop offset="0.324219" stop-color="rgb(64.425659%, 63.877869%, 70.491028%)" stop-opacity="1"/>
<stop offset="0.328125" stop-color="rgb(64.772034%, 64.277649%, 70.819092%)" stop-opacity="1"/>
<stop offset="0.332031" stop-color="rgb(65.116882%, 64.675903%, 71.147156%)" stop-opacity="1"/>
<stop offset="0.335938" stop-color="rgb(65.463257%, 65.074158%, 71.47522%)" stop-opacity="1"/>
<stop offset="0.339844" stop-color="rgb(65.808105%, 65.472412%, 71.803284%)" stop-opacity="1"/>
<stop offset="0.34375" stop-color="rgb(66.15448%, 65.872192%, 72.131348%)" stop-opacity="1"/>
<stop offset="0.347656" stop-color="rgb(66.499329%, 66.270447%, 72.459412%)" stop-opacity="1"/>
<stop offset="0.351563" stop-color="rgb(66.845703%, 66.668701%, 72.787476%)" stop-opacity="1"/>
<stop offset="0.355469" stop-color="rgb(67.190552%, 67.066956%, 73.11554%)" stop-opacity="1"/>
<stop offset="0.359375" stop-color="rgb(67.536926%, 67.466736%, 73.443604%)" stop-opacity="1"/>
<stop offset="0.363281" stop-color="rgb(67.881775%, 67.86499%, 73.771667%)" stop-opacity="1"/>
<stop offset="0.367188" stop-color="rgb(68.228149%, 68.263245%, 74.099731%)" stop-opacity="1"/>
<stop offset="0.371094" stop-color="rgb(68.572998%, 68.661499%, 74.427795%)" stop-opacity="1"/>
<stop offset="0.375" stop-color="rgb(68.919373%, 69.061279%, 74.755859%)" stop-opacity="1"/>
<stop offset="0.378906" stop-color="rgb(69.264221%, 69.459534%, 75.083923%)" stop-opacity="1"/>
<stop offset="0.382812" stop-color="rgb(69.610596%, 69.857788%, 75.411987%)" stop-opacity="1"/>
<stop offset="0.386719" stop-color="rgb(69.95697%, 70.256042%, 75.740051%)" stop-opacity="1"/>
<stop offset="0.390625" stop-color="rgb(70.303345%, 70.655823%, 76.068115%)" stop-opacity="1"/>
<stop offset="0.394531" stop-color="rgb(70.648193%, 71.054077%, 76.396179%)" stop-opacity="1"/>
<stop offset="0.398438" stop-color="rgb(70.994568%, 71.452332%, 76.724243%)" stop-opacity="1"/>
<stop offset="0.402344" stop-color="rgb(71.339417%, 71.850586%, 77.052307%)" stop-opacity="1"/>
<stop offset="0.40625" stop-color="rgb(71.685791%, 72.250366%, 77.380371%)" stop-opacity="1"/>
<stop offset="0.410156" stop-color="rgb(72.03064%, 72.648621%, 77.708435%)" stop-opacity="1"/>
<stop offset="0.414063" stop-color="rgb(72.377014%, 73.046875%, 78.036499%)" stop-opacity="1"/>
<stop offset="0.417969" stop-color="rgb(72.721863%, 73.445129%, 78.364563%)" stop-opacity="1"/>
<stop offset="0.421875" stop-color="rgb(73.068237%, 73.843384%, 78.692627%)" stop-opacity="1"/>
<stop offset="0.425781" stop-color="rgb(73.413086%, 74.241638%, 79.020691%)" stop-opacity="1"/>
<stop offset="0.429688" stop-color="rgb(73.75946%, 74.641418%, 79.348755%)" stop-opacity="1"/>
<stop offset="0.433594" stop-color="rgb(74.104309%, 75.039673%, 79.676819%)" stop-opacity="1"/>
<stop offset="0.4375" stop-color="rgb(74.450684%, 75.437927%, 80.004883%)" stop-opacity="1"/>
<stop offset="0.441406" stop-color="rgb(74.795532%, 75.836182%, 80.332947%)" stop-opacity="1"/>
<stop offset="0.445313" stop-color="rgb(75.141907%, 76.235962%, 80.661011%)" stop-opacity="1"/>
<stop offset="0.449219" stop-color="rgb(75.413513%, 76.548767%, 80.917358%)" stop-opacity="1"/>
<stop offset="0.453125" stop-color="rgb(75.68512%, 76.861572%, 81.175232%)" stop-opacity="1"/>
<stop offset="0.46875" stop-color="rgb(75.68512%, 76.861572%, 81.175232%)" stop-opacity="1"/>
<stop offset="0.5" stop-color="rgb(75.68512%, 76.861572%, 81.175232%)" stop-opacity="1"/>
<stop offset="1" stop-color="rgb(75.68512%, 76.861572%, 81.175232%)" stop-opacity="1"/>
</linearGradient>
<clipPath id="clip-2">
<path clip-rule="nonzero" d="M 0 1280 L 3840 1280 L 3840 2160 L 0 2160 Z M 0 1280 "/>
</clipPath>
<clipPath id="clip-3">
<path clip-rule="nonzero" d="M 3839.628906 1280.347656 C 2559.75 1280.347656 1279.878906 1280.351562 0 1280.355469 L 0.0195312 1280.355469 L 0.0195312 2160 L 3839.640625 2159.914062 L 3839.640625 1280.347656 Z M 3839.628906 1280.347656 "/>
</clipPath>
<clipPath id="clip-4">
<path clip-rule="nonzero" d="M 3839.628906 1280.347656 C 2559.75 1280.347656 1279.878906 1280.351562 0 1280.355469 L 0.0195312 1280.355469 L 0.0195312 2160 L 3839.640625 2159.914062 L 3839.640625 1280.347656 Z M 3839.628906 1280.347656 "/>
</clipPath>
<linearGradient id="linear-pattern-1" gradientUnits="userSpaceOnUse" x1="1687.83" y1="2133.813333" x2="1687.83" y2="960.944" gradientTransform="matrix(0.75, 0, 0, 0.75, 1773.4, 559.64)">
<stop offset="0" stop-color="rgb(37.663269%, 35.05249%, 47.598267%)" stop-opacity="1"/>
<stop offset="0.0078125" stop-color="rgb(37.757874%, 35.157776%, 47.685242%)" stop-opacity="1"/>
<stop offset="0.015625" stop-color="rgb(37.945557%, 35.371399%, 47.860718%)" stop-opacity="1"/>
<stop offset="0.0234375" stop-color="rgb(38.13324%, 35.585022%, 48.036194%)" stop-opacity="1"/>
<stop offset="0.03125" stop-color="rgb(38.320923%, 35.797119%, 48.21167%)" stop-opacity="1"/>
<stop offset="0.0390625" stop-color="rgb(38.510132%, 36.010742%, 48.387146%)" stop-opacity="1"/>
<stop offset="0.046875" stop-color="rgb(38.697815%, 36.224365%, 48.562622%)" stop-opacity="1"/>
<stop offset="0.0546875" stop-color="rgb(38.885498%, 36.436462%, 48.738098%)" stop-opacity="1"/>
<stop offset="0.0625" stop-color="rgb(39.073181%, 36.650085%, 48.913574%)" stop-opacity="1"/>
<stop offset="0.0703125" stop-color="rgb(39.26239%, 36.863708%, 49.08905%)" stop-opacity="1"/>
<stop offset="0.078125" stop-color="rgb(39.450073%, 37.075806%, 49.264526%)" stop-opacity="1"/>
<stop offset="0.0859375" stop-color="rgb(39.637756%, 37.289429%, 49.440002%)" stop-opacity="1"/>
<stop offset="0.09375" stop-color="rgb(39.825439%, 37.503052%, 49.615479%)" stop-opacity="1"/>
<stop offset="0.101563" stop-color="rgb(40.014648%, 37.716675%, 49.790955%)" stop-opacity="1"/>
<stop offset="0.109375" stop-color="rgb(40.202332%, 37.928772%, 49.966431%)" stop-opacity="1"/>
<stop offset="0.117187" stop-color="rgb(40.390015%, 38.142395%, 50.141907%)" stop-opacity="1"/>
<stop offset="0.125" stop-color="rgb(40.577698%, 38.356018%, 50.317383%)" stop-opacity="1"/>
<stop offset="0.132812" stop-color="rgb(40.766907%, 38.568115%, 50.492859%)" stop-opacity="1"/>
<stop offset="0.140625" stop-color="rgb(40.95459%, 38.781738%, 50.668335%)" stop-opacity="1"/>
<stop offset="0.148438" stop-color="rgb(41.142273%, 38.995361%, 50.843811%)" stop-opacity="1"/>
<stop offset="0.15625" stop-color="rgb(41.329956%, 39.207458%, 51.019287%)" stop-opacity="1"/>
<stop offset="0.164062" stop-color="rgb(41.519165%, 39.421082%, 51.194763%)" stop-opacity="1"/>
<stop offset="0.171875" stop-color="rgb(41.706848%, 39.634705%, 51.370239%)" stop-opacity="1"/>
<stop offset="0.179688" stop-color="rgb(41.894531%, 39.846802%, 51.545715%)" stop-opacity="1"/>
<stop offset="0.1875" stop-color="rgb(42.082214%, 40.060425%, 51.721191%)" stop-opacity="1"/>
<stop offset="0.195312" stop-color="rgb(42.271423%, 40.274048%, 51.896667%)" stop-opacity="1"/>
<stop offset="0.203125" stop-color="rgb(42.459106%, 40.486145%, 52.072144%)" stop-opacity="1"/>
<stop offset="0.210938" stop-color="rgb(42.64679%, 40.699768%, 52.24762%)" stop-opacity="1"/>
<stop offset="0.21875" stop-color="rgb(42.834473%, 40.913391%, 52.423096%)" stop-opacity="1"/>
<stop offset="0.226563" stop-color="rgb(43.023682%, 41.125488%, 52.598572%)" stop-opacity="1"/>
<stop offset="0.234375" stop-color="rgb(43.211365%, 41.339111%, 52.774048%)" stop-opacity="1"/>
<stop offset="0.242188" stop-color="rgb(43.399048%, 41.552734%, 52.949524%)" stop-opacity="1"/>
<stop offset="0.25" stop-color="rgb(43.586731%, 41.764832%, 53.126526%)" stop-opacity="1"/>
<stop offset="0.257813" stop-color="rgb(43.77594%, 41.978455%, 53.302002%)" stop-opacity="1"/>
<stop offset="0.265625" stop-color="rgb(43.963623%, 42.192078%, 53.477478%)" stop-opacity="1"/>
<stop offset="0.273438" stop-color="rgb(44.151306%, 42.404175%, 53.652954%)" stop-opacity="1"/>
<stop offset="0.28125" stop-color="rgb(44.338989%, 42.617798%, 53.82843%)" stop-opacity="1"/>
<stop offset="0.289063" stop-color="rgb(44.528198%, 42.831421%, 54.003906%)" stop-opacity="1"/>
<stop offset="0.296875" stop-color="rgb(44.715881%, 43.045044%, 54.179382%)" stop-opacity="1"/>
<stop offset="0.304688" stop-color="rgb(44.903564%, 43.257141%, 54.354858%)" stop-opacity="1"/>
<stop offset="0.3125" stop-color="rgb(45.091248%, 43.470764%, 54.530334%)" stop-opacity="1"/>
<stop offset="0.320313" stop-color="rgb(45.280457%, 43.684387%, 54.705811%)" stop-opacity="1"/>
<stop offset="0.328125" stop-color="rgb(45.46814%, 43.896484%, 54.881287%)" stop-opacity="1"/>
<stop offset="0.335938" stop-color="rgb(45.655823%, 44.110107%, 55.056763%)" stop-opacity="1"/>
<stop offset="0.34375" stop-color="rgb(45.843506%, 44.32373%, 55.232239%)" stop-opacity="1"/>
<stop offset="0.351563" stop-color="rgb(46.032715%, 44.535828%, 55.407715%)" stop-opacity="1"/>
<stop offset="0.359375" stop-color="rgb(46.220398%, 44.749451%, 55.583191%)" stop-opacity="1"/>
<stop offset="0.367188" stop-color="rgb(46.408081%, 44.963074%, 55.758667%)" stop-opacity="1"/>
<stop offset="0.375" stop-color="rgb(46.595764%, 45.175171%, 55.934143%)" stop-opacity="1"/>
<stop offset="0.382813" stop-color="rgb(46.784973%, 45.388794%, 56.109619%)" stop-opacity="1"/>
<stop offset="0.390625" stop-color="rgb(46.972656%, 45.602417%, 56.285095%)" stop-opacity="1"/>
<stop offset="0.398438" stop-color="rgb(47.160339%, 45.814514%, 56.460571%)" stop-opacity="1"/>
<stop offset="0.40625" stop-color="rgb(47.348022%, 46.028137%, 56.636047%)" stop-opacity="1"/>
<stop offset="0.414063" stop-color="rgb(47.537231%, 46.24176%, 56.811523%)" stop-opacity="1"/>
<stop offset="0.421875" stop-color="rgb(47.724915%, 46.453857%, 56.987%)" stop-opacity="1"/>
<stop offset="0.429688" stop-color="rgb(47.912598%, 46.66748%, 57.162476%)" stop-opacity="1"/>
<stop offset="0.4375" stop-color="rgb(48.100281%, 46.881104%, 57.337952%)" stop-opacity="1"/>
<stop offset="0.445313" stop-color="rgb(48.28949%, 47.093201%, 57.513428%)" stop-opacity="1"/>
<stop offset="0.453125" stop-color="rgb(48.477173%, 47.306824%, 57.688904%)" stop-opacity="1"/>
<stop offset="0.460938" stop-color="rgb(48.664856%, 47.520447%, 57.86438%)" stop-opacity="1"/>
<stop offset="0.46875" stop-color="rgb(48.852539%, 47.73407%, 58.039856%)" stop-opacity="1"/>
<stop offset="0.476563" stop-color="rgb(49.041748%, 47.946167%, 58.215332%)" stop-opacity="1"/>
<stop offset="0.484375" stop-color="rgb(49.229431%, 48.15979%, 58.390808%)" stop-opacity="1"/>
<stop offset="0.492188" stop-color="rgb(49.417114%, 48.373413%, 58.566284%)" stop-opacity="1"/>
<stop offset="0.5" stop-color="rgb(49.604797%, 48.58551%, 58.743286%)" stop-opacity="1"/>
<stop offset="0.507813" stop-color="rgb(49.794006%, 48.799133%, 58.918762%)" stop-opacity="1"/>
<stop offset="0.515625" stop-color="rgb(49.981689%, 49.012756%, 59.094238%)" stop-opacity="1"/>
<stop offset="0.523438" stop-color="rgb(50.169373%, 49.224854%, 59.269714%)" stop-opacity="1"/>
<stop offset="0.53125" stop-color="rgb(50.357056%, 49.438477%, 59.44519%)" stop-opacity="1"/>
<stop offset="0.539063" stop-color="rgb(50.546265%, 49.6521%, 59.620667%)" stop-opacity="1"/>
<stop offset="0.546875" stop-color="rgb(50.733948%, 49.864197%, 59.796143%)" stop-opacity="1"/>
<stop offset="0.554688" stop-color="rgb(50.921631%, 50.07782%, 59.971619%)" stop-opacity="1"/>
<stop offset="0.5625" stop-color="rgb(51.109314%, 50.291443%, 60.147095%)" stop-opacity="1"/>
<stop offset="0.570313" stop-color="rgb(51.298523%, 50.50354%, 60.322571%)" stop-opacity="1"/>
<stop offset="0.578125" stop-color="rgb(51.486206%, 50.717163%, 60.498047%)" stop-opacity="1"/>
<stop offset="0.585938" stop-color="rgb(51.673889%, 50.930786%, 60.673523%)" stop-opacity="1"/>
<stop offset="0.59375" stop-color="rgb(51.861572%, 51.142883%, 60.848999%)" stop-opacity="1"/>
<stop offset="0.601563" stop-color="rgb(52.050781%, 51.356506%, 61.024475%)" stop-opacity="1"/>
<stop offset="0.609375" stop-color="rgb(52.238464%, 51.570129%, 61.199951%)" stop-opacity="1"/>
<stop offset="0.617188" stop-color="rgb(52.426147%, 51.782227%, 61.375427%)" stop-opacity="1"/>
<stop offset="0.625" stop-color="rgb(52.613831%, 51.99585%, 61.550903%)" stop-opacity="1"/>
<stop offset="0.632813" stop-color="rgb(52.80304%, 52.209473%, 61.726379%)" stop-opacity="1"/>
<stop offset="0.640625" stop-color="rgb(52.990723%, 52.423096%, 61.901855%)" stop-opacity="1"/>
<stop offset="0.648438" stop-color="rgb(53.178406%, 52.635193%, 62.077332%)" stop-opacity="1"/>
<stop offset="0.65625" stop-color="rgb(53.366089%, 52.848816%, 62.252808%)" stop-opacity="1"/>
<stop offset="0.664063" stop-color="rgb(53.555298%, 53.062439%, 62.428284%)" stop-opacity="1"/>
<stop offset="0.671875" stop-color="rgb(53.742981%, 53.274536%, 62.60376%)" stop-opacity="1"/>
<stop offset="0.679688" stop-color="rgb(53.930664%, 53.488159%, 62.779236%)" stop-opacity="1"/>
<stop offset="0.6875" stop-color="rgb(54.118347%, 53.701782%, 62.954712%)" stop-opacity="1"/>
<stop offset="0.695313" stop-color="rgb(54.307556%, 53.913879%, 63.130188%)" stop-opacity="1"/>
<stop offset="0.703125" stop-color="rgb(54.495239%, 54.127502%, 63.305664%)" stop-opacity="1"/>
<stop offset="0.710938" stop-color="rgb(54.682922%, 54.341125%, 63.48114%)" stop-opacity="1"/>
<stop offset="0.71875" stop-color="rgb(54.870605%, 54.553223%, 63.656616%)" stop-opacity="1"/>
<stop offset="0.726563" stop-color="rgb(55.059814%, 54.766846%, 63.832092%)" stop-opacity="1"/>
<stop offset="0.734375" stop-color="rgb(55.247498%, 54.980469%, 64.007568%)" stop-opacity="1"/>
<stop offset="0.742188" stop-color="rgb(55.435181%, 55.192566%, 64.183044%)" stop-opacity="1"/>
<stop offset="0.75" stop-color="rgb(55.622864%, 55.406189%, 64.360046%)" stop-opacity="1"/>
<stop offset="0.757813" stop-color="rgb(55.812073%, 55.619812%, 64.535522%)" stop-opacity="1"/>
<stop offset="0.765625" stop-color="rgb(55.999756%, 55.831909%, 64.710999%)" stop-opacity="1"/>
<stop offset="0.773438" stop-color="rgb(56.187439%, 56.045532%, 64.886475%)" stop-opacity="1"/>
<stop offset="0.78125" stop-color="rgb(56.375122%, 56.259155%, 65.061951%)" stop-opacity="1"/>
<stop offset="0.789063" stop-color="rgb(56.564331%, 56.471252%, 65.237427%)" stop-opacity="1"/>
<stop offset="0.796875" stop-color="rgb(56.752014%, 56.684875%, 65.412903%)" stop-opacity="1"/>
<stop offset="0.804688" stop-color="rgb(56.939697%, 56.898499%, 65.588379%)" stop-opacity="1"/>
<stop offset="0.8125" stop-color="rgb(57.12738%, 57.110596%, 65.763855%)" stop-opacity="1"/>
<stop offset="0.875" stop-color="rgb(57.237244%, 57.235718%, 65.866089%)" stop-opacity="1"/>
<stop offset="1" stop-color="rgb(57.254028%, 57.254028%, 65.881348%)" stop-opacity="1"/>
</linearGradient>
</defs>
<g clip-path="url(#clip-0)">
<g clip-path="url(#clip-1)">
<path fill-rule="nonzero" fill="url(#linear-pattern-0)" d="M 0.0195312 0 L 0.0195312 2160 L 3839.640625 2160 L 3839.640625 0 Z M 0.0195312 0 "/>
</g>
</g>
<path fill-rule="nonzero" fill="rgb(84.375%, 84.375%, 83.984375%)" fill-opacity="1" d="M 3534.730469 517.851562 C 3659.871094 517.851562 3761.308594 416.410156 3761.308594 291.269531 C 3761.308594 166.128906 3659.871094 64.691406 3534.730469 64.691406 C 3409.589844 64.691406 3308.148438 166.140625 3308.148438 291.269531 C 3308.148438 416.410156 3409.589844 517.851562 3534.730469 517.851562 Z M 3534.730469 517.851562 "/>
<path fill-rule="nonzero" fill="rgb(41.575623%, 39.208984%, 53.318787%)" fill-opacity="1" d="M 1122.621094 288.660156 L 1112.808594 289.019531 C 1086.199219 290.851562 1056.089844 299.820312 1022.46875 315.921875 C 858.765625 419.179688 750.851562 477.660156 698.726562 491.390625 C 688.597656 493 679.351562 493.800781 670.988281 493.800781 C 660.925781 493.800781 652.140625 492.640625 644.636719 490.300781 C 539.953125 442.359375 473.152344 417.121094 444.238281 414.589844 C 434.808594 412.910156 425.023438 412.078125 414.882812 412.078125 C 398.78125 412.078125 381.78125 414.179688 363.886719 418.390625 C 231.988281 472.589844 121.191406 527.480469 31.496094 583.050781 C 20.628906 590.5 10.128906 597.789062 0 604.929688 L 0.0195312 604.929688 L 0.0195312 2160 L 3839.640625 2159.914062 L 3839.640625 1028.308594 L 3839.671875 1028.308594 C 3782.910156 1000.621094 3727.839844 973.820312 3674.480469 947.910156 L 3674.5 947.910156 C 3674.488281 947.910156 3674.480469 947.910156 3674.460938 947.910156 L 3674.46875 947.910156 C 2977.769531 609.628906 2570.929688 423.128906 2453.949219 388.410156 C 2447.941406 381.589844 2408.910156 378.191406 2336.851562 378.191406 C 2333.808594 378.191406 2330.710938 378.191406 2327.558594 378.210938 C 2084.871094 407.070312 1902.480469 421.5 1780.390625 421.5 C 1739.761719 421.5 1705.800781 419.910156 1678.519531 416.710938 C 1677.460938 417.769531 1674.640625 418.308594 1670.089844 418.308594 C 1629.058594 418.308594 1446.570312 375.089844 1122.621094 288.660156 Z M 1122.621094 288.660156 "/>
<path fill-rule="nonzero" fill="rgb(45.872498%, 44.700623%, 56.834412%)" fill-opacity="1" d="M 1122.621094 288.660156 L 1112.808594 289.019531 C 1101.730469 289.78125 1090.039062 291.78125 1077.730469 295.019531 C 1083.71875 298.660156 1089.199219 302.738281 1094.179688 307.230469 C 1110.429688 325.171875 1118.898438 337.011719 1119.601562 342.761719 C 1123.648438 352 1126.640625 362.148438 1128.570312 373.199219 C 1126.199219 384.949219 1121.660156 395.570312 1114.921875 405.070312 C 1089.191406 422.210938 1073.921875 435.191406 1069.089844 444 C 1055.988281 467.238281 1040.179688 503.550781 1021.640625 552.941406 L 966.066406 630.621094 C 984.949219 624.308594 997.84375 620.410156 1004.738281 618.898438 C 1056.289062 613.378906 1087.238281 608.109375 1097.570312 603.089844 C 1133.011719 585.398438 1153.941406 573.699219 1160.359375 568 C 1178.210938 555.789062 1202.890625 534.609375 1234.421875 504.449219 C 1242.160156 498.890625 1249.238281 495.140625 1255.660156 493.191406 C 1316.558594 488.140625 1355.5 483.671875 1372.5 479.769531 L 1485.191406 442.101562 C 1502.070312 442.640625 1518.179688 442.910156 1533.53125 442.910156 C 1602.761719 442.910156 1656.441406 437.410156 1694.558594 426.421875 C 1700.679688 424.328125 1706.660156 422.070312 1712.511719 419.660156 C 1700.21875 418.910156 1688.890625 417.921875 1678.519531 416.710938 C 1677.460938 417.769531 1674.640625 418.308594 1670.089844 418.308594 C 1629.058594 418.308594 1446.570312 375.089844 1122.621094 288.660156 Z M 414.882812 412.078125 C 408.320312 412.078125 401.609375 412.429688 394.75 413.128906 C 418.464844 440.820312 426.652344 466.179688 419.3125 489.210938 C 413.949219 504.671875 408.847656 513.960938 404.007812 517.089844 C 367.902344 535.621094 349.914062 546.238281 350.050781 548.949219 C 338.175781 565.859375 321.21875 602.398438 299.183594 658.558594 C 263.199219 704.929688 241.003906 736.691406 232.601562 753.851562 C 220.507812 779.019531 212.550781 801.238281 208.726562 820.511719 C 206.394531 831.109375 204.679688 841.929688 203.585938 852.96875 C 201.917969 880.960938 201.660156 898.019531 202.804688 904.148438 C 206.097656 902.03125 208.722656 897.96875 210.679688 891.980469 L 230.28125 821.578125 C 234.03125 812.089844 241.476562 798.019531 252.625 779.359375 C 284.210938 740.25 316.277344 709.410156 348.824219 686.839844 L 391.222656 637.089844 C 397.664062 631.511719 405.167969 626.730469 413.722656 622.761719 L 673.3125 499.03125 C 676.777344 497.058594 680.125 495.140625 683.351562 493.269531 C 679.035156 493.621094 674.914062 493.800781 670.988281 493.800781 C 660.925781 493.800781 652.140625 492.640625 644.636719 490.300781 C 539.953125 442.359375 473.152344 417.121094 444.238281 414.589844 C 434.808594 412.910156 425.023438 412.078125 414.882812 412.078125 Z M 3714.179688 967.210938 L 3714.191406 967.210938 Z M 2388.449219 378.949219 C 2363.070312 438.03125 2352.71875 473.128906 2357.378906 484.238281 C 2358.101562 492.941406 2396.859375 532.070312 2473.671875 601.640625 C 2482.058594 614.960938 2484.699219 625.820312 2481.609375 634.199219 C 2477.019531 644.988281 2441.488281 678.011719 2375.039062 733.261719 C 2365.679688 742.609375 2352.671875 760.621094 2336 787.28125 C 2326.449219 802.390625 2303.488281 874.769531 2267.128906 1004.421875 L 2171.800781 1197.386719 C 2175.050781 1197.609375 2178.421875 1197.722656 2181.921875 1197.722656 C 2208.238281 1197.722656 2241.589844 1191.4375 2281.980469 1178.863281 C 2475.101562 1067.660156 2629 1002.058594 2743.679688 982.070312 C 2822.890625 971.011719 2883.859375 965.480469 2926.589844 965.480469 C 2936.820312 965.480469 2946 965.800781 2954.140625 966.429688 C 3006.769531 967.910156 3126.070312 986.910156 3312.058594 1023.429688 C 3343.171875 1026.96875 3371.359375 1028.75 3396.628906 1028.75 C 3418 1028.75 3437.269531 1027.480469 3454.460938 1024.941406 C 3492.460938 1020.96875 3553.691406 1009.730469 3638.140625 991.191406 C 3663.429688 986.308594 3686.191406 979.558594 3706.429688 970.949219 C 3709.140625 969.660156 3711.71875 968.410156 3714.179688 967.210938 L 3714.179688 967.21875 L 3714.179688 967.210938 L 3714.191406 967.210938 L 3714.199219 967.21875 L 3714.179688 967.210938 L 3714.191406 967.210938 C 3700.859375 960.71875 3687.621094 954.289062 3674.480469 947.910156 C 2977.78125 609.640625 2570.929688 423.128906 2453.949219 388.410156 C 2449.578125 383.449219 2427.75 380.300781 2388.46875 378.949219 Z M 2388.449219 378.949219 "/>
<path fill-rule="nonzero" fill="rgb(29.80957%, 27.830505%, 43.138123%)" fill-opacity="1" d="M 2714.121094 762.53125 C 2710.730469 762.53125 2707.441406 762.570312 2704.238281 762.660156 L 2700.140625 762.679688 L 2203.929688 851.828125 C 2199.71875 852.121094 2194.601562 852.269531 2188.558594 852.269531 C 2140.199219 852.269531 2033.238281 842.851562 1867.710938 824.019531 C 1859.671875 823.480469 1851.71875 823.210938 1843.859375 823.210938 C 1828.230469 823.210938 1812.96875 824.269531 1798.078125 826.390625 C 1596.058594 931.03125 1460.859375 989.160156 1392.460938 1000.78125 C 1372.679688 1003.21875 1355.140625 1004.429688 1339.851562 1004.429688 C 1322.769531 1004.429688 1308.488281 1002.910156 1297.019531 999.878906 C 1116.910156 939.210938 1009.859375 905.78125 975.863281 899.570312 C 912.347656 888.328125 834.089844 882.710938 741.097656 882.710938 C 727.445312 882.710938 713.476562 882.828125 699.191406 883.070312 C 665.769531 884.449219 618.339844 891.328125 556.910156 903.71875 C 365.472656 959.808594 179.835938 1004.019531 0 1036.371094 L 0.0195312 1036.371094 L 0.0195312 2160 L 3839.640625 2159.914062 L 3839.640625 958.160156 L 3839.671875 958.160156 C 3761.71875 956.921875 3694.449219 951.800781 3637.859375 942.808594 C 3525.128906 925.929688 3410.71875 905.679688 3294.628906 882.070312 C 3208.511719 866.25 3060.789062 831.460938 2851.46875 777.710938 C 2795.539062 767.589844 2749.75 762.53125 2714.121094 762.53125 Z M 2714.121094 762.53125 "/>
<path fill-rule="nonzero" fill="rgb(34.521484%, 32.93457%, 47.459412%)" fill-opacity="1" d="M 3649.539062 944.589844 L 3649.558594 944.589844 Z M 2714.121094 762.53125 C 2710.730469 762.53125 2707.441406 762.570312 2704.238281 762.660156 L 2700.140625 762.679688 L 2698.558594 762.960938 C 2749.089844 811.308594 2779.179688 859.71875 2788.820312 908.179688 L 2714.609375 965.671875 C 2650.890625 1082.039062 2612.328125 1146.691406 2598.910156 1159.621094 C 2583.679688 1175.847656 2547.640625 1204.8125 2490.789062 1246.507812 L 2788.378906 1156.140625 L 2788.398438 1156.140625 C 2814.910156 1131.96875 2836.238281 1115.351562 2852.390625 1106.289062 C 2868.851562 1095.589844 2897.378906 1082.109375 2937.980469 1065.820312 C 2960.25 1055.859375 3046.121094 1023.269531 3195.609375 968.070312 C 3244.171875 951.839844 3291.570312 943.308594 3337.800781 942.480469 C 3340.070312 942.378906 3342.761719 942.328125 3345.871094 942.328125 C 3374.488281 942.328125 3438.519531 946.390625 3537.980469 954.511719 C 3541.53125 954.558594 3545.019531 954.578125 3548.421875 954.578125 C 3572.160156 954.578125 3592.230469 953.390625 3608.628906 951.019531 C 3621.410156 949.730469 3635.039062 947.589844 3649.53125 944.589844 L 3649.539062 944.589844 L 3649.53125 944.589844 L 3649.550781 944.589844 L 3649.53125 944.589844 C 3645.589844 944.011719 3641.699219 943.421875 3637.859375 942.808594 C 3525.128906 925.929688 3410.71875 905.679688 3294.628906 882.070312 C 3208.511719 866.25 3060.789062 831.460938 2851.46875 777.710938 C 2795.539062 767.589844 2749.75 762.53125 2714.121094 762.53125 Z M 741.097656 882.710938 C 727.445312 882.710938 713.476562 882.828125 699.191406 883.070312 C 697.613281 883.140625 696 883.210938 694.359375 883.308594 C 711.441406 890.128906 724.925781 898.449219 734.808594 908.28125 C 753.226562 932.589844 759.757812 952.71875 754.398438 968.671875 C 750.046875 978.550781 744.8125 986.179688 738.683594 991.578125 C 680.113281 1039.199219 653.753906 1063.019531 659.605469 1063.019531 C 659.632812 1063.019531 659.660156 1063.019531 659.6875 1063.019531 L 659.691406 1063.019531 C 652.957031 1074.519531 651.515625 1116.46875 655.375 1188.875 L 647.328125 1219.128906 C 645.582031 1223.710938 639.082031 1233.734375 627.832031 1249.195312 C 636.226562 1244.996094 643.238281 1240.621094 648.871094 1236.066406 C 662.066406 1226.117188 690.433594 1194.753906 733.964844 1141.980469 C 750.066406 1128.871094 763.113281 1119.710938 773.105469 1114.480469 C 776.433594 1112.738281 779.425781 1111.441406 782.078125 1110.570312 C 791.957031 1107.429688 801.132812 1105.128906 809.601562 1103.691406 C 842.683594 1102.261719 862.050781 1100.871094 867.703125 1099.539062 C 912.523438 1080.488281 941.53125 1070.019531 954.722656 1068.121094 C 979.441406 1066.070312 1001.390625 1064.800781 1020.558594 1064.308594 C 1022.589844 1064.25 1025.949219 1064.21875 1030.648438 1064.21875 C 1045.691406 1064.21875 1074.421875 1064.53125 1116.839844 1065.140625 L 1148.71875 1063.621094 L 1148.730469 1063.628906 C 1156.058594 1061.300781 1169.019531 1055.859375 1187.621094 1047.300781 C 1191.789062 1045.609375 1198.691406 1043.859375 1208.328125 1042.039062 C 1214.050781 1041.210938 1218.320312 1040.75 1221.160156 1040.640625 C 1222.828125 1040.828125 1225.441406 1040.929688 1229 1040.929688 C 1241.089844 1040.929688 1264.101562 1039.820312 1298.03125 1037.601562 L 1298.039062 1037.601562 L 1327.601562 1023.359375 C 1339.359375 1016.640625 1350.710938 1010.089844 1361.640625 1003.710938 C 1353.929688 1004.191406 1346.660156 1004.429688 1339.851562 1004.429688 C 1322.769531 1004.429688 1308.488281 1002.910156 1297.019531 999.878906 C 1116.910156 939.210938 1009.859375 905.78125 975.863281 899.570312 C 912.347656 888.328125 834.089844 882.710938 741.097656 882.710938 Z M 741.097656 882.710938 "/>
<g clip-path="url(#clip-2)">
<g clip-path="url(#clip-3)">
<g clip-path="url(#clip-4)">
<path fill-rule="nonzero" fill="url(#linear-pattern-1)" d="M 0 1280.347656 L 0 2160 L 3839.640625 2160 L 3839.640625 1280.347656 Z M 0 1280.347656 "/>
</g>
</g>
</g>
<path fill-rule="nonzero" fill="rgb(48.242188%, 46.263123%, 58.006287%)" fill-opacity="1" d="M 2721.910156 1280.347656 L 2721.910156 1280.351562 C 1814.609375 1280.351562 907.304688 1280.351562 0 1280.355469 L 0.0195312 1280.355469 L 0.0195312 1582.355469 L 0.0351562 1582.355469 C 8.261719 1584.875 16.765625 1587.402344 25.75 1589.8125 C 118.320312 1614.644531 232.628906 1639.578125 370.347656 1662.238281 C 384.617188 1664.585938 399.34375 1664.898438 413.253906 1664.898438 C 416.640625 1664.898438 419.976562 1664.878906 423.242188 1664.867188 C 433.765625 1664.828125 443.835938 1664.140625 453.714844 1663.640625 C 483.648438 1662.117188 552.644531 1650.515625 661.480469 1629.183594 C 668.898438 1627.726562 678.308594 1627.570312 688.695312 1627.535156 C 690.210938 1627.53125 691.765625 1627.523438 693.347656 1627.523438 C 700.753906 1627.523438 708.835938 1627.644531 717.289062 1628.515625 C 771.183594 1634.066406 879.90625 1661.421875 1049.890625 1705.308594 C 1082.609375 1713.753906 1115.25 1716.1875 1142.53125 1716.890625 L 1152.589844 1717.007812 C 1483.199219 1677.371094 1668.320312 1657.597656 1709.878906 1657.449219 C 1710.03125 1657.449219 1710.179688 1657.449219 1710.328125 1657.449219 C 1714.679688 1657.449219 1717.371094 1657.671875 1718.421875 1658.121094 C 1746.011719 1656.613281 1780.351562 1655.785156 1821.421875 1655.636719 C 1825.769531 1655.621094 1830.191406 1655.613281 1834.679688 1655.613281 C 1957.660156 1655.613281 2136.828125 1661.441406 2371.828125 1672.640625 C 2372.800781 1672.6875 2373.769531 1672.703125 2374.730469 1672.703125 C 2376.890625 1672.703125 2379.019531 1672.621094 2381.128906 1672.613281 C 2453.128906 1672.339844 2492.050781 1670.703125 2497.960938 1667.695312 C 2614.058594 1652.078125 3014.101562 1569.570312 3688.378906 1422.316406 L 3688.378906 1422.3125 C 3688.390625 1422.3125 3688.390625 1422.3125 3688.390625 1422.3125 L 3688.410156 1422.3125 L 3688.421875 1422.316406 L 3688.410156 1422.3125 L 3688.398438 1422.3125 C 3737.390625 1411.613281 3787.761719 1400.535156 3839.628906 1389.195312 L 3839.640625 1389.195312 L 3839.640625 1280.347656 L 3839.671875 1280.351562 C 3469.800781 1280.347656 3097.230469 1280.347656 2721.929688 1280.347656 Z M 2721.910156 1280.347656 "/>
<path fill-rule="nonzero" fill="rgb(42.747498%, 41.184998%, 53.318787%)" fill-opacity="1" d="M 2737.101562 1280.347656 C 1824.730469 1280.351562 912.367188 1280.351562 0 1280.355469 L 0.0195312 1280.355469 L 0.0195312 1388.363281 L 0.0351562 1388.363281 C 185.601562 1402.460938 376.632812 1421.71875 573.121094 1446.136719 C 636.277344 1451.503906 685.03125 1454.464844 719.378906 1455.015625 C 730.835938 1455.082031 742.09375 1455.113281 753.148438 1455.113281 C 756.25 1455.113281 759.335938 1455.109375 762.410156 1455.105469 C 857.734375 1454.949219 937.886719 1452.339844 1002.859375 1447.285156 C 1037.578125 1444.5 1146.558594 1429.679688 1329.789062 1402.8125 C 1341.410156 1401.46875 1355.878906 1400.789062 1373.199219 1400.769531 C 1373.449219 1400.769531 1373.710938 1400.769531 1373.960938 1400.769531 C 1389.28125 1400.769531 1406.789062 1401.28125 1426.511719 1402.304688 C 1495.71875 1407.304688 1632.449219 1432.511719 1836.691406 1477.929688 C 1851.210938 1478.796875 1866.058594 1479.234375 1881.25 1479.234375 C 1881.75 1479.234375 1882.25 1479.230469 1882.761719 1479.230469 C 1890.660156 1479.214844 1898.640625 1479.085938 1906.71875 1478.835938 C 2072.488281 1470.3125 2179.539062 1466.011719 2227.871094 1465.921875 C 2228.371094 1465.921875 2228.859375 1465.921875 2229.351562 1465.921875 C 2234.738281 1465.921875 2239.359375 1465.976562 2243.21875 1466.089844 L 2737.46875 1503.851562 L 2741.53125 1503.847656 C 2744.121094 1503.875 2746.769531 1503.890625 2749.480469 1503.890625 C 2750.089844 1503.890625 2750.691406 1503.890625 2751.300781 1503.886719 C 2786.539062 1503.8125 2831.691406 1501.519531 2886.75 1497.015625 C 3091.628906 1473.394531 3236.058594 1458.105469 3320.03125 1451.144531 C 3432.789062 1440.8125 3543.769531 1431.949219 3652.988281 1424.550781 C 3705.601562 1420.769531 3767.808594 1418.515625 3839.628906 1417.785156 L 3839.640625 1417.785156 L 3839.640625 1280.347656 L 3839.671875 1280.351562 C 3474.140625 1280.347656 3106.628906 1280.347656 2737.121094 1280.347656 Z M 2737.101562 1280.347656 "/>
<path fill-rule="nonzero" fill="rgb(21.166992%, 19.604492%, 34.521484%)" fill-opacity="1" d="M 3355.460938 1052.488281 C 3355.078125 1052.511719 3354.808594 1052.730469 3354.71875 1053.039062 C 3343.910156 1089.710938 3332.71875 1126.070312 3317.03125 1155.070312 C 3300.730469 1185.234375 3279.621094 1207.382812 3258.519531 1229.039062 C 3258.308594 1229.257812 3258.25 1229.585938 3258.371094 1229.867188 C 3258.449219 1230.070312 3258.609375 1230.21875 3258.808594 1230.289062 C 3260.558594 1231.238281 3262.429688 1232.082031 3264.730469 1232.726562 C 3268.621094 1233.808594 3273.71875 1234.355469 3279.078125 1234.925781 C 3279.75 1234.996094 3280.339844 1235.382812 3280.679688 1235.972656 C 3281.011719 1236.558594 3281.039062 1237.265625 3280.75 1237.886719 L 3280.691406 1238.03125 C 3275.761719 1248.695312 3270.738281 1259.519531 3259.699219 1273.765625 C 3251.070312 1284.914062 3238.75 1298.160156 3225.679688 1311.808594 C 3225.429688 1312.074219 3225.398438 1312.484375 3225.621094 1312.785156 C 3225.761719 1312.992188 3226 1313.097656 3226.230469 1313.097656 C 3226.351562 1313.097656 3226.460938 1313.078125 3226.558594 1313.023438 L 3252.539062 1300.578125 C 3252.820312 1300.441406 3253.128906 1300.375 3253.441406 1300.375 C 3254.039062 1300.375 3254.621094 1300.632812 3255.019531 1301.105469 C 3255.640625 1301.820312 3255.699219 1302.863281 3255.171875 1303.640625 L 3255.101562 1303.742188 C 3245.488281 1317.902344 3235.808594 1332.164062 3222.988281 1347.191406 C 3211.929688 1360.152344 3198.550781 1373.683594 3184.898438 1387.238281 C 3184.660156 1387.472656 3184.609375 1387.835938 3184.761719 1388.132812 C 3184.890625 1388.386719 3185.160156 1388.539062 3185.441406 1388.539062 C 3185.480469 1388.539062 3185.53125 1388.539062 3185.578125 1388.527344 C 3191.578125 1387.359375 3197.320312 1386.109375 3202.429688 1384.582031 C 3209.960938 1382.328125 3216.128906 1379.460938 3222.398438 1376.53125 L 3222.621094 1376.429688 C 3222.898438 1376.296875 3223.199219 1376.234375 3223.5 1376.234375 C 3224.039062 1376.234375 3224.578125 1376.445312 3224.980469 1376.847656 C 3225.601562 1377.46875 3225.769531 1378.417969 3225.390625 1379.214844 L 3225.339844 1379.335938 L 3225.28125 1379.460938 C 3216.378906 1398.492188 3207.371094 1417.734375 3194.070312 1435.492188 C 3182.769531 1450.578125 3168.410156 1464.554688 3153.691406 1478.257812 C 3153.429688 1478.492188 3153.371094 1478.871094 3153.539062 1479.179688 C 3153.679688 1479.433594 3153.929688 1479.578125 3154.210938 1479.578125 C 3154.269531 1479.578125 3154.328125 1479.574219 3154.390625 1479.558594 C 3164.46875 1477.066406 3174.140625 1474.261719 3182.671875 1470.164062 C 3194.121094 1464.667969 3203.578125 1456.800781 3213.261719 1448.738281 C 3213.640625 1448.421875 3214.121094 1448.257812 3214.589844 1448.257812 C 3215 1448.257812 3215.390625 1448.371094 3215.75 1448.601562 C 3216.519531 1449.105469 3216.859375 1450.0625 3216.601562 1450.945312 L 3216.539062 1451.136719 C 3212.460938 1464.929688 3208.238281 1479.117188 3194.480469 1493.925781 C 3182.820312 1506.476562 3164.289062 1519.46875 3144.96875 1532.394531 C 3139.28125 1516.007812 3134.109375 1498.824219 3129.019531 1481.566406 C 3128.910156 1481.1875 3128.609375 1480.960938 3128.269531 1480.960938 C 3127.898438 1480.988281 3127.628906 1481.203125 3127.53125 1481.511719 C 3116.730469 1518.183594 3105.53125 1554.542969 3089.851562 1583.546875 C 3073.550781 1613.710938 3052.441406 1635.863281 3031.339844 1657.511719 C 3031.121094 1657.734375 3031.058594 1658.058594 3031.179688 1658.34375 C 3031.269531 1658.542969 3031.429688 1658.691406 3031.621094 1658.761719 C 3033.371094 1659.710938 3035.238281 1660.554688 3037.550781 1661.203125 C 3041.441406 1662.28125 3046.539062 1662.832031 3051.890625 1663.398438 C 3052.558594 1663.46875 3053.160156 1663.859375 3053.488281 1664.445312 C 3053.820312 1665.035156 3053.851562 1665.746094 3053.570312 1666.359375 L 3053.5 1666.507812 C 3048.570312 1677.167969 3043.558594 1687.992188 3032.519531 1702.242188 C 3023.890625 1713.390625 3011.570312 1726.636719 2998.5 1740.285156 C 2998.25 1740.550781 2998.21875 1740.960938 2998.429688 1741.257812 C 2998.578125 1741.460938 2998.808594 1741.574219 2999.050781 1741.574219 C 2999.160156 1741.574219 2999.269531 1741.554688 2999.378906 1741.5 L 3025.351562 1729.054688 C 3025.640625 1728.914062 3025.949219 1728.851562 3026.25 1728.851562 C 3026.851562 1728.851562 3027.429688 1729.101562 3027.839844 1729.578125 C 3028.460938 1730.296875 3028.519531 1731.335938 3027.980469 1732.113281 L 3027.921875 1732.21875 C 3018.308594 1746.375 3008.621094 1760.640625 2995.808594 1775.664062 C 2984.75 1788.628906 2971.371094 1802.160156 2957.71875 1815.710938 C 2957.480469 1815.949219 2957.421875 1816.3125 2957.578125 1816.609375 C 2957.710938 1816.863281 2957.96875 1817.015625 2958.25 1817.015625 C 2958.300781 1817.015625 2958.351562 1817.011719 2958.390625 1817.003906 C 2964.390625 1815.835938 2970.140625 1814.585938 2975.25 1813.058594 C 2982.78125 1810.800781 2988.949219 1807.9375 2995.21875 1805.007812 L 2995.429688 1804.902344 C 2995.71875 1804.773438 2996.019531 1804.707031 2996.320312 1804.707031 C 2996.859375 1804.707031 2997.390625 1804.921875 2997.800781 1805.320312 C 2998.421875 1805.941406 2998.578125 1806.890625 2998.210938 1807.6875 L 2998.089844 1807.9375 C 2989.199219 1826.96875 2980.179688 1846.210938 2966.890625 1863.964844 C 2958.921875 1874.613281 2949.421875 1884.699219 2939.351562 1894.527344 C 2932.589844 1884.875 2926.171875 1874.636719 2920.21875 1863.621094 C 2898.71875 1823.84375 2883.351562 1773.984375 2868.53125 1723.691406 C 2868.378906 1723.175781 2867.96875 1722.863281 2867.511719 1722.863281 C 2867 1722.886719 2866.621094 1723.183594 2866.488281 1723.617188 C 2851.660156 1773.9375 2836.300781 1823.828125 2814.789062 1863.621094 C 2799.378906 1892.140625 2780.839844 1915.433594 2761.320312 1936.890625 C 2761.289062 1936.792969 2761.230469 1936.710938 2761.160156 1936.636719 C 2748.101562 1922.984375 2735.78125 1909.738281 2727.140625 1898.59375 C 2716.070312 1884.289062 2711.050781 1873.4375 2706.101562 1862.726562 C 2705.808594 1862.089844 2705.839844 1861.382812 2706.171875 1860.796875 C 2706.511719 1860.210938 2707.101562 1859.824219 2707.769531 1859.75 C 2713.140625 1859.183594 2718.261719 1858.632812 2722.121094 1857.550781 C 2724.429688 1856.914062 2726.289062 1856.066406 2728.039062 1855.125 C 2728.261719 1855.03125 2728.421875 1854.871094 2728.5 1854.667969 C 2728.601562 1854.390625 2728.53125 1854.082031 2728.328125 1853.863281 C 2707.230469 1832.210938 2686.109375 1810.0625 2669.808594 1779.894531 C 2654.140625 1750.90625 2642.949219 1714.574219 2632.148438 1677.914062 C 2632.039062 1677.542969 2631.738281 1677.320312 2631.398438 1677.320312 C 2631.03125 1677.339844 2630.75 1677.558594 2630.660156 1677.863281 C 2619.859375 1714.539062 2608.660156 1750.898438 2592.980469 1779.898438 C 2576.679688 1810.0625 2555.570312 1832.214844 2534.46875 1853.867188 C 2534.25 1854.085938 2534.191406 1854.410156 2534.308594 1854.695312 C 2534.390625 1854.894531 2534.558594 1855.046875 2534.75 1855.113281 C 2536.5 1856.066406 2538.371094 1856.910156 2540.679688 1857.550781 C 2544.570312 1858.636719 2549.671875 1859.1875 2555.019531 1859.753906 C 2555.691406 1859.824219 2556.289062 1860.210938 2556.621094 1860.796875 C 2556.949219 1861.382812 2556.980469 1862.09375 2556.699219 1862.714844 L 2556.628906 1862.863281 C 2551.710938 1873.523438 2546.679688 1884.34375 2535.648438 1898.59375 C 2527.019531 1909.746094 2514.699219 1922.984375 2501.628906 1936.636719 C 2501.378906 1936.90625 2501.339844 1937.316406 2501.558594 1937.613281 C 2501.710938 1937.8125 2501.941406 1937.925781 2502.179688 1937.925781 C 2502.289062 1937.925781 2502.398438 1937.902344 2502.511719 1937.847656 L 2528.480469 1925.40625 C 2528.769531 1925.273438 2529.070312 1925.203125 2529.378906 1925.203125 C 2529.980469 1925.203125 2530.558594 1925.457031 2530.96875 1925.929688 C 2531.589844 1926.648438 2531.640625 1927.691406 2531.121094 1928.476562 L 2531.050781 1928.570312 C 2521.441406 1942.726562 2511.75 1956.992188 2498.929688 1972.019531 C 2490.558594 1981.835938 2480.859375 1991.972656 2470.710938 2002.199219 C 2468.730469 1998.957031 2466.808594 1995.621094 2464.949219 1992.171875 C 2449.28125 1963.1875 2438.089844 1926.851562 2427.28125 1890.195312 C 2427.171875 1889.820312 2426.878906 1889.59375 2426.539062 1889.59375 C 2426.160156 1889.617188 2425.890625 1889.832031 2425.800781 1890.140625 C 2414.988281 1926.8125 2403.789062 1963.171875 2388.121094 1992.171875 C 2372.839844 2020.429688 2353.359375 2041.652344 2333.609375 2062.019531 C 2327.28125 2053.480469 2321.589844 2045.109375 2315.941406 2036.773438 C 2315.378906 2035.941406 2315.441406 2034.90625 2316.058594 2034.195312 C 2316.46875 2033.71875 2317.050781 2033.464844 2317.640625 2033.464844 C 2317.949219 2033.464844 2318.261719 2033.53125 2318.550781 2033.675781 L 2344.519531 2046.113281 C 2344.621094 2046.160156 2344.730469 2046.1875 2344.839844 2046.1875 C 2344.980469 2046.1875 2345.128906 2046.148438 2345.25 2046.070312 C 2345.46875 2045.933594 2345.601562 2045.695312 2345.609375 2045.433594 C 2345.609375 2045.222656 2345.53125 2045.039062 2345.390625 2044.902344 C 2332.328125 2031.25 2320.011719 2018.003906 2311.378906 2006.859375 C 2300.289062 1992.550781 2295.28125 1981.699219 2290.328125 1970.988281 C 2290.039062 1970.359375 2290.070312 1969.648438 2290.398438 1969.0625 C 2290.730469 1968.472656 2291.328125 1968.082031 2292 1968.011719 C 2297.378906 1967.441406 2302.488281 1966.894531 2306.351562 1965.8125 C 2308.648438 1965.175781 2310.519531 1964.332031 2312.269531 1963.382812 C 2312.488281 1963.292969 2312.648438 1963.136719 2312.730469 1962.929688 C 2312.828125 1962.65625 2312.769531 1962.339844 2312.558594 1962.128906 C 2291.460938 1940.472656 2270.339844 1918.324219 2254.039062 1888.15625 C 2238.378906 1859.167969 2227.179688 1822.835938 2216.378906 1786.179688 C 2216.269531 1785.804688 2215.96875 1785.582031 2215.628906 1785.582031 C 2215.261719 1785.601562 2214.980469 1785.816406 2214.890625 1786.125 C 2204.089844 1822.800781 2192.890625 1859.160156 2177.210938 1888.160156 C 2161.539062 1917.15625 2141.429688 1938.738281 2121.160156 1959.597656 C 2108.929688 1946.503906 2097.820312 1934.039062 2089.308594 1923.0625 C 2074.109375 1903.429688 2067.230469 1888.539062 2060.441406 1873.84375 C 2060.039062 1872.976562 2060.078125 1872 2060.53125 1871.195312 C 2060.988281 1870.386719 2061.808594 1869.859375 2062.730469 1869.761719 C 2070.101562 1868.976562 2077.121094 1868.226562 2082.410156 1866.742188 C 2085.578125 1865.859375 2088.140625 1864.703125 2090.550781 1863.402344 C 2090.839844 1863.285156 2091.058594 1863.066406 2091.160156 1862.78125 C 2091.308594 1862.402344 2091.21875 1861.972656 2090.929688 1861.683594 C 2061.980469 1831.972656 2033.011719 1801.574219 2010.640625 1760.183594 C 1989.140625 1720.40625 1973.78125 1670.546875 1958.960938 1620.25 C 1958.808594 1619.734375 1958.398438 1619.425781 1957.929688 1619.425781 C 1957.429688 1619.445312 1957.050781 1619.75 1956.921875 1620.175781 C 1942.089844 1670.5 1926.730469 1720.386719 1905.21875 1760.183594 C 1882.851562 1801.582031 1853.878906 1831.972656 1824.921875 1861.683594 C 1824.628906 1861.988281 1824.550781 1862.4375 1824.710938 1862.820312 C 1824.820312 1863.097656 1825.050781 1863.304688 1825.308594 1863.402344 C 1827.710938 1864.707031 1830.28125 1865.859375 1833.449219 1866.746094 C 1838.78125 1868.226562 1845.78125 1868.980469 1853.128906 1869.761719 C 1854.050781 1869.855469 1854.871094 1870.390625 1855.320312 1871.195312 C 1855.78125 1872.003906 1855.820312 1872.976562 1855.429688 1873.820312 L 1855.339844 1874.023438 C 1848.578125 1888.660156 1841.691406 1903.511719 1826.539062 1923.0625 C 1821.140625 1930.039062 1814.679688 1937.617188 1807.558594 1945.570312 C 1804.261719 1939.675781 1801.75 1934.246094 1799.25 1928.847656 C 1798.96875 1928.21875 1798.988281 1927.507812 1799.328125 1926.921875 C 1799.660156 1926.335938 1800.25 1925.941406 1800.929688 1925.867188 C 1806.300781 1925.300781 1811.410156 1924.753906 1815.269531 1923.675781 C 1817.578125 1923.027344 1819.449219 1922.1875 1821.199219 1921.238281 C 1821.410156 1921.148438 1821.570312 1920.988281 1821.648438 1920.785156 C 1821.75 1920.507812 1821.691406 1920.195312 1821.480469 1919.984375 C 1800.378906 1898.332031 1779.269531 1876.1875 1762.96875 1846.019531 C 1747.300781 1817.027344 1736.109375 1780.695312 1725.300781 1744.039062 C 1725.191406 1743.660156 1724.890625 1743.4375 1724.558594 1743.4375 C 1724.179688 1743.460938 1723.910156 1743.675781 1723.820312 1743.984375 C 1713.011719 1780.660156 1701.808594 1817.015625 1686.140625 1846.019531 C 1677.230469 1862.503906 1666.890625 1876.59375 1655.890625 1889.511719 C 1644.269531 1872.9375 1635.980469 1855.234375 1627.789062 1837.707031 L 1627.730469 1837.585938 C 1627.359375 1836.789062 1627.519531 1835.839844 1628.140625 1835.214844 C 1628.550781 1834.824219 1629.078125 1834.601562 1629.628906 1834.601562 C 1629.929688 1834.601562 1630.230469 1834.671875 1630.511719 1834.800781 L 1630.71875 1834.902344 C 1637 1837.835938 1643.171875 1840.703125 1650.691406 1842.957031 C 1655.828125 1844.488281 1661.558594 1845.734375 1667.539062 1846.902344 C 1667.609375 1846.910156 1667.648438 1846.914062 1667.691406 1846.914062 C 1667.859375 1846.914062 1668.039062 1846.851562 1668.171875 1846.738281 C 1668.351562 1846.59375 1668.449219 1846.378906 1668.449219 1846.152344 C 1668.449219 1845.949219 1668.371094 1845.753906 1668.230469 1845.609375 C 1654.601562 1832.082031 1641.238281 1818.582031 1630.199219 1805.636719 C 1617.300781 1790.511719 1607.609375 1776.230469 1597.980469 1762.054688 C 1597.429688 1761.222656 1597.488281 1760.183594 1598.101562 1759.472656 C 1598.511719 1759.003906 1599.089844 1758.742188 1599.691406 1758.742188 C 1599.988281 1758.742188 1600.300781 1758.8125 1600.589844 1758.957031 L 1626.558594 1771.398438 C 1626.660156 1771.449219 1626.78125 1771.472656 1626.890625 1771.472656 C 1627.03125 1771.472656 1627.171875 1771.425781 1627.300781 1771.355469 C 1627.519531 1771.21875 1627.648438 1770.976562 1627.648438 1770.71875 C 1627.648438 1770.503906 1627.570312 1770.316406 1627.441406 1770.183594 C 1614.371094 1756.527344 1602.058594 1743.285156 1593.421875 1732.140625 C 1582.339844 1717.835938 1577.320312 1706.980469 1572.378906 1696.277344 C 1572.089844 1695.640625 1572.109375 1694.929688 1572.449219 1694.339844 C 1572.78125 1693.757812 1573.378906 1693.367188 1574.050781 1693.292969 C 1579.421875 1692.722656 1584.539062 1692.179688 1588.390625 1691.101562 C 1590.699219 1690.453125 1592.570312 1689.609375 1594.328125 1688.660156 C 1594.539062 1688.566406 1594.691406 1688.417969 1594.769531 1688.210938 C 1594.878906 1687.941406 1594.808594 1687.625 1594.609375 1687.410156 C 1573.5 1665.753906 1552.390625 1643.605469 1536.089844 1613.441406 C 1520.421875 1584.449219 1509.230469 1548.121094 1498.429688 1511.460938 C 1498.308594 1511.085938 1498.019531 1510.863281 1497.679688 1510.863281 C 1497.308594 1510.886719 1497.03125 1511.097656 1496.941406 1511.410156 C 1486.128906 1548.085938 1474.941406 1584.445312 1459.261719 1613.445312 C 1444.738281 1640.3125 1426.410156 1660.816406 1407.660156 1680.28125 C 1394.550781 1663.808594 1383.769531 1647.917969 1373.050781 1632.125 C 1372.289062 1630.976562 1372.371094 1629.558594 1373.210938 1628.589844 C 1373.769531 1627.941406 1374.570312 1627.585938 1375.390625 1627.585938 C 1375.808594 1627.585938 1376.230469 1627.679688 1376.628906 1627.871094 L 1412.261719 1644.945312 C 1412.398438 1645.011719 1412.558594 1645.050781 1412.710938 1645.050781 C 1412.910156 1645.050781 1413.101562 1644.992188 1413.269531 1644.886719 C 1413.570312 1644.699219 1413.761719 1644.363281 1413.761719 1644.011719 C 1413.761719 1643.722656 1413.648438 1643.46875 1413.46875 1643.273438 C 1395.539062 1624.542969 1378.628906 1606.371094 1366.789062 1591.074219 C 1351.589844 1571.449219 1344.699219 1556.554688 1337.910156 1541.859375 C 1337.511719 1540.996094 1337.558594 1540.019531 1338.011719 1539.21875 C 1338.46875 1538.414062 1339.289062 1537.878906 1340.199219 1537.777344 C 1347.570312 1536.996094 1354.589844 1536.246094 1359.890625 1534.765625 C 1363.058594 1533.878906 1365.628906 1532.71875 1368.039062 1531.414062 C 1368.308594 1531.300781 1368.53125 1531.082031 1368.640625 1530.800781 C 1368.78125 1530.417969 1368.691406 1529.992188 1368.410156 1529.703125 C 1339.460938 1499.992188 1310.488281 1469.597656 1288.121094 1428.203125 C 1266.621094 1388.429688 1251.261719 1338.570312 1236.441406 1288.269531 C 1236.28125 1287.75 1235.878906 1287.445312 1235.410156 1287.445312 C 1234.910156 1287.46875 1234.519531 1287.769531 1234.390625 1288.195312 C 1219.570312 1338.519531 1204.199219 1388.40625 1182.691406 1428.203125 C 1160.320312 1469.597656 1131.359375 1499.992188 1102.398438 1529.703125 C 1102.109375 1530.007812 1102.019531 1530.453125 1102.179688 1530.839844 C 1102.300781 1531.113281 1102.519531 1531.320312 1102.789062 1531.414062 C 1105.191406 1532.726562 1107.75 1533.878906 1110.921875 1534.765625 C 1116.261719 1536.246094 1123.261719 1537 1130.609375 1537.777344 C 1131.519531 1537.878906 1132.339844 1538.414062 1132.800781 1539.21875 C 1133.261719 1540.023438 1133.300781 1540.996094 1132.910156 1541.839844 L 1132.808594 1542.042969 C 1126.058594 1556.679688 1119.160156 1571.527344 1104.019531 1591.074219 C 1092.179688 1606.371094 1075.269531 1624.542969 1057.339844 1643.273438 C 1056.988281 1643.640625 1056.949219 1644.207031 1057.25 1644.613281 C 1057.449219 1644.890625 1057.769531 1645.042969 1058.101562 1645.042969 C 1058.25 1645.042969 1058.398438 1645.011719 1058.550781 1644.941406 L 1094.179688 1627.871094 C 1094.578125 1627.679688 1095 1627.585938 1095.421875 1627.585938 C 1096.238281 1627.585938 1097.039062 1627.933594 1097.601562 1628.589844 C 1098.441406 1629.574219 1098.53125 1630.996094 1097.800781 1632.070312 L 1097.71875 1632.179688 C 1084.519531 1651.628906 1071.230469 1671.203125 1053.640625 1691.828125 C 1042.820312 1704.515625 1030.371094 1717.597656 1017.328125 1730.808594 C 999.171875 1718.582031 982.027344 1706.335938 971.003906 1694.46875 C 957.222656 1679.636719 953.007812 1665.414062 948.917969 1651.589844 C 948.628906 1650.609375 948.972656 1649.660156 949.742188 1649.15625 C 950.09375 1648.921875 950.496094 1648.808594 950.894531 1648.808594 C 951.375 1648.808594 951.847656 1648.972656 952.234375 1649.296875 C 961.910156 1657.351562 971.367188 1665.21875 982.8125 1670.714844 C 991.347656 1674.816406 1001.019531 1677.613281 1011.101562 1680.109375 C 1011.160156 1680.125 1011.21875 1680.132812 1011.28125 1680.132812 C 1011.449219 1680.132812 1011.621094 1680.074219 1011.75 1679.96875 C 1011.929688 1679.824219 1012.039062 1679.609375 1012.039062 1679.378906 C 1012.039062 1679.152344 1011.949219 1678.953125 1011.800781 1678.808594 C 997.078125 1665.105469 982.714844 1651.128906 971.417969 1636.046875 C 958.09375 1618.25 949.070312 1598.957031 940.148438 1579.882812 L 940.09375 1579.765625 C 939.71875 1578.964844 939.886719 1578.019531 940.507812 1577.394531 C 940.910156 1576.996094 941.445312 1576.785156 941.988281 1576.785156 C 942.289062 1576.785156 942.589844 1576.847656 942.875 1576.980469 L 943.082031 1577.078125 C 949.363281 1580.011719 955.53125 1582.878906 963.058594 1585.132812 C 968.191406 1586.664062 973.921875 1587.910156 979.90625 1589.078125 C 979.976562 1589.085938 980.011719 1589.09375 980.050781 1589.09375 C 980.226562 1589.09375 980.398438 1589.03125 980.535156 1588.917969 C 980.714844 1588.773438 980.8125 1588.558594 980.8125 1588.328125 C 980.8125 1588.128906 980.734375 1587.933594 980.589844 1587.789062 C 966.964844 1574.253906 953.609375 1560.753906 942.5625 1547.808594 C 929.664062 1532.6875 919.96875 1518.40625 910.347656 1504.234375 C 909.789062 1503.398438 909.851562 1502.363281 910.464844 1501.65625 C 910.871094 1501.179688 911.457031 1500.925781 912.050781 1500.925781 C 912.359375 1500.925781 912.664062 1500.996094 912.953125 1501.132812 L 938.925781 1513.574219 C 939.027344 1513.625 939.144531 1513.648438 939.253906 1513.648438 C 939.394531 1513.648438 939.535156 1513.609375 939.660156 1513.53125 C 939.878906 1513.394531 940.011719 1513.15625 940.015625 1512.898438 C 940.011719 1512.683594 939.9375 1512.5 939.804688 1512.359375 C 926.738281 1498.707031 914.417969 1485.460938 905.785156 1474.316406 C 894.703125 1460.007812 889.691406 1449.160156 884.742188 1438.449219 C 884.453125 1437.816406 884.480469 1437.109375 884.8125 1436.519531 C 885.144531 1435.933594 885.742188 1435.539062 886.410156 1435.46875 C 891.78125 1434.90625 896.898438 1434.359375 900.753906 1433.277344 C 903.070312 1432.632812 904.945312 1431.789062 906.699219 1430.832031 C 906.898438 1430.753906 907.058594 1430.59375 907.132812 1430.386719 C 907.238281 1430.109375 907.171875 1429.800781 906.96875 1429.589844 C 885.867188 1407.9375 864.753906 1385.785156 848.453125 1355.621094 C 832.78125 1326.628906 821.589844 1290.296875 810.789062 1253.636719 C 810.679688 1253.265625 810.378906 1253.039062 810.042969 1253.039062 C 809.667969 1253.0625 809.394531 1253.277344 809.300781 1253.585938 C 798.496094 1290.265625 787.296875 1326.617188 771.621094 1355.621094 C 755.316406 1385.785156 734.207031 1407.9375 713.105469 1429.589844 C 712.890625 1429.808594 712.832031 1430.132812 712.949219 1430.417969 C 713.03125 1430.617188 713.195312 1430.769531 713.390625 1430.832031 C 715.140625 1431.792969 717.007812 1432.632812 719.316406 1433.277344 C 723.207031 1434.359375 728.308594 1434.90625 733.660156 1435.476562 C 734.332031 1435.546875 734.929688 1435.933594 735.261719 1436.523438 C 735.59375 1437.109375 735.621094 1437.820312 735.339844 1438.4375 L 735.269531 1438.582031 C 730.34375 1449.246094 725.324219 1460.066406 714.289062 1474.316406 C 705.65625 1485.464844 693.335938 1498.707031 680.269531 1512.359375 C 680.015625 1512.628906 679.984375 1513.039062 680.203125 1513.335938 C 680.347656 1513.539062 680.582031 1513.644531 680.820312 1513.644531 C 680.933594 1513.644531 681.042969 1513.628906 681.148438 1513.574219 L 707.121094 1501.132812 C 707.410156 1500.996094 707.71875 1500.925781 708.019531 1500.925781 C 708.617188 1500.925781 709.203125 1501.179688 709.609375 1501.65625 C 710.222656 1502.371094 710.285156 1503.410156 709.753906 1504.191406 L 709.6875 1504.292969 C 700.078125 1518.445312 690.390625 1532.714844 677.574219 1547.742188 C 666.515625 1560.703125 653.132812 1574.230469 639.484375 1587.789062 C 639.246094 1588.023438 639.1875 1588.386719 639.347656 1588.683594 C 639.480469 1588.9375 639.742188 1589.09375 640.019531 1589.09375 C 640.070312 1589.09375 640.117188 1589.085938 640.164062 1589.078125 C 646.164062 1587.910156 651.90625 1586.664062 657.015625 1585.132812 C 664.546875 1582.878906 670.714844 1580.007812 676.988281 1577.078125 L 677.203125 1576.980469 C 677.484375 1576.847656 677.785156 1576.785156 678.082031 1576.785156 C 678.628906 1576.785156 679.164062 1576.992188 679.566406 1577.394531 C 680.183594 1578.019531 680.351562 1578.964844 679.980469 1579.761719 L 679.921875 1579.886719 L 679.863281 1580.007812 C 670.964844 1599.042969 661.953125 1618.289062 648.65625 1636.046875 C 639.46875 1648.3125 628.261719 1659.839844 616.476562 1671.089844 C 600.996094 1654.78125 586.683594 1639.121094 576.277344 1625.683594 C 561.074219 1606.058594 554.191406 1591.164062 547.40625 1576.472656 C 547.003906 1575.605469 547.042969 1574.628906 547.5 1573.828125 C 547.957031 1573.019531 548.773438 1572.488281 549.695312 1572.382812 C 557.066406 1571.609375 564.082031 1570.859375 569.375 1569.371094 C 572.554688 1568.484375 575.125 1567.332031 577.535156 1566.019531 C 577.808594 1565.90625 578.027344 1565.6875 578.128906 1565.410156 C 578.273438 1565.03125 578.183594 1564.601562 577.902344 1564.308594 C 548.949219 1534.601562 519.976562 1504.203125 497.609375 1462.816406 C 476.105469 1423.039062 460.746094 1373.179688 445.925781 1322.882812 C 445.769531 1322.363281 445.363281 1322.058594 444.898438 1322.058594 C 444.398438 1322.078125 444.011719 1322.375 443.890625 1322.804688 C 429.058594 1373.125 413.691406 1423.015625 392.183594 1462.816406 C 369.816406 1504.207031 340.847656 1534.601562 311.890625 1564.3125 C 311.597656 1564.621094 311.507812 1565.058594 311.671875 1565.449219 C 311.789062 1565.722656 312.011719 1565.929688 312.28125 1566.027344 C 314.675781 1567.332031 317.246094 1568.492188 320.414062 1569.371094 C 325.75 1570.859375 332.746094 1571.609375 340.097656 1572.382812 C 341.015625 1572.488281 341.832031 1573.019531 342.289062 1573.828125 C 342.746094 1574.628906 342.785156 1575.609375 342.398438 1576.449219 L 342.304688 1576.65625 C 335.542969 1591.289062 328.652344 1606.140625 313.511719 1625.6875 C 311.339844 1628.492188 309 1631.386719 306.511719 1634.375 C 306.125 1633.863281 305.730469 1633.351562 305.347656 1632.835938 C 292.019531 1615.039062 282.996094 1595.746094 274.078125 1576.675781 L 274.023438 1576.554688 C 273.648438 1575.757812 273.8125 1574.8125 274.433594 1574.1875 C 274.839844 1573.789062 275.375 1573.578125 275.917969 1573.578125 C 276.214844 1573.578125 276.515625 1573.640625 276.800781 1573.773438 L 277.007812 1573.871094 C 283.289062 1576.804688 289.460938 1579.667969 296.984375 1581.925781 C 302.117188 1583.457031 307.851562 1584.703125 313.835938 1585.867188 C 313.902344 1585.878906 313.941406 1585.882812 313.980469 1585.882812 C 314.152344 1585.882812 314.324219 1585.820312 314.464844 1585.710938 C 314.640625 1585.566406 314.742188 1585.347656 314.742188 1585.125 C 314.742188 1584.914062 314.660156 1584.722656 314.515625 1584.578125 C 300.890625 1571.046875 287.535156 1557.542969 276.488281 1544.601562 C 263.589844 1529.480469 253.894531 1515.203125 244.273438 1501.019531 C 243.714844 1500.191406 243.777344 1499.152344 244.390625 1498.445312 C 244.800781 1497.96875 245.382812 1497.71875 245.980469 1497.71875 C 246.285156 1497.71875 246.589844 1497.78125 246.878906 1497.921875 L 272.851562 1510.367188 C 272.953125 1510.414062 273.066406 1510.441406 273.179688 1510.441406 C 273.324219 1510.441406 273.464844 1510.402344 273.585938 1510.324219 C 273.804688 1510.1875 273.941406 1509.945312 273.941406 1509.6875 C 273.941406 1509.472656 273.863281 1509.289062 273.730469 1509.148438 C 260.664062 1495.5 248.34375 1482.253906 239.710938 1471.109375 C 228.628906 1456.800781 223.617188 1445.953125 218.667969 1435.242188 C 218.378906 1434.609375 218.40625 1433.898438 218.738281 1433.316406 C 219.070312 1432.726562 219.667969 1432.332031 220.339844 1432.261719 C 225.707031 1431.691406 230.824219 1431.144531 234.679688 1430.070312 C 236.996094 1429.421875 238.867188 1428.582031 240.621094 1427.625 C 240.824219 1427.546875 240.984375 1427.386719 241.0625 1427.179688 C 241.164062 1426.90625 241.101562 1426.59375 240.894531 1426.378906 C 219.789062 1404.726562 198.683594 1382.578125 182.378906 1352.410156 C 166.707031 1323.417969 155.519531 1287.085938 144.714844 1250.429688 C 144.605469 1250.058594 144.308594 1249.832031 143.972656 1249.832031 C 143.597656 1249.851562 143.320312 1250.070312 143.230469 1250.378906 C 132.421875 1287.050781 121.222656 1323.40625 105.550781 1352.410156 C 89.246094 1382.578125 68.136719 1404.726562 47.03125 1426.378906 C 46.820312 1426.597656 46.757812 1426.929688 46.878906 1427.207031 C 46.960938 1427.40625 47.121094 1427.558594 47.316406 1427.625 C 49.066406 1428.578125 50.9375 1429.417969 53.246094 1430.0625 C 57.132812 1431.152344 62.234375 1431.695312 67.589844 1432.261719 C 68.257812 1432.335938 68.855469 1432.726562 69.1875 1433.3125 C 69.523438 1433.898438 69.550781 1434.609375 69.269531 1435.222656 L 69.199219 1435.375 C 64.269531 1446.035156 59.25 1456.859375 48.21875 1471.101562 C 39.582031 1482.253906 27.265625 1495.5 14.195312 1509.148438 C 13.941406 1509.417969 13.914062 1509.828125 14.128906 1510.125 C 14.277344 1510.328125 14.511719 1510.4375 14.746094 1510.4375 C 14.859375 1510.4375 14.96875 1510.414062 15.078125 1510.363281 L 41.046875 1497.917969 C 41.335938 1497.78125 41.644531 1497.714844 41.949219 1497.714844 C 42.546875 1497.714844 43.128906 1497.96875 43.539062 1498.445312 C 44.152344 1499.164062 44.210938 1500.207031 43.683594 1500.980469 L 43.613281 1501.082031 C 34.835938 1514.011719 25.996094 1527.039062 14.761719 1540.648438 C 9.714844 1535.671875 4.785156 1530.648438 0.0351562 1525.554688 L 0.0195312 1525.554688 L 0.0195312 2160 L 3839.640625 2159.914062 L 3839.640625 1073.121094 L 3839.628906 1073.121094 C 3826.410156 1117.109375 3812.25 1159.871094 3793.359375 1194.832031 C 3770.988281 1236.226562 3742.019531 1266.621094 3713.058594 1296.332031 C 3712.769531 1296.636719 3712.691406 1297.082031 3712.851562 1297.46875 C 3712.96875 1297.746094 3713.191406 1297.949219 3713.449219 1298.046875 C 3715.859375 1299.351562 3718.421875 1300.503906 3721.589844 1301.394531 C 3726.921875 1302.875 3733.921875 1303.628906 3741.269531 1304.402344 C 3742.191406 1304.503906 3743.011719 1305.039062 3743.46875 1305.839844 C 3743.921875 1306.648438 3743.960938 1307.625 3743.570312 1308.464844 L 3743.480469 1308.675781 C 3736.71875 1323.304688 3729.828125 1338.160156 3714.691406 1357.707031 C 3707.191406 1367.390625 3697.660156 1378.230469 3687.128906 1389.632812 C 3683.078125 1385.03125 3679.390625 1380.632812 3676.199219 1376.511719 C 3665.121094 1362.207031 3660.109375 1351.355469 3655.160156 1340.644531 C 3654.859375 1340.015625 3654.890625 1339.308594 3655.230469 1338.71875 C 3655.558594 1338.132812 3656.160156 1337.734375 3656.820312 1337.667969 C 3662.191406 1337.101562 3667.308594 1336.554688 3671.171875 1335.476562 C 3673.480469 1334.832031 3675.339844 1333.988281 3677.089844 1333.039062 C 3677.308594 1332.953125 3677.46875 1332.796875 3677.550781 1332.589844 C 3677.660156 1332.308594 3677.589844 1331.996094 3677.378906 1331.785156 C 3656.28125 1310.132812 3635.171875 1287.984375 3618.871094 1257.8125 C 3603.199219 1228.828125 3592.011719 1192.496094 3581.199219 1155.839844 C 3581.089844 1155.460938 3580.800781 1155.238281 3580.460938 1155.238281 C 3580.089844 1155.261719 3579.808594 1155.480469 3579.71875 1155.789062 C 3568.910156 1192.457031 3557.71875 1228.8125 3542.039062 1257.816406 C 3525.730469 1287.984375 3504.621094 1310.132812 3483.519531 1331.789062 C 3483.308594 1332.007812 3483.25 1332.332031 3483.371094 1332.613281 C 3483.449219 1332.816406 3483.609375 1332.964844 3483.808594 1333.03125 C 3485.558594 1333.984375 3487.421875 1334.832031 3489.730469 1335.476562 C 3493.621094 1336.554688 3498.71875 1337.105469 3504.078125 1337.671875 C 3504.75 1337.746094 3505.339844 1338.132812 3505.679688 1338.71875 C 3506.011719 1339.308594 3506.039062 1340.015625 3505.75 1340.628906 L 3505.691406 1340.78125 C 3503.171875 1346.242188 3500.628906 1351.734375 3497.261719 1357.703125 C 3494.019531 1354.191406 3490.921875 1350.707031 3487.980469 1347.261719 C 3475.078125 1332.136719 3465.378906 1317.859375 3455.761719 1303.675781 C 3455.210938 1302.839844 3455.269531 1301.8125 3455.878906 1301.105469 C 3456.289062 1300.628906 3456.871094 1300.375 3457.46875 1300.375 C 3457.769531 1300.375 3458.078125 1300.441406 3458.371094 1300.582031 L 3484.339844 1313.027344 C 3484.441406 1313.070312 3484.558594 1313.101562 3484.671875 1313.101562 C 3484.808594 1313.101562 3484.949219 1313.058594 3485.078125 1312.980469 C 3485.289062 1312.847656 3485.429688 1312.597656 3485.429688 1312.351562 C 3485.429688 1312.132812 3485.351562 1311.949219 3485.21875 1311.808594 C 3472.148438 1298.15625 3459.828125 1284.914062 3451.199219 1273.765625 C 3440.121094 1259.457031 3435.109375 1248.609375 3430.160156 1237.902344 C 3429.871094 1237.265625 3429.890625 1236.558594 3430.230469 1235.972656 C 3430.558594 1235.382812 3431.148438 1234.996094 3431.828125 1234.917969 C 3437.199219 1234.355469 3442.308594 1233.804688 3446.171875 1232.726562 C 3448.480469 1232.082031 3450.351562 1231.242188 3452.101562 1230.292969 C 3452.308594 1230.203125 3452.46875 1230.046875 3452.550781 1229.84375 C 3452.648438 1229.558594 3452.589844 1229.25 3452.378906 1229.039062 C 3431.28125 1207.382812 3410.171875 1185.234375 3393.871094 1155.070312 C 3378.199219 1126.078125 3367 1089.75 3356.199219 1053.089844 C 3356.089844 1052.710938 3355.789062 1052.488281 3355.460938 1052.488281 Z M 3355.460938 1052.488281 "/>
</svg>
