<?xml version="1.0" encoding="UTF-8"?>
<svg xmlns="http://www.w3.org/2000/svg" xmlns:xlink="http://www.w3.org/1999/xlink" width="3840" height="2160" viewBox="0 0 3840 2160">
<defs>
<clipPath id="clip-0">
<path clip-rule="nonzero" d="M 0.015625 0 L 0.015625 2160 L 3839.640625 2159.914062 L 3839.640625 0.0898438 Z M 0.015625 0 "/>
</clipPath>
<clipPath id="clip-1">
<path clip-rule="nonzero" d="M 0.015625 0 L 0.015625 2160 L 3839.640625 2159.914062 L 3839.640625 0.0898438 Z M 0.015625 0 "/>
</clipPath>
<radialGradient id="radial-pattern-0" gradientUnits="userSpaceOnUse" cx="-1282.605" cy="-135.27525" fx="-1282.605" fy="-135.27525" r="3102.5175" gradientTransform="matrix(1, 0, 0, 1, 1715.3, 548.23)">
<stop offset="0" stop-color="rgb(99.990845%, 99.511719%, 62.640381%)" stop-opacity="1"/>
<stop offset="0.0078125" stop-color="rgb(99.971008%, 99.273682%, 62.379456%)" stop-opacity="1"/>
<stop offset="0.0195312" stop-color="rgb(99.94812%, 98.989868%, 62.06665%)" stop-opacity="1"/>
<stop offset="0.03125" stop-color="rgb(99.925232%, 98.704529%, 61.753845%)" stop-opacity="1"/>
<stop offset="0.0429688" stop-color="rgb(99.902344%, 98.419189%, 61.44104%)" stop-opacity="1"/>
<stop offset="0.0546875" stop-color="rgb(99.879456%, 98.13385%, 61.129761%)" stop-opacity="1"/>
<stop offset="0.0664062" stop-color="rgb(99.856567%, 97.850037%, 60.816956%)" stop-opacity="1"/>
<stop offset="0.078125" stop-color="rgb(99.833679%, 97.564697%, 60.50415%)" stop-opacity="1"/>
<stop offset="0.0898438" stop-color="rgb(99.810791%, 97.279358%, 60.191345%)" stop-opacity="1"/>
<stop offset="0.101562" stop-color="rgb(99.787903%, 96.994019%, 59.87854%)" stop-opacity="1"/>
<stop offset="0.113281" stop-color="rgb(99.765015%, 96.710205%, 59.567261%)" stop-opacity="1"/>
<stop offset="0.125" stop-color="rgb(99.742126%, 96.424866%, 59.254456%)" stop-opacity="1"/>
<stop offset="0.136719" stop-color="rgb(99.719238%, 96.139526%, 58.94165%)" stop-opacity="1"/>
<stop offset="0.148438" stop-color="rgb(99.69635%, 95.855713%, 58.628845%)" stop-opacity="1"/>
<stop offset="0.160156" stop-color="rgb(99.673462%, 95.570374%, 58.31604%)" stop-opacity="1"/>
<stop offset="0.171875" stop-color="rgb(99.650574%, 95.285034%, 58.004761%)" stop-opacity="1"/>
<stop offset="0.183594" stop-color="rgb(99.627686%, 94.999695%, 57.691956%)" stop-opacity="1"/>
<stop offset="0.195312" stop-color="rgb(99.604797%, 94.715881%, 57.37915%)" stop-opacity="1"/>
<stop offset="0.207031" stop-color="rgb(99.580383%, 94.430542%, 57.066345%)" stop-opacity="1"/>
<stop offset="0.21875" stop-color="rgb(99.557495%, 94.145203%, 56.75354%)" stop-opacity="1"/>
<stop offset="0.230469" stop-color="rgb(99.534607%, 93.859863%, 56.442261%)" stop-opacity="1"/>
<stop offset="0.242188" stop-color="rgb(99.511719%, 93.57605%, 56.129456%)" stop-opacity="1"/>
<stop offset="0.253906" stop-color="rgb(99.493408%, 93.338013%, 55.86853%)" stop-opacity="1"/>
<stop offset="0.261719" stop-color="rgb(99.478149%, 93.148804%, 55.661011%)" stop-opacity="1"/>
<stop offset="0.269531" stop-color="rgb(99.462891%, 92.958069%, 55.451965%)" stop-opacity="1"/>
<stop offset="0.277344" stop-color="rgb(99.447632%, 92.76886%, 55.244446%)" stop-opacity="1"/>
<stop offset="0.285156" stop-color="rgb(99.432373%, 92.578125%, 55.0354%)" stop-opacity="1"/>
<stop offset="0.292969" stop-color="rgb(99.417114%, 92.388916%, 54.827881%)" stop-opacity="1"/>
<stop offset="0.300781" stop-color="rgb(99.401855%, 92.198181%, 54.618835%)" stop-opacity="1"/>
<stop offset="0.308594" stop-color="rgb(99.386597%, 92.008972%, 54.411316%)" stop-opacity="1"/>
<stop offset="0.316406" stop-color="rgb(99.371338%, 91.818237%, 54.202271%)" stop-opacity="1"/>
<stop offset="0.324219" stop-color="rgb(99.356079%, 91.629028%, 53.993225%)" stop-opacity="1"/>
<stop offset="0.332031" stop-color="rgb(99.34082%, 91.438293%, 53.785706%)" stop-opacity="1"/>
<stop offset="0.339844" stop-color="rgb(99.325562%, 91.249084%, 53.57666%)" stop-opacity="1"/>
<stop offset="0.347656" stop-color="rgb(99.310303%, 91.05835%, 53.369141%)" stop-opacity="1"/>
<stop offset="0.355469" stop-color="rgb(99.295044%, 90.869141%, 53.160095%)" stop-opacity="1"/>
<stop offset="0.363281" stop-color="rgb(99.279785%, 90.678406%, 52.952576%)" stop-opacity="1"/>
<stop offset="0.371094" stop-color="rgb(99.264526%, 90.489197%, 52.74353%)" stop-opacity="1"/>
<stop offset="0.378906" stop-color="rgb(99.249268%, 90.298462%, 52.536011%)" stop-opacity="1"/>
<stop offset="0.386719" stop-color="rgb(99.234009%, 90.109253%, 52.326965%)" stop-opacity="1"/>
<stop offset="0.394531" stop-color="rgb(99.217224%, 89.918518%, 52.119446%)" stop-opacity="1"/>
<stop offset="0.402344" stop-color="rgb(99.201965%, 89.729309%, 51.9104%)" stop-opacity="1"/>
<stop offset="0.410156" stop-color="rgb(99.186707%, 89.538574%, 51.702881%)" stop-opacity="1"/>
<stop offset="0.417969" stop-color="rgb(99.171448%, 89.349365%, 51.493835%)" stop-opacity="1"/>
<stop offset="0.425781" stop-color="rgb(99.156189%, 89.15863%, 51.286316%)" stop-opacity="1"/>
<stop offset="0.433594" stop-color="rgb(99.14093%, 88.969421%, 51.077271%)" stop-opacity="1"/>
<stop offset="0.441406" stop-color="rgb(99.125671%, 88.780212%, 50.868225%)" stop-opacity="1"/>
<stop offset="0.449219" stop-color="rgb(99.110413%, 88.589478%, 50.660706%)" stop-opacity="1"/>
<stop offset="0.457031" stop-color="rgb(99.095154%, 88.400269%, 50.45166%)" stop-opacity="1"/>
<stop offset="0.464844" stop-color="rgb(99.079895%, 88.209534%, 50.244141%)" stop-opacity="1"/>
<stop offset="0.472656" stop-color="rgb(99.064636%, 88.020325%, 50.035095%)" stop-opacity="1"/>
<stop offset="0.480469" stop-color="rgb(99.049377%, 87.82959%, 49.827576%)" stop-opacity="1"/>
<stop offset="0.488281" stop-color="rgb(99.034119%, 87.640381%, 49.61853%)" stop-opacity="1"/>
<stop offset="0.496094" stop-color="rgb(99.01886%, 87.449646%, 49.411011%)" stop-opacity="1"/>
<stop offset="0.503906" stop-color="rgb(98.999023%, 87.211609%, 49.150085%)" stop-opacity="1"/>
<stop offset="0.515625" stop-color="rgb(98.976135%, 86.927795%, 48.83728%)" stop-opacity="1"/>
<stop offset="0.527344" stop-color="rgb(98.953247%, 86.642456%, 48.524475%)" stop-opacity="1"/>
<stop offset="0.539062" stop-color="rgb(98.930359%, 86.357117%, 48.213196%)" stop-opacity="1"/>
<stop offset="0.550781" stop-color="rgb(98.907471%, 86.071777%, 47.900391%)" stop-opacity="1"/>
<stop offset="0.5625" stop-color="rgb(98.884583%, 85.787964%, 47.587585%)" stop-opacity="1"/>
<stop offset="0.574219" stop-color="rgb(98.861694%, 85.502625%, 47.27478%)" stop-opacity="1"/>
<stop offset="0.585938" stop-color="rgb(98.838806%, 85.217285%, 46.961975%)" stop-opacity="1"/>
<stop offset="0.597656" stop-color="rgb(98.814392%, 84.933472%, 46.650696%)" stop-opacity="1"/>
<stop offset="0.609375" stop-color="rgb(98.791504%, 84.648132%, 46.337891%)" stop-opacity="1"/>
<stop offset="0.621094" stop-color="rgb(98.768616%, 84.362793%, 46.025085%)" stop-opacity="1"/>
<stop offset="0.632812" stop-color="rgb(98.750305%, 84.126282%, 45.76416%)" stop-opacity="1"/>
<stop offset="0.640625" stop-color="rgb(98.735046%, 83.935547%, 45.556641%)" stop-opacity="1"/>
<stop offset="0.648438" stop-color="rgb(98.719788%, 83.746338%, 45.347595%)" stop-opacity="1"/>
<stop offset="0.65625" stop-color="rgb(98.704529%, 83.555603%, 45.140076%)" stop-opacity="1"/>
<stop offset="0.664062" stop-color="rgb(98.68927%, 83.366394%, 44.93103%)" stop-opacity="1"/>
<stop offset="0.671875" stop-color="rgb(98.674011%, 83.175659%, 44.723511%)" stop-opacity="1"/>
<stop offset="0.679688" stop-color="rgb(98.658752%, 82.98645%, 44.514465%)" stop-opacity="1"/>
<stop offset="0.6875" stop-color="rgb(98.643494%, 82.795715%, 44.306946%)" stop-opacity="1"/>
<stop offset="0.695312" stop-color="rgb(98.628235%, 82.606506%, 44.0979%)" stop-opacity="1"/>
<stop offset="0.703125" stop-color="rgb(98.612976%, 82.415771%, 43.890381%)" stop-opacity="1"/>
<stop offset="0.710938" stop-color="rgb(98.597717%, 82.226562%, 43.681335%)" stop-opacity="1"/>
<stop offset="0.71875" stop-color="rgb(98.582458%, 82.035828%, 43.473816%)" stop-opacity="1"/>
<stop offset="0.726562" stop-color="rgb(98.5672%, 81.846619%, 43.264771%)" stop-opacity="1"/>
<stop offset="0.734375" stop-color="rgb(98.551941%, 81.655884%, 43.055725%)" stop-opacity="1"/>
<stop offset="0.742188" stop-color="rgb(98.536682%, 81.466675%, 42.848206%)" stop-opacity="1"/>
<stop offset="0.75" stop-color="rgb(98.521423%, 81.27594%, 42.63916%)" stop-opacity="1"/>
<stop offset="0.757812" stop-color="rgb(98.501587%, 81.039429%, 42.379761%)" stop-opacity="1"/>
<stop offset="0.769531" stop-color="rgb(98.478699%, 80.754089%, 42.066956%)" stop-opacity="1"/>
<stop offset="0.78125" stop-color="rgb(98.455811%, 80.46875%, 41.75415%)" stop-opacity="1"/>
<stop offset="0.792969" stop-color="rgb(98.432922%, 80.183411%, 41.441345%)" stop-opacity="1"/>
<stop offset="0.804688" stop-color="rgb(98.408508%, 79.899597%, 41.12854%)" stop-opacity="1"/>
<stop offset="0.816406" stop-color="rgb(98.390198%, 79.66156%, 40.869141%)" stop-opacity="1"/>
<stop offset="0.824219" stop-color="rgb(98.374939%, 79.472351%, 40.660095%)" stop-opacity="1"/>
<stop offset="0.832031" stop-color="rgb(98.35968%, 79.281616%, 40.452576%)" stop-opacity="1"/>
<stop offset="0.839844" stop-color="rgb(98.344421%, 79.092407%, 40.24353%)" stop-opacity="1"/>
<stop offset="0.847656" stop-color="rgb(98.329163%, 78.901672%, 40.036011%)" stop-opacity="1"/>
<stop offset="0.855469" stop-color="rgb(98.313904%, 78.712463%, 39.826965%)" stop-opacity="1"/>
<stop offset="0.863281" stop-color="rgb(98.298645%, 78.521729%, 39.619446%)" stop-opacity="1"/>
<stop offset="0.871094" stop-color="rgb(98.283386%, 78.33252%, 39.4104%)" stop-opacity="1"/>
<stop offset="0.878906" stop-color="rgb(98.26355%, 78.094482%, 39.149475%)" stop-opacity="1"/>
<stop offset="0.890625" stop-color="rgb(98.240662%, 77.809143%, 38.838196%)" stop-opacity="1"/>
<stop offset="0.902344" stop-color="rgb(98.217773%, 77.52533%, 38.525391%)" stop-opacity="1"/>
<stop offset="0.914062" stop-color="rgb(98.199463%, 77.287292%, 38.264465%)" stop-opacity="1"/>
<stop offset="0.921875" stop-color="rgb(98.184204%, 77.098083%, 38.056946%)" stop-opacity="1"/>
<stop offset="0.929688" stop-color="rgb(98.168945%, 76.907349%, 37.8479%)" stop-opacity="1"/>
<stop offset="0.9375" stop-color="rgb(98.153687%, 76.71814%, 37.640381%)" stop-opacity="1"/>
<stop offset="0.945312" stop-color="rgb(98.13385%, 76.480103%, 37.379456%)" stop-opacity="1"/>
<stop offset="0.957031" stop-color="rgb(98.11554%, 76.242065%, 37.11853%)" stop-opacity="1"/>
<stop offset="0.964844" stop-color="rgb(98.100281%, 76.052856%, 36.911011%)" stop-opacity="1"/>
<stop offset="0.972656" stop-color="rgb(98.080444%, 75.814819%, 36.650085%)" stop-opacity="1"/>
<stop offset="0.984375" stop-color="rgb(98.062134%, 75.578308%, 36.38916%)" stop-opacity="1"/>
<stop offset="0.992188" stop-color="rgb(98.045349%, 75.387573%, 36.181641%)" stop-opacity="1"/>
<stop offset="1" stop-color="rgb(98.03772%, 75.292969%, 36.077881%)" stop-opacity="1"/>
</radialGradient>
<clipPath id="clip-2">
<path clip-rule="nonzero" d="M 122 79 L 791 79 L 791 747 L 122 747 Z M 122 79 "/>
</clipPath>
<clipPath id="clip-3">
<path clip-rule="nonzero" d="M 456.691406 746.839844 C 641.09375 746.839844 790.578125 597.359375 790.578125 412.960938 C 790.578125 228.558594 641.09375 79.070312 456.691406 79.070312 C 272.292969 79.070312 122.804688 228.558594 122.804688 412.960938 C 122.804688 597.351562 272.289062 746.839844 456.691406 746.839844 Z M 456.691406 746.839844 "/>
</clipPath>
<clipPath id="clip-4">
<path clip-rule="nonzero" d="M 456.691406 746.839844 C 641.09375 746.839844 790.578125 597.359375 790.578125 412.960938 C 790.578125 228.558594 641.09375 79.070312 456.691406 79.070312 C 272.292969 79.070312 122.804688 228.558594 122.804688 412.960938 C 122.804688 597.351562 272.289062 746.839844 456.691406 746.839844 Z M 456.691406 746.839844 "/>
</clipPath>
<radialGradient id="radial-pattern-1" gradientUnits="userSpaceOnUse" cx="-1258.605" cy="-135.27525" fx="-1258.605" fy="-135.27525" r="457.96125" gradientTransform="matrix(1, 0, 0, 1, 1715.3, 548.23)">
<stop offset="0" stop-color="rgb(99.606323%, 99.995422%, 92.814636%)" stop-opacity="1"/>
<stop offset="0.015625" stop-color="rgb(99.606323%, 99.989319%, 92.59491%)" stop-opacity="1"/>
<stop offset="0.0273438" stop-color="rgb(99.606323%, 99.984741%, 92.405701%)" stop-opacity="1"/>
<stop offset="0.0390625" stop-color="rgb(99.606323%, 99.980164%, 92.218018%)" stop-opacity="1"/>
<stop offset="0.0507812" stop-color="rgb(99.606323%, 99.975586%, 92.028809%)" stop-opacity="1"/>
<stop offset="0.0625" stop-color="rgb(99.606323%, 99.971008%, 91.841125%)" stop-opacity="1"/>
<stop offset="0.0742188" stop-color="rgb(99.606323%, 99.966431%, 91.651917%)" stop-opacity="1"/>
<stop offset="0.0859375" stop-color="rgb(99.606323%, 99.961853%, 91.464233%)" stop-opacity="1"/>
<stop offset="0.0976562" stop-color="rgb(99.606323%, 99.957275%, 91.275024%)" stop-opacity="1"/>
<stop offset="0.109375" stop-color="rgb(99.606323%, 99.952698%, 91.087341%)" stop-opacity="1"/>
<stop offset="0.121094" stop-color="rgb(99.606323%, 99.94812%, 90.898132%)" stop-opacity="1"/>
<stop offset="0.132812" stop-color="rgb(99.606323%, 99.942017%, 90.615845%)" stop-opacity="1"/>
<stop offset="0.15625" stop-color="rgb(99.606323%, 99.932861%, 90.238953%)" stop-opacity="1"/>
<stop offset="0.179688" stop-color="rgb(99.606323%, 99.923706%, 89.862061%)" stop-opacity="1"/>
<stop offset="0.203125" stop-color="rgb(99.606323%, 99.914551%, 89.485168%)" stop-opacity="1"/>
<stop offset="0.226562" stop-color="rgb(99.606323%, 99.905396%, 89.108276%)" stop-opacity="1"/>
<stop offset="0.25" stop-color="rgb(99.606323%, 99.89624%, 88.731384%)" stop-opacity="1"/>
<stop offset="0.273438" stop-color="rgb(99.606323%, 99.887085%, 88.386536%)" stop-opacity="1"/>
<stop offset="0.292969" stop-color="rgb(99.606323%, 99.879456%, 88.072205%)" stop-opacity="1"/>
<stop offset="0.3125" stop-color="rgb(99.606323%, 99.871826%, 87.759399%)" stop-opacity="1"/>
<stop offset="0.332031" stop-color="rgb(99.606323%, 99.864197%, 87.445068%)" stop-opacity="1"/>
<stop offset="0.351562" stop-color="rgb(99.606323%, 99.856567%, 87.130737%)" stop-opacity="1"/>
<stop offset="0.371094" stop-color="rgb(99.606323%, 99.848938%, 86.816406%)" stop-opacity="1"/>
<stop offset="0.390625" stop-color="rgb(99.606323%, 99.842834%, 86.534119%)" stop-opacity="1"/>
<stop offset="0.40625" stop-color="rgb(99.606323%, 99.836731%, 86.282349%)" stop-opacity="1"/>
<stop offset="0.421875" stop-color="rgb(99.606323%, 99.830627%, 86.030579%)" stop-opacity="1"/>
<stop offset="0.4375" stop-color="rgb(99.606323%, 99.824524%, 85.780334%)" stop-opacity="1"/>
<stop offset="0.453125" stop-color="rgb(99.606323%, 99.81842%, 85.528564%)" stop-opacity="1"/>
<stop offset="0.46875" stop-color="rgb(99.606323%, 99.812317%, 85.276794%)" stop-opacity="1"/>
<stop offset="0.484375" stop-color="rgb(99.606323%, 99.806213%, 85.02655%)" stop-opacity="1"/>
<stop offset="0.5" stop-color="rgb(99.606323%, 99.80011%, 84.77478%)" stop-opacity="1"/>
<stop offset="0.515625" stop-color="rgb(99.606323%, 99.794006%, 84.555054%)" stop-opacity="1"/>
<stop offset="0.527344" stop-color="rgb(99.606323%, 99.789429%, 84.367371%)" stop-opacity="1"/>
<stop offset="0.539062" stop-color="rgb(99.606323%, 99.784851%, 84.178162%)" stop-opacity="1"/>
<stop offset="0.550781" stop-color="rgb(99.606323%, 99.780273%, 83.990479%)" stop-opacity="1"/>
<stop offset="0.5625" stop-color="rgb(99.606323%, 99.775696%, 83.80127%)" stop-opacity="1"/>
<stop offset="0.574219" stop-color="rgb(99.606323%, 99.769592%, 83.518982%)" stop-opacity="1"/>
<stop offset="0.597656" stop-color="rgb(99.606323%, 99.760437%, 83.14209%)" stop-opacity="1"/>
<stop offset="0.621094" stop-color="rgb(99.606323%, 99.751282%, 82.765198%)" stop-opacity="1"/>
<stop offset="0.644531" stop-color="rgb(99.606323%, 99.742126%, 82.420349%)" stop-opacity="1"/>
<stop offset="0.664062" stop-color="rgb(99.606323%, 99.734497%, 82.106018%)" stop-opacity="1"/>
<stop offset="0.683594" stop-color="rgb(99.606323%, 99.726868%, 81.791687%)" stop-opacity="1"/>
<stop offset="0.703125" stop-color="rgb(99.606323%, 99.720764%, 81.509399%)" stop-opacity="1"/>
<stop offset="0.71875" stop-color="rgb(99.606323%, 99.714661%, 81.257629%)" stop-opacity="1"/>
<stop offset="0.734375" stop-color="rgb(99.606323%, 99.708557%, 81.007385%)" stop-opacity="1"/>
<stop offset="0.75" stop-color="rgb(99.606323%, 99.702454%, 80.755615%)" stop-opacity="1"/>
<stop offset="0.765625" stop-color="rgb(99.606323%, 99.69635%, 80.535889%)" stop-opacity="1"/>
<stop offset="0.777344" stop-color="rgb(99.606323%, 99.691772%, 80.34668%)" stop-opacity="1"/>
<stop offset="0.789062" stop-color="rgb(99.606323%, 99.685669%, 80.064392%)" stop-opacity="1"/>
<stop offset="0.8125" stop-color="rgb(99.606323%, 99.676514%, 79.6875%)" stop-opacity="1"/>
<stop offset="0.835938" stop-color="rgb(99.606323%, 99.667358%, 79.342651%)" stop-opacity="1"/>
<stop offset="0.855469" stop-color="rgb(99.606323%, 99.661255%, 79.060364%)" stop-opacity="1"/>
<stop offset="0.871094" stop-color="rgb(99.606323%, 99.655151%, 78.808594%)" stop-opacity="1"/>
<stop offset="0.886719" stop-color="rgb(99.606323%, 99.649048%, 78.588867%)" stop-opacity="1"/>
<stop offset="0.898438" stop-color="rgb(99.606323%, 99.642944%, 78.305054%)" stop-opacity="1"/>
<stop offset="0.921875" stop-color="rgb(99.606323%, 99.633789%, 77.960205%)" stop-opacity="1"/>
<stop offset="0.941406" stop-color="rgb(99.606323%, 99.627686%, 77.709961%)" stop-opacity="1"/>
<stop offset="0.953125" stop-color="rgb(99.606323%, 99.620056%, 77.426147%)" stop-opacity="1"/>
<stop offset="0.976562" stop-color="rgb(99.606323%, 99.610901%, 77.049255%)" stop-opacity="1"/>
<stop offset="1" stop-color="rgb(99.606323%, 99.606323%, 76.861572%)" stop-opacity="1"/>
</radialGradient>
</defs>
<g clip-path="url(#clip-0)">
<g clip-path="url(#clip-1)">
<path fill-rule="nonzero" fill="url(#radial-pattern-0)" d="M 0.015625 0 L 0.015625 2160 L 3839.640625 2160 L 3839.640625 0 Z M 0.015625 0 "/>
</g>
</g>
<path fill-rule="nonzero" fill="rgb(95.701599%, 56.443787%, 1.177979%)" fill-opacity="1" d="M 2912.398438 822.441406 C 2904.878906 822.441406 2897.699219 822.570312 2890.859375 822.808594 L 2833.011719 823.839844 C 2637.410156 832.839844 2421.441406 871.949219 2185.128906 941.171875 C 2094.578125 965.230469 2007.539062 990.941406 1924 1018.320312 C 1302.75 1241.652344 938.910156 1366.777344 832.488281 1393.691406 C 645.054688 1451.753906 367.558594 1519.414062 0 1596.675781 L 0.015625 1596.675781 L 0.015625 2160 L 3839.640625 2159.914062 L 3839.640625 1216.976562 L 3839.671875 1216.976562 C 3668.148438 1069.648438 3508.910156 965.289062 3361.941406 903.890625 C 3303.851562 879.621094 3247.679688 862.070312 3193.429688 851.21875 C 3072.890625 832.03125 2979.21875 822.441406 2912.398438 822.441406 Z M 2912.398438 822.441406 "/>
<path fill-rule="nonzero" fill="rgb(97.264099%, 68.554688%, 2.352905%)" fill-opacity="1" d="M 2912.398438 822.441406 C 2904.878906 822.441406 2897.699219 822.570312 2890.859375 822.808594 L 2833.011719 823.839844 C 2637.410156 832.839844 2421.441406 871.949219 2185.128906 941.171875 C 2094.578125 965.230469 2007.539062 990.941406 1924 1018.320312 C 1302.75 1241.652344 938.910156 1366.777344 832.488281 1393.691406 C 645.054688 1451.753906 367.558594 1519.414062 0 1596.675781 L 0.015625 1596.675781 L 0.015625 2160 L 2354.019531 2159.949219 L 2354.03125 2159.949219 C 2358.230469 2158.828125 2362.429688 2157.707031 2366.628906 2156.578125 C 2582.199219 2096.539062 2761.289062 2024.660156 2903.890625 1940.949219 C 2947.691406 1914.46875 2984.929688 1887.621094 3015.628906 1860.410156 C 3080.921875 1791.742188 3112.238281 1750.101562 3109.589844 1735.488281 C 3141.921875 1694.621094 3110.070312 1642.3125 3014.039062 1578.570312 L 2699.210938 1459.175781 C 2625.960938 1429.160156 2576.039062 1403.816406 2549.46875 1383.152344 C 2485.5 1339.210938 2456.019531 1274.5 2461.050781 1189.023438 C 2469.378906 1134.378906 2479.898438 1100.511719 2492.589844 1087.421875 L 2526.660156 1052.488281 C 2554.929688 1029.300781 2594.300781 1006.289062 2644.78125 983.46875 C 2689.878906 952.671875 2849.480469 905.101562 3123.589844 840.761719 C 3036.101562 828.550781 2965.699219 822.441406 2912.398438 822.441406 Z M 2912.398438 822.441406 "/>
<path fill-rule="nonzero" fill="rgb(92.1875%, 47.068787%, 1.960754%)" fill-opacity="1" d="M 677.449219 1316.417969 L 648.933594 1316.6875 C 455.746094 1325.976562 311.578125 1345.46875 216.433594 1375.164062 C 156.464844 1390.554688 84.320312 1410.65625 0 1435.46875 L 0.015625 1435.46875 L 0.015625 2160 L 2940.210938 2159.9375 L 2817.859375 2112.925781 L 1613.339844 1557.300781 L 1520.441406 1521.046875 C 1172.941406 1386.652344 891.945312 1318.441406 677.449219 1316.417969 Z M 677.449219 1316.417969 "/>
<path fill-rule="nonzero" fill="rgb(98.046875%, 74.021912%, 7.054138%)" fill-opacity="1" d="M 677.449219 1316.417969 L 648.933594 1316.6875 C 455.746094 1325.976562 311.578125 1345.46875 216.433594 1375.164062 C 156.464844 1390.554688 84.320312 1410.65625 0 1435.46875 L 0.015625 1435.46875 L 0.015625 2160 L 3839.640625 2159.914062 L 3839.640625 1875.976562 L 3839.628906 1875.976562 C 3789.429688 1888.410156 3739.53125 1899.582031 3689.910156 1909.492188 C 3549.679688 1937.960938 3404.289062 1956.421875 3253.75 1964.886719 C 3251.269531 1965.433594 3241.378906 1965.707031 3224.070312 1965.707031 C 3151.808594 1965.707031 2950.261719 1960.933594 2619.421875 1951.386719 C 2244.628906 1953.652344 1817.140625 1960.855469 1336.96875 1972.992188 C 1283.589844 1972.238281 1209 1967.859375 1113.179688 1959.855469 C 1038.25 1951.023438 971.046875 1943.160156 911.554688 1936.265625 C 944.300781 1888.316406 948.34375 1851.792969 923.691406 1826.695312 C 878.832031 1790.035156 828.863281 1757.394531 773.78125 1728.769531 C 737.027344 1706.394531 640.546875 1661.136719 484.335938 1592.996094 C 445.335938 1570.117188 424.117188 1543.910156 420.683594 1514.371094 C 423.332031 1502.992188 433.921875 1490.730469 452.449219 1477.585938 C 451.789062 1472.117188 497.449219 1450.40625 589.433594 1412.453125 C 656.71875 1387.347656 744.054688 1360.011719 851.433594 1330.441406 C 789.253906 1321.601562 731.257812 1316.925781 677.449219 1316.417969 Z M 677.449219 1316.417969 "/>
<path fill-rule="nonzero" fill="rgb(87.5%, 35.301208%, 1.960754%)" fill-opacity="1" d="M 2319.371094 1705.621094 C 2301.691406 1705.621094 2287.308594 1720 2287.308594 1737.671875 L 2287.308594 1860.910156 C 2275.011719 1858.910156 2265.589844 1848.214844 2265.589844 1835.355469 L 2265.589844 1792.253906 C 2265.589844 1779.707031 2255.378906 1769.496094 2242.828125 1769.496094 C 2230.28125 1769.496094 2220.070312 1779.707031 2220.070312 1792.253906 L 2220.070312 1835.355469 C 2220.070312 1873.332031 2249.871094 1904.476562 2287.308594 1906.644531 L 2287.308594 1950.183594 C 2308.820312 1949.914062 2330.191406 1949.65625 2351.410156 1949.414062 L 2351.421875 1949.417969 L 2351.421875 1869.460938 C 2388.859375 1867.296875 2418.660156 1836.148438 2418.660156 1798.171875 L 2418.660156 1755.070312 C 2418.660156 1742.523438 2408.449219 1732.3125 2395.898438 1732.3125 L 2395.898438 1732.316406 C 2383.359375 1732.3125 2373.140625 1742.523438 2373.140625 1755.070312 L 2373.140625 1798.171875 C 2373.140625 1811.03125 2363.71875 1821.726562 2351.421875 1823.726562 L 2351.421875 1737.671875 C 2351.421875 1720 2337.039062 1705.621094 2319.371094 1705.621094 Z M 3532.328125 1749.476562 C 3508.25 1749.476562 3489.558594 1770.609375 3489.558594 1795.621094 L 3489.558594 1952.050781 L 3477.308594 1952.042969 C 3456.171875 1952.042969 3457.058594 1946.214844 3457.058594 1925.085938 L 3457.058594 1889.113281 C 3457.058594 1874.203125 3444.96875 1862.117188 3430.058594 1862.117188 C 3429.191406 1862.117188 3428.308594 1862.160156 3427.410156 1862.246094 C 3413.378906 1863.582031 3403.070312 1876.171875 3403.070312 1890.273438 L 3403.070312 1990.339844 C 3403.070312 2005.25 3415.160156 2017.335938 3430.058594 2017.339844 L 3477.308594 2017.335938 L 3477.308594 2017.339844 L 3489.558594 2017.335938 L 3489.558594 2072.3125 C 3489.558594 2075.433594 3492.089844 2077.964844 3495.210938 2077.964844 L 3495.210938 2078.121094 L 3533.671875 2078.125 L 3572.128906 2078.121094 L 3572.128906 2077.964844 C 3575.25 2077.964844 3577.78125 2075.433594 3577.78125 2072.3125 L 3577.78125 2017.339844 L 3590.039062 2017.34375 L 3590.039062 2017.335938 L 3637.28125 2017.339844 C 3652.191406 2017.335938 3664.28125 2005.25 3664.28125 1990.339844 L 3664.28125 1890.273438 C 3664.28125 1876.175781 3653.96875 1863.582031 3639.929688 1862.246094 C 3639.039062 1862.160156 3638.160156 1862.117188 3637.28125 1862.117188 C 3622.378906 1862.117188 3610.289062 1874.203125 3610.289062 1889.113281 L 3610.289062 1925.085938 C 3610.289062 1946.214844 3611.179688 1952.042969 3590.039062 1952.046875 L 3577.78125 1952.046875 L 3577.78125 1952.050781 L 3577.78125 1795.621094 C 3577.78125 1770.609375 3559.089844 1749.476562 3535.019531 1749.476562 C 3534.570312 1749.476562 3534.121094 1749.484375 3533.671875 1749.5 C 3533.230469 1749.484375 3532.78125 1749.476562 3532.328125 1749.476562 Z M 312.414062 1734.921875 C 278.753906 1734.921875 251.476562 1762.199219 251.476562 1795.859375 L 251.476562 1975.675781 L 240.214844 1975.675781 C 238.339844 1975.675781 236.75 1975.320312 235.238281 1974.683594 C 232.988281 1973.742188 230.953125 1972.0625 229.5625 1970 C 228.179688 1967.90625 227.421875 1965.644531 227.402344 1962.859375 L 227.402344 1932.789062 C 227.402344 1911.601562 210.226562 1894.417969 189.027344 1894.414062 C 167.839844 1894.414062 150.660156 1911.601562 150.660156 1932.789062 L 150.660156 1962.859375 C 150.65625 1975.117188 153.164062 1986.996094 157.710938 1997.726562 C 164.539062 2013.851562 175.847656 2027.449219 190.113281 2037.097656 C 204.347656 2046.742188 221.765625 2052.414062 240.15625 2052.414062 C 240.175781 2052.414062 240.195312 2052.414062 240.214844 2052.414062 L 251.476562 2052.414062 L 251.476562 2160 L 373.355469 2160 L 373.351562 2026.835938 L 391.921875 2026.835938 C 391.933594 2026.835938 391.949219 2026.835938 391.964844 2026.835938 C 404.03125 2026.835938 415.71875 2024.359375 426.289062 2019.886719 C 442.183594 2013.152344 455.582031 2002.015625 465.09375 1987.945312 C 474.601562 1973.902344 480.207031 1956.710938 480.191406 1938.5625 L 480.191406 1880.132812 C 480.1875 1858.9375 463.011719 1841.757812 441.820312 1841.757812 C 420.625 1841.757812 403.449219 1858.933594 403.449219 1880.128906 L 403.449219 1938.558594 C 403.449219 1940.265625 403.132812 1941.683594 402.558594 1943.042969 C 401.710938 1945.0625 400.199219 1946.90625 398.335938 1948.148438 C 396.449219 1949.394531 394.441406 1950.082031 391.921875 1950.09375 L 373.351562 1950.09375 L 373.351562 1795.859375 C 373.351562 1762.199219 346.074219 1734.921875 312.414062 1734.921875 Z M 312.414062 1734.921875 "/>
<g clip-path="url(#clip-2)">
<g clip-path="url(#clip-3)">
<g clip-path="url(#clip-4)">
<path fill-rule="nonzero" fill="url(#radial-pattern-1)" d="M 122.804688 79.070312 L 122.804688 746.839844 L 790.578125 746.839844 L 790.578125 79.070312 Z M 122.804688 79.070312 "/>
</g>
</g>
</g>
</svg>
